<svg width="50" height="50" viewBox="0 0 50 50" fill="none" xmlns="http://www.w3.org/2000/svg">
<path fill-rule="evenodd" clip-rule="evenodd" d="M24.6844 0.146311C20.5607 0.703188 16.5118 2.50774 13.2345 5.24914C11.088 7.04461 8.97663 9.71998 7.80859 12.1244L7.53564 12.686L6.84731 12.6861C5.64066 12.6862 5.34122 12.8926 2.719 15.5324C1.01152 17.2512 0.396417 17.9348 0.226119 18.3027C0.0155439 18.7575 0 18.9154 0 20.5982C0 22.1226 0.0348026 22.5604 0.222502 23.3972C0.681975 25.4457 1.56348 27.7281 1.96586 27.9113C2.31965 28.0724 2.53072 28.0483 2.83055 27.8126C3.06067 27.6317 3.09108 27.5487 3.05412 27.2021C3.03066 26.9814 2.82321 26.3174 2.59328 25.7264C1.86556 23.8566 1.59916 22.6312 1.54119 20.8857C1.49759 19.5755 1.51382 19.32 1.65918 19.0298C1.85431 18.6404 5.83354 14.5978 6.22732 14.3889C6.63801 14.1712 7.39106 14.2101 7.7819 14.4692C8.22368 14.7621 12.5622 20.5264 12.5622 20.8204C12.5622 20.9743 12.0914 21.5071 10.988 22.6018C10.1222 23.4607 9.35232 24.3049 9.27724 24.4778C8.95962 25.2085 9.15426 25.8114 10.2199 27.3963C12.7562 31.1687 16.2913 34.9709 19.8391 37.7424C22.0189 39.445 23.9327 40.69 24.5159 40.7845C25.3417 40.9184 25.4925 40.8239 27.2786 39.0517C28.4208 37.9184 29.0117 37.3992 29.1591 37.3992C29.4491 37.3992 35.2218 41.7402 35.5109 42.1756C35.7702 42.5661 35.8091 43.3186 35.5912 43.7289C35.3398 44.2022 31.3155 48.1236 30.9086 48.2917C30.4211 48.4931 28.6572 48.4956 27.5182 48.2965C23.5436 47.6019 18.7685 45.0102 13.7353 40.8157C10.7596 38.3359 7.63966 34.7163 5.37426 31.1157C4.36196 29.5066 4.34378 29.4871 3.86866 29.4871C3.5703 29.4871 3.43949 29.5444 3.2821 29.7445C3.00759 30.0931 3.02607 30.3048 3.38709 30.9444C4.66159 33.2028 7.43221 36.8552 9.66437 39.2198C11.8034 41.4857 15.6356 44.5187 18.7211 46.3877C22.8122 48.8658 26.187 50 29.4701 50C30.8975 50 31.4391 49.8884 32.1142 49.4554C32.3024 49.3347 33.4332 48.254 34.6269 47.0539C37.1182 44.5494 37.2928 44.291 37.2945 43.1058L37.2955 42.4143L37.804 42.1778C40.1865 41.0699 43.332 38.5312 45.1168 36.2759C47.6884 33.0263 49.3472 29.136 49.8566 25.1597C50.0489 23.6588 50.0476 20.8407 49.8539 19.3645C49.323 15.3174 47.653 11.3985 45.1237 8.26464C44.787 7.84744 44.4306 7.46287 44.3316 7.40993C43.9926 7.22864 43.579 7.2975 43.3637 7.57101C43.0221 8.0049 43.0989 8.2916 43.7838 9.13927C46.2317 12.1686 47.763 15.6917 48.2882 19.5026C48.4636 20.7754 48.4894 23.4777 48.3378 24.7033C47.5022 31.457 43.4831 37.3288 37.4834 40.5611L36.6448 41.0129L36.408 40.7601C36.2778 40.621 35.9587 40.351 35.699 40.1601L35.2267 39.8129L36.4089 39.202C38.4336 38.1557 39.8169 37.1255 41.404 35.482C42.9198 33.9124 43.971 32.4149 44.8735 30.5394C47.57 24.9358 47.3354 18.1495 44.2605 12.8081C43.1536 10.8854 41.4048 8.82298 39.7504 7.48935C32.6781 1.78813 22.6461 1.80756 15.6102 7.53623C14.6348 8.33037 14.506 8.68486 15.0101 9.1885C15.4245 9.60257 15.6982 9.52159 16.741 8.67616C18.7115 7.07879 20.9944 5.94043 23.4819 5.31498C32.2812 3.10242 41.3347 8.05892 44.2705 16.6959C45.7368 21.0098 45.4222 25.8011 43.4017 29.9267C41.5902 33.6254 38.5054 36.5891 34.7465 38.2421C34.2067 38.4795 33.7209 38.6465 33.6671 38.6133C33.6133 38.5801 32.8156 37.9854 31.8945 37.2918C30.1865 36.0056 29.858 35.8358 29.0836 35.8395C28.3377 35.8429 27.979 36.0913 26.3446 37.7367L24.7972 39.2945L23.9343 38.7244C21.274 36.9669 19.2672 35.3251 16.9527 33.0123C14.638 30.6996 12.9949 28.6945 11.2359 26.0363L10.6653 25.1741L12.2244 23.628C13.8712 21.9949 14.1198 21.6365 14.1232 20.8912C14.1268 20.1175 13.9569 19.7893 12.6697 18.0826C11.9755 17.1623 11.3819 16.3676 11.3504 16.3168C11.3191 16.266 11.4267 15.9014 11.5897 15.5066C12.0836 14.3095 12.7148 13.2131 13.8262 11.6213C14.1783 11.1169 14.2013 10.854 13.9237 10.5014C13.6413 10.1426 13.0416 10.1387 12.7124 10.4935C12.2783 10.9617 11.3598 12.4091 10.7526 13.5821L10.1465 14.7532L9.79908 14.2813C9.60796 14.0217 9.33775 13.7029 9.19854 13.5728L8.94554 13.3362L9.39768 12.4983C11.95 7.76852 16.1195 4.26276 21.2017 2.57328C24.7895 1.3806 28.7408 1.1994 32.4564 2.05724C35.2815 2.70945 38.3958 4.22301 40.6312 6.03029C41.1325 6.43567 41.3227 6.53217 41.62 6.53217C42.0702 6.53217 42.379 6.2573 42.379 5.85642C42.379 5.40289 42.3078 5.30726 41.5154 4.69539C38.308 2.2187 34.5517 0.64751 30.6184 0.137227C29.1785 -0.049538 26.0998 -0.0448493 24.6844 0.146311ZM17.9766 17.4292C16.7478 17.8823 15.8103 19.5201 16.3724 20.2319C16.5193 20.4178 16.6746 20.5005 16.8771 20.5005C17.3335 20.5005 17.5363 20.3369 17.7895 19.765C18.0659 19.1406 18.4796 18.8408 19.0659 18.8403C19.6697 18.8397 20.2242 19.2975 20.3425 19.8942C20.4717 20.5455 20.0624 21.25 17.7298 24.3915C16.3376 26.2665 16.2367 26.5252 16.7126 27.0006L16.9525 27.2404H19.3792C22.0211 27.2404 22.1519 27.2156 22.2837 26.6905C22.3612 26.3825 22.1926 25.9198 21.9626 25.8084C21.8734 25.7653 21.1304 25.7072 20.3112 25.6793L18.8219 25.6287L19.9499 24.0658C21.3127 22.1776 21.8691 21.1208 21.9279 20.3095C22.0076 19.2092 21.4299 18.1445 20.4702 17.6226C20.036 17.3865 19.8103 17.3324 19.1622 17.3091C18.6403 17.2903 18.2447 17.3305 17.9766 17.4292ZM25.7374 17.6576C25.3921 17.9605 24.8222 18.8834 23.1782 21.8013C22.37 23.2358 22.1427 23.7203 22.1427 24.0084C22.1427 24.6694 22.2438 24.7007 24.3744 24.7007H26.2486V25.684C26.2486 26.2248 26.2917 26.7476 26.3443 26.8459C26.4761 27.0919 26.9798 27.2549 27.2689 27.1451C27.7073 26.9786 27.8128 26.6896 27.8128 25.6558V24.7007H28.1478C28.5267 24.7007 28.8881 24.343 28.8881 23.9681C28.8881 23.6336 28.5299 23.2506 28.1507 23.1795L27.8128 23.1161V20.729C27.8128 18.1427 27.786 17.9891 27.2638 17.5787C26.858 17.2597 26.1492 17.2964 25.7374 17.6576ZM33.2663 17.5457C33.0282 17.8187 29.7385 26.1821 29.7334 26.5274C29.7271 26.9624 30.0059 27.2404 30.4488 27.2404C30.6452 27.2404 30.8814 27.1853 30.9737 27.1179C31.2206 26.9375 34.5582 18.4997 34.5582 18.056C34.5582 17.8332 34.4906 17.637 34.3794 17.5364C34.137 17.3172 33.4606 17.3228 33.2663 17.5457ZM36.1224 17.5701C36.0013 17.691 35.9268 17.8956 35.9268 18.1073C35.9268 18.319 36.0013 18.5236 36.1224 18.6446C36.3042 18.8262 36.4482 18.8399 38.1858 18.8399C39.6412 18.8399 40.0428 18.8669 40.0044 18.962C39.9773 19.0292 39.2468 20.6932 38.3809 22.6599C37.5151 24.6266 36.8081 26.3409 36.8098 26.4694C36.8208 27.2913 37.9633 27.4434 38.3308 26.6719C39.2904 24.6578 41.988 18.3395 41.988 18.1062C41.988 17.9427 41.9194 17.7112 41.8358 17.5919C41.6848 17.3765 41.6623 17.3747 39.0007 17.3747C36.4482 17.3747 36.3084 17.3842 36.1224 17.5701ZM26.2486 21.4285V23.1379H25.2629C24.7207 23.1379 24.2917 23.0984 24.3097 23.0502C24.3629 22.907 26.1931 19.719 26.222 19.719C26.2367 19.719 26.2486 20.4883 26.2486 21.4285Z" fill="#5F2DEE"/>
</svg>
