<svg width="42" height="50" viewBox="0 0 42 50" fill="none" xmlns="http://www.w3.org/2000/svg">
<path fill-rule="evenodd" clip-rule="evenodd" d="M23.3996 0.115341C20.6429 0.642865 18.2768 2.01947 16.8046 3.95237C16.3629 4.53222 16.3322 4.55171 15.8613 4.55171C15.2468 4.55171 14.9594 4.7533 14.8674 5.24914C14.7565 5.8465 14.5468 6.17483 14.1569 6.36172C13.7223 6.57008 13.5426 6.57456 13.1825 6.38642C12.7602 6.16587 12.5655 5.89913 12.451 5.38401C12.2733 4.58475 12.1768 4.55171 10.018 4.55171C8.26901 4.55171 8.1154 4.56714 7.86295 4.76779L7.59111 4.98376V7.0088C7.59111 9.30016 7.6104 9.36051 8.38518 9.48569C9.88118 9.7273 9.88118 11.6756 8.38518 11.9172C7.6104 12.0424 7.59111 12.1028 7.59111 14.3941V16.4192L7.86295 16.6351C8.10921 16.831 8.27365 16.8512 9.61532 16.8512H11.0959L11.2365 17.19C11.6322 18.1441 12.5585 18.7263 13.6779 18.7241C14.1044 18.7234 14.4986 18.6537 14.7611 18.5329C15.2376 18.3137 15.9171 17.596 16.0713 17.1488C16.1737 16.852 16.1971 16.8426 16.7579 16.8724C17.3295 16.9028 17.3436 16.9114 17.6771 17.4245C18.1506 18.1531 18.4133 19.0942 18.4876 20.3288C18.5291 21.017 18.6208 21.5489 18.7506 21.8544C18.9727 22.3772 19.4629 22.941 19.8936 23.1689L20.1773 23.319V24.5342C20.1773 26.0675 20.3527 26.5172 21.1169 26.943C21.3929 27.0966 21.6197 27.2928 21.6211 27.3788C21.6267 27.7248 22.1521 28.6498 22.6002 29.1027C24.1486 30.6671 26.9464 30.7549 28.7105 29.2944C29.1766 28.9085 29.7192 28.0657 29.8302 27.5553C29.87 27.372 29.9974 27.2165 30.1682 27.1427C31.2029 26.6951 31.4223 26.2391 31.4223 24.5365V23.2496L31.8608 22.9366C32.5798 22.4231 32.8637 21.7636 32.9682 20.3639C33.0611 19.1203 33.3 18.2443 33.7057 17.6612C33.8361 17.4737 34.2299 16.938 34.5809 16.4709C35.3448 15.4542 35.9605 14.2189 36.3397 12.9425C36.5953 12.082 36.6183 11.8577 36.6178 10.2324C36.6173 8.65756 36.5877 8.34945 36.3516 7.46294C35.8773 5.68149 35.0365 4.24527 33.7305 2.9855C32.3782 1.68113 30.8373 0.835383 28.8484 0.306087C28.0104 0.0831327 27.5854 0.0385209 26.0061 0.00787632C24.7238 -0.0169312 23.9172 0.0163192 23.3996 0.115341ZM26.9555 1.42701C28.327 1.60077 29.342 1.90805 30.5454 2.51385C32.3605 3.42756 33.603 4.66397 34.4082 6.35776C35.0702 7.75042 35.1855 8.32579 35.1839 10.2324C35.1827 11.8455 35.1715 11.9326 34.844 12.8882C34.4332 14.0868 34.1348 14.6265 33.1747 15.9077C31.971 17.5139 31.6583 18.3153 31.5568 20.0544C31.4874 21.2451 31.3311 21.6308 30.8073 21.9044C30.5315 22.0486 29.8894 22.0652 25.585 22.0397L20.6771 22.0108L20.3344 21.6328C20.0161 21.2819 19.9868 21.1888 19.9246 20.3299C19.8374 19.1249 19.6159 18.0786 19.3047 17.4013L19.0545 16.8567L19.3322 16.7225L19.6099 16.5881L19.6387 15.1447L19.6674 13.7012L20.0899 14.3616C20.9177 15.6556 22.0988 16.5924 23.5988 17.1445C24.2814 17.3957 24.4918 17.4227 25.7482 17.4198C26.9894 17.417 27.2233 17.3868 27.8977 17.1413C29.4047 16.5929 30.6759 15.5726 31.4443 14.2946C33.7884 10.3959 31.7518 5.29979 27.3989 4.17157C26.5114 3.94164 24.9646 3.94028 24.0976 4.16865C22.4485 4.6032 20.8629 5.77833 20.0481 7.16994L19.6615 7.83026V6.35328C19.6615 4.94509 19.6507 4.86868 19.4321 4.714C19.2992 4.61988 18.9872 4.55171 18.6897 4.55171H18.1767L18.5322 4.17824C19.8337 2.81123 21.8436 1.833 24.0709 1.48278C25.2022 1.30485 25.8869 1.29161 26.9555 1.42701ZM27.4421 5.69265C29.9907 6.58978 31.518 9.41533 30.8517 12C30.3705 13.8663 28.8885 15.3783 27.0574 15.8708C26.4268 16.0405 25.1667 16.057 24.5102 15.9043C23.1936 15.5979 21.7697 14.4766 21.1289 13.2415C20.8244 12.6548 20.8112 12.5907 20.9679 12.4598C21.292 12.1889 21.6195 11.3051 21.6195 10.7015C21.6195 10.0979 21.292 9.21406 20.9679 8.94316C20.5361 8.5823 22.1783 6.56904 23.3885 5.97543C24.6787 5.34274 26.1553 5.23976 27.4421 5.69265ZM11.2545 6.4302C11.4918 6.96179 12.1831 7.60981 12.7065 7.79107C13.4109 8.03518 14.2772 7.96764 14.9114 7.61929C15.4675 7.31389 16.0037 6.70517 16.1164 6.25186C16.1741 6.01952 16.2142 6.01098 17.2482 6.01098H18.3203V7.54018C18.3203 9.20885 18.3954 9.45067 18.9139 9.45067C19.5767 9.45067 20.1773 10.0453 20.1773 10.7015C20.1773 11.3495 19.5771 11.9523 18.9319 11.9523C18.803 11.9523 18.6128 12.0299 18.509 12.1248C18.3424 12.2772 18.3203 12.4779 18.3203 13.8446V15.392H16.7888C15.0518 15.392 15.0053 15.4115 14.8274 16.2112C14.6385 17.0605 13.9155 17.519 13.2248 17.2274C12.8081 17.0516 12.4408 16.5216 12.4403 16.0955C12.4401 15.9378 12.347 15.7151 12.2336 15.6004C12.0462 15.4111 11.8897 15.392 10.5313 15.392H9.03543V14.3088C9.03543 13.264 9.04389 13.2235 9.27384 13.1652C9.74304 13.0462 10.3457 12.4984 10.6206 11.9413C11.1828 10.8014 10.8707 9.29244 9.93049 8.6043C9.70043 8.43596 9.40497 8.27096 9.27384 8.23771C9.04389 8.17944 9.03543 8.1389 9.03543 7.09417V6.01098H10.0514H11.0674L11.2545 6.4302ZM28.0446 7.95586C27.9742 7.98463 27.2175 8.84862 26.3631 9.87594C25.5087 10.9033 24.785 11.7438 24.7549 11.7438C24.7248 11.7438 24.437 11.5128 24.1152 11.2306C23.3916 10.5958 23.1029 10.5079 22.7262 10.8074C22.3974 11.0686 22.355 11.5083 22.6275 11.8287C22.7267 11.9455 23.1939 12.3728 23.6657 12.7784C24.9928 13.9195 24.8257 13.9947 27.1368 11.2165C29.2193 8.71312 29.3155 8.5306 28.7777 8.10325C28.5122 7.89228 28.3033 7.85027 28.0446 7.95586ZM29.978 24.5608C29.978 25.481 29.9552 25.6118 29.7785 25.7074C29.6513 25.7761 28.2076 25.8153 25.7998 25.8153C23.392 25.8153 21.9483 25.7761 21.8211 25.7074C21.6444 25.6118 21.6216 25.481 21.6216 24.5608V23.5221H25.7998H29.978V24.5608ZM28.4305 27.2664C28.4305 27.5433 27.696 28.2911 27.1438 28.5764C26.6252 28.8444 26.4215 28.8902 25.7482 28.8902C25.075 28.8902 24.8712 28.8444 24.3526 28.5764C23.8004 28.2911 23.0659 27.5433 23.0659 27.2664C23.0659 27.2102 24.1795 27.1703 25.7482 27.1703C27.3169 27.1703 28.4305 27.2102 28.4305 27.2664ZM15.1222 31.0378C13.5091 31.2858 10.957 32.4119 8.5391 33.9422C7.90236 34.3453 7.3462 34.6751 7.30338 34.6751C7.26047 34.6751 7.13357 34.5026 7.02133 34.2916C6.66231 33.6168 6.46372 33.4243 6.12637 33.4243C5.69803 33.4243 0.224384 36.7049 0.0630337 37.0584C0.00113449 37.194 -0.01857 37.4033 0.0191885 37.5236C0.101618 37.7858 7.03288 49.5533 7.25902 49.815C7.60597 50.2163 7.96653 50.0674 10.8546 48.3308C12.8337 47.1408 13.6677 46.5831 13.7711 46.3809C13.9049 46.1192 13.8903 46.0477 13.5787 45.4406C13.1857 44.6746 13.1773 44.6956 14.1494 43.9948C15.4786 43.0365 16.6442 42.7081 17.9866 42.9137C18.4188 42.9799 19.843 43.3835 21.1514 43.8105C25.1491 45.1153 26.555 45.3967 28.3789 45.2576C31.4432 45.0237 37.6967 43.2335 40.0383 41.9197C40.7734 41.5073 41.588 40.8065 41.7792 40.422C42.2797 39.415 41.9087 38.3284 40.8747 37.7728C40.5104 37.577 40.2863 37.5444 39.3144 37.5457C38.3448 37.5469 37.9018 37.6125 36.2711 37.9958C34.2083 38.4805 32.5872 38.7345 31.5255 38.7389C31.0196 38.7411 30.519 38.6349 29.4882 38.3066C28.7364 38.0672 28.139 37.8534 28.1605 37.8316C28.1821 37.8098 28.6994 37.6779 29.3099 37.5386C29.9205 37.3991 30.624 37.1853 30.8734 37.0634C31.5647 36.7253 32.4056 35.8899 32.733 35.2161C33.4979 33.6416 32.6634 31.9174 30.9877 31.6103C30.7573 31.5681 29.8735 31.6438 28.7696 31.8003C25.0867 32.3226 23.3197 32.3702 21.0227 32.0094C20.4947 31.9265 19.7981 31.7461 19.4749 31.6087C18.1565 31.048 16.4831 30.8285 15.1222 31.0378ZM17.6327 32.5365C18.0205 32.6195 18.5928 32.8054 18.9043 32.9495C19.7988 33.3632 21.0361 33.5438 23.3871 33.6039C25.5707 33.6595 26.2693 33.6107 29.2236 33.1952C30.6951 32.9883 30.8065 32.9855 31.0534 33.1489C31.7893 33.6361 31.7859 34.2986 31.0433 35.1006C30.5025 35.6848 30.0252 35.8948 28.4255 36.2528C27.2543 36.5147 24.9794 36.5897 23.7258 36.4078C23.1313 36.3215 23.0864 36.33 22.9262 36.5612C22.7094 36.874 22.7094 37.2641 22.9261 37.5061C23.0243 37.6157 24.6216 38.212 26.7174 38.9214L30.3391 40.1473L31.6287 40.1323C33.2186 40.1139 34.0665 39.9916 36.3742 39.4482C37.4798 39.188 38.5422 39.0042 39.1148 38.9743C39.9872 38.9287 40.0692 38.9421 40.3356 39.1737C40.5958 39.3998 40.6098 39.4471 40.4936 39.7048C40.0816 40.6185 37.0926 41.8359 32.2711 43.0539C27.7455 44.1971 26.8211 44.1449 21.6732 42.4555C20.3681 42.0272 18.9425 41.6024 18.5052 41.5114C16.566 41.1081 15.1303 41.468 13.29 42.8189C12.8154 43.1674 12.4134 43.4358 12.3967 43.4155C12.2425 43.2284 8.10694 36.1185 8.10694 36.0408C8.10694 35.8971 10.5277 34.3924 11.7706 33.7636C14.2083 32.5303 15.9249 32.1709 17.6327 32.5365ZM9.02831 40.5466C10.7442 43.4607 12.1324 45.8578 12.1135 45.8737C12.0944 45.8895 11.2664 46.3859 10.2734 46.9767C9.28044 47.5675 8.3697 48.1149 8.24941 48.1933C8.03802 48.331 7.92887 48.1632 4.92687 43.0826C3.21969 40.1935 1.80931 37.7744 1.7926 37.7067C1.75845 37.5683 5.75147 35.0839 5.8471 35.1841C5.88094 35.2194 7.31246 37.6326 9.02831 40.5466ZM8.3534 44.6129C8.15635 44.7841 8.07259 44.9566 8.07259 45.1911C8.07259 45.8497 8.70478 46.1122 9.22546 45.6696C9.61109 45.3417 9.65999 44.8956 9.34492 44.5772C9.07081 44.3003 8.69756 44.3137 8.3534 44.6129Z" fill="#5F2DEE"/>
</svg>
