<svg width="57" height="50" viewBox="0 0 57 50" fill="none" xmlns="http://www.w3.org/2000/svg">
<path fill-rule="evenodd" clip-rule="evenodd" d="M26.5868 0.0816215C26.2577 0.220426 26.2252 0.278742 25.6267 1.8057L25.1092 3.12608L24.293 3.45554L23.4768 3.78511L22.1833 3.20599C21.4719 2.8875 20.7581 2.62687 20.5972 2.62687C20.3778 2.62687 19.9637 2.96522 18.9437 3.97761C17.3149 5.59407 17.3304 5.52802 18.1499 7.36758L18.7171 8.64072L18.4384 9.24247C18.2849 9.57343 18.159 9.90786 18.1584 9.98557C18.157 10.1594 17.8226 10.3278 16.4909 10.8254C14.8773 11.4284 14.9395 11.317 14.9395 13.6046C14.9395 15.2762 14.9665 15.5664 15.1406 15.7704C15.2513 15.9 15.9339 16.2356 16.6577 16.516C17.3816 16.7965 18.0119 17.0989 18.0585 17.1882C18.1052 17.2773 18.268 17.6382 18.4203 17.9901L18.6971 18.6299L18.1425 19.8378C17.767 20.656 17.5336 21.0351 17.419 21.013C17.326 20.9951 16.9637 20.8533 16.6139 20.6978C16.0088 20.4289 15.9832 20.4005 16.0907 20.1166C16.2745 19.6305 16.2197 18.5508 15.9853 18.0431C15.6637 17.3468 15.1803 16.9663 13.0433 15.7283C11.0387 14.5668 10.5325 14.3957 10.1735 14.7578C10.0822 14.8498 7.75579 18.8391 5.0037 23.6228C1.71126 29.3459 0 32.4294 0 32.6388C0 32.822 0.109863 33.0577 0.258569 33.1937C0.708938 33.6057 4.28741 35.6235 4.82546 35.7689C5.9981 36.0857 7.18361 35.5716 7.95035 34.4136L8.12135 34.1553L8.59241 34.5605L9.06346 34.9656L8.8358 35.4831C8.6817 35.8328 8.60723 36.2585 8.60551 36.7973C8.60217 37.856 8.92636 38.6124 9.6723 39.2863C10.4119 39.9546 11.1586 40.2039 12.1969 40.1292L12.9859 40.0725L12.987 40.4902C12.9884 41.0322 13.4256 41.9669 13.901 42.4448C14.5266 43.0733 15.1148 43.3135 16.2026 43.3845L17.1784 43.4483L17.2543 43.9842C17.414 45.1119 18.0769 45.9792 19.1603 46.4776C19.6915 46.7219 19.9125 46.7572 20.693 46.7216L21.6048 46.6799V46.9777C21.6048 47.5384 21.9706 48.3547 22.474 48.9171C23.1333 49.654 23.9077 49.9934 24.945 49.9999C25.8592 50.0057 26.3692 49.788 28.6149 48.4333L30.0514 47.5668L30.5041 48.028C31.2008 48.7378 31.7506 48.9768 32.6946 48.9798C33.3683 48.982 33.5979 48.928 34.1082 48.6476C34.8001 48.2675 35.3043 47.6499 35.504 46.9376C35.6391 46.4562 35.6471 46.4504 36.1939 46.4307C37.3501 46.3889 38.4543 45.4907 38.7597 44.3437L38.8904 43.8524H39.4624C40.5647 43.8524 41.6709 42.9949 41.9898 41.8929L42.1413 41.3697L42.8324 41.302C44.3507 41.1535 45.4444 39.8644 45.3809 38.2983L45.3527 37.6055L47.2949 36.3291C48.5415 35.5097 49.2851 35.0877 49.3707 35.1508C49.4442 35.205 49.6849 35.3937 49.9057 35.5701C50.4604 36.0132 51.4279 36.2093 52.1294 36.0207C52.6825 35.8721 56.2916 33.8424 56.7414 33.427C56.8891 33.2907 57 33.0523 57 32.8713C57 32.6637 55.2732 29.5526 51.9958 23.8553C49.2435 19.0708 46.9172 15.0808 46.8261 14.9888C46.4647 14.6232 45.963 14.7981 43.8992 16.0099C42.7931 16.6594 41.7394 17.3305 41.5576 17.5014C41.1019 17.9299 40.8019 18.6328 40.7989 19.279L40.7964 19.822L40.0207 20.279C39.5941 20.5305 39.2365 20.7279 39.2262 20.7177C39.2159 20.7075 39.0039 20.2336 38.7552 19.6646L38.3029 18.63L38.5797 17.9901C38.732 17.6383 38.8949 17.2771 38.9418 17.1875C38.9887 17.098 39.6191 16.7973 40.3427 16.5192C41.0662 16.2412 41.7488 15.906 41.8594 15.7742C42.0334 15.5671 42.0605 15.2747 42.0605 13.6046C42.0605 11.2939 42.1591 11.4523 40.2607 10.7172L38.9781 10.2206L38.6395 9.41061L38.3008 8.60065L38.8591 7.34748C39.6686 5.53032 39.6834 5.59234 38.0564 3.97761C37.0639 2.99247 36.6192 2.62687 36.4136 2.62687C36.2586 2.62687 35.5438 2.88808 34.8249 3.20737L33.5182 3.78777L32.705 3.44664L31.892 3.10552L31.3726 1.7721C31.0871 1.0387 30.7617 0.346412 30.6498 0.23359C30.4743 0.0571404 30.1952 0.0250374 28.6399 0.00309657C27.6465 -0.0109917 26.7227 0.0243445 26.5868 0.0816215ZM29.9969 3.05991C30.5741 4.5699 30.4031 4.40419 32.1774 5.17073C33.4667 5.72756 33.5204 5.72664 34.8658 5.12315C35.5196 4.82995 36.1018 4.58999 36.1594 4.58999C36.2171 4.58999 36.5606 4.89092 36.9228 5.25872L37.5814 5.92745L36.9937 7.24655C36.4802 8.39914 36.4205 8.61 36.5208 8.91625C36.6312 9.25333 37.2284 10.6888 37.5071 11.2877C37.6108 11.5102 37.944 11.6972 38.9604 12.1032L40.2792 12.63V13.6447V14.6594L39.0726 15.1196C38.4089 15.3726 37.7776 15.6593 37.6695 15.7568C37.5616 15.8543 37.3863 16.2007 37.2801 16.5267C37.1739 16.8526 36.939 17.4167 36.7582 17.78C36.5773 18.1434 36.4304 18.5071 36.4315 18.5883C36.4328 18.6696 36.7172 19.3812 37.0638 20.1697C37.4104 20.9582 37.681 21.613 37.6651 21.625C37.6491 21.637 37.3828 21.7939 37.0732 21.9736C36.5203 22.2943 36.4947 22.2978 35.6367 22.171C35.1562 22.1 34.1684 21.8506 33.4415 21.6168C31.7356 21.0682 30.2468 20.9661 29.0332 21.3147L28.245 21.5412L27.4997 21.1908C26.4832 20.7128 23.1713 20.0369 21.7772 20.023C20.9172 20.0144 20.6614 20.0559 20.2588 20.2694L19.7747 20.5262L20.1939 19.5917C20.5544 18.788 20.595 18.6141 20.4851 18.3501C20.4146 18.1813 20.1667 17.5755 19.9343 17.0038C19.7017 16.4322 19.4265 15.8783 19.3228 15.773C19.219 15.6675 18.5763 15.3641 17.8943 15.0985L16.6547 14.6157L16.6877 13.6206L16.7208 12.6255L17.9775 12.133C18.6688 11.8622 19.2992 11.5742 19.3784 11.493C19.4576 11.4118 19.6487 11.0077 19.8029 10.5948C19.9572 10.182 20.2025 9.57332 20.3481 9.24224L20.6126 8.64026L20.0219 7.27912L19.4313 5.91798L20.112 5.22997L20.7929 4.54207L21.6874 4.9273C23.4317 5.67883 23.5099 5.69973 23.9284 5.52663C24.1358 5.44094 24.7272 5.20549 25.2427 5.00352C25.7583 4.80154 26.2559 4.57301 26.3485 4.49576C26.4412 4.4185 26.7435 3.75936 27.0201 3.03115L27.5232 1.70697L28.5007 1.70501L29.4782 1.70304L29.9969 3.05991ZM26.8415 7.53837C25.1214 8.01275 23.6512 9.24074 22.8863 10.842C22.1832 12.3136 22.0382 13.4247 22.3531 14.9253C22.8471 17.2791 24.7225 19.2273 27.0179 19.771C31.3489 20.7968 35.3582 17.1467 34.7297 12.75C34.3743 10.2636 32.5229 8.15918 30.1498 7.54437C29.2969 7.32346 27.632 7.32046 26.8415 7.53837ZM30.3387 9.4568C32.1979 10.3228 33.3718 12.4897 32.9985 14.3663C32.6931 15.9016 31.7462 17.1331 30.3664 17.7899C29.6644 18.1241 29.4893 18.1586 28.5 18.1586C27.5107 18.1586 27.3356 18.1241 26.6336 17.7899C24.786 16.9104 23.6516 14.8532 23.994 13.003C24.3223 11.2292 25.4012 9.92287 27.0439 9.31037C27.9159 8.98519 29.4751 9.05447 30.3387 9.4568ZM29.2266 12.5824L27.6934 14.108L26.9732 13.3908C26.4116 12.8315 26.1769 12.6734 25.9081 12.6734C25.3633 12.6734 25.052 12.9604 25.0553 13.4595C25.0578 13.8309 25.1785 14.017 25.99 14.9015C27.0212 16.0251 27.4348 16.3038 27.9145 16.1979C28.1216 16.1522 28.8757 15.4763 30.0896 14.2484C31.8152 12.5029 31.9476 12.3387 31.9476 11.9437C31.9476 11.4084 31.6211 11.0567 31.124 11.0567C30.811 11.0567 30.545 11.2706 29.2266 12.5824ZM14.2213 18.5462C14.7645 19.0297 14.7346 19.0926 10.3558 26.6924C6.07395 34.1239 5.97845 34.265 5.3426 34.1046C5.19631 34.0677 4.39842 33.6414 3.5694 33.1573L2.062 32.2772L2.27115 31.9156C2.38619 31.7168 4.41083 28.1947 6.77047 24.0889L11.0608 16.6237L12.5117 17.4698C13.3097 17.9352 14.079 18.4195 14.2213 18.5462ZM50.5057 24.7986C52.894 28.9587 54.8674 32.3972 54.8909 32.4396C54.9528 32.5518 51.7689 34.3841 51.5205 34.3792C51.4056 34.3769 51.1882 34.3063 51.0374 34.2224C50.6421 34.0023 42.5261 19.8981 42.5248 19.4289C42.5242 19.2383 42.5726 19.0045 42.6324 18.9092C42.6922 18.814 43.4542 18.3173 44.3258 17.8055C45.6938 17.0022 45.9275 16.8997 46.0367 17.0549C46.1062 17.1539 48.1172 20.6385 50.5057 24.7986ZM44.9836 27.5542C46.8589 30.8165 48.3776 33.5 48.3585 33.5176C48.3191 33.5538 44.7136 35.9152 44.5237 36.0293C44.4557 36.07 44.0338 35.6254 43.5758 35.0305C42.515 33.6525 41.9278 33.2937 40.7389 33.2976C39.6792 33.3011 38.9134 33.6905 38.3351 34.5201L38.1528 34.7818L37.8085 34.362C37.094 33.4911 35.7506 33.1239 34.5744 33.478C34.0136 33.6469 33.27 34.2799 32.9913 34.8258L32.7774 35.2446L31.9126 35.2083C30.8995 35.1658 30.2773 35.3865 29.6593 36.0076C29.0995 36.5701 28.8503 37.1981 28.8473 38.0534C28.8445 38.8453 29.0306 39.4063 29.502 40.0273C29.7902 40.407 29.7956 40.4366 29.5973 40.5532C28.1687 41.3936 27.6956 42.0892 27.6956 43.3496C27.6956 44.2272 27.8755 44.7085 28.497 45.4928C28.75 45.812 28.9315 46.1144 28.9005 46.1649C28.8009 46.3269 25.6571 48.1325 25.291 48.238C24.3443 48.5109 23.3286 47.6603 23.3286 46.5947C23.3286 45.9196 23.7326 45.4926 25.1673 44.651C25.8942 44.2245 26.5861 43.745 26.705 43.5854C27.1059 43.0467 26.7166 42.3512 26.0141 42.3512C25.7119 42.3512 25.0699 42.6684 23.4079 43.6389C21.5624 44.7165 21.1088 44.9342 20.628 44.9734C19.5322 45.0624 18.8865 44.3333 18.9489 43.077C18.9739 42.5758 19.6473 42.041 21.8744 40.7536C23.1037 40.0429 24.1406 39.38 24.1788 39.2802C24.2168 39.1805 24.248 38.9511 24.248 38.7704C24.248 38.4003 23.7935 37.9631 23.4086 37.9631C23.28 37.9631 21.7411 38.7945 19.989 39.8107C17.2033 41.4261 16.7401 41.6584 16.3022 41.6579C15.287 41.6571 14.6398 40.928 14.7385 39.8963C14.7797 39.4655 14.8736 39.2475 15.1248 38.9988C15.3073 38.8181 17.0081 37.7758 18.9042 36.6826C20.8004 35.5895 22.4448 34.6147 22.5584 34.5163C22.8771 34.2405 22.7814 33.4882 22.3905 33.1961C22.1906 33.0466 21.9915 32.9917 21.8159 33.0377C21.6683 33.0764 19.4788 34.3078 16.9506 35.7742C12.5064 38.3519 12.3362 38.4388 11.8254 38.3936C10.9315 38.3143 10.3427 37.6871 10.3427 36.8136C10.3427 36.5503 10.4208 36.1833 10.5162 35.998C10.7106 35.6201 10.8082 35.5604 18.3296 31.2113C21.0475 29.6399 23.4325 28.2555 23.6297 28.1351L23.9883 27.9163L24.3038 28.8113C24.9663 30.6905 25.7227 31.7143 26.8091 32.2028C27.3317 32.4377 27.6286 32.4774 29.1329 32.5137C30.7587 32.5529 30.8755 32.541 31.1727 32.3062C31.5585 32.0012 31.5609 31.8627 31.2057 30.4037C31.0504 29.7661 30.8422 28.3871 30.7429 27.3391C30.5505 25.3082 30.3294 24.2016 29.9749 23.4955C29.8542 23.2551 29.7901 23.0022 29.8324 22.9333C29.9765 22.6991 31.6969 22.8984 32.9244 23.2915C34.2947 23.7304 35.5471 23.9883 36.4221 24.0117C37.0393 24.0282 37.1371 23.9847 39.245 22.7542C40.4459 22.0531 41.4612 21.5118 41.5012 21.5512C41.5412 21.5907 43.1083 24.292 44.9836 27.5542ZM24.0885 22.0826C28.0674 22.8615 28.6134 23.4521 29.0123 27.4095C29.114 28.4187 29.2473 29.5268 29.3083 29.872C29.4882 30.8887 29.5268 30.8407 28.5779 30.7795C27.1009 30.6843 26.7069 30.2548 25.7926 27.7433C25.4921 26.9176 25.1538 26.1424 25.0408 26.0207C24.927 25.8982 24.6823 25.7994 24.4926 25.7994C24.138 25.7994 23.8883 25.9388 14.9395 31.1326L10.4002 33.7671L9.73942 33.1976C9.37593 32.8845 9.07863 32.5857 9.07863 32.5338C9.07863 32.4302 14.9022 22.2599 15.0505 22.1044C15.1007 22.0516 15.8721 22.302 16.7644 22.6608C17.9129 23.1224 18.4621 23.2891 18.6444 23.2309C18.7861 23.1857 19.3136 22.8895 19.8168 22.5726C20.9043 21.8878 21.3287 21.6913 21.734 21.6852C21.8998 21.6828 22.9594 21.8615 24.0885 22.0826ZM41.12 35.086C41.3673 35.1727 41.7756 35.5922 42.4408 36.4429C42.9704 37.1202 43.4634 37.7879 43.5365 37.9266C44.0888 38.9752 42.7259 40.0812 41.7915 39.3426C41.3036 38.957 39.6504 36.7378 39.5773 36.3705C39.4853 35.9083 39.8034 35.3283 40.258 35.1297C40.7091 34.9325 40.6851 34.9337 41.12 35.086ZM36.4185 35.5174C36.6457 35.7601 37.6321 36.9913 38.6103 38.2536C40.1827 40.2825 40.389 40.5988 40.389 40.9815C40.389 41.7381 39.628 42.3005 38.8763 42.0994C38.5743 42.0185 38.1332 41.5194 36.4343 39.3361C34.2786 36.5657 34.1864 36.3956 34.4845 35.7382C34.6524 35.3677 35.1407 35.0829 35.6141 35.0792C35.9209 35.0768 36.0944 35.1713 36.4185 35.5174ZM32.4536 37.1836C32.6124 37.3265 33.7272 38.716 34.9307 40.2714C36.8294 42.7249 37.119 43.1533 37.119 43.5078C37.119 44.0135 36.8556 44.4074 36.3857 44.6048C35.8954 44.8106 35.4827 44.7065 35.076 44.2743C34.8877 44.074 33.7964 42.6997 32.651 41.2203C30.7375 38.7488 30.5685 38.4928 30.5685 38.0647C30.5685 37.0905 31.7407 36.5426 32.4536 37.1836ZM31.2499 42.396C31.6838 42.7354 33.7911 45.5625 33.8529 45.8882C33.9433 46.3636 33.6563 46.9125 33.1911 47.1543C32.8936 47.3089 32.7529 47.319 32.3963 47.2117C32.0348 47.1028 31.7747 46.838 30.8246 45.6112C29.5252 43.9334 29.4194 43.7599 29.4194 43.3083C29.4194 42.4369 30.5694 41.8638 31.2499 42.396Z" fill="#5F2DEE"/>
</svg>
