<svg width="50" height="50" viewBox="0 0 50 50" fill="none" xmlns="http://www.w3.org/2000/svg">
<path fill-rule="evenodd" clip-rule="evenodd" d="M43.9101 1.61949C40.6497 2.70545 39.0259 3.29221 38.9332 3.41788C38.7366 3.68481 38.7592 4.32457 38.9727 4.53432C39.0699 4.62981 39.6326 5.0638 40.2231 5.49859C40.8136 5.93337 41.2967 6.31792 41.2967 6.35306C41.2967 6.43277 35.6527 10.797 35.4496 10.8743C35.3683 10.9053 31.6467 9.89506 27.1795 8.62932C21.519 7.02549 18.9482 6.33887 18.6976 6.36398C18.4164 6.39208 16.4091 7.70466 9.48477 12.388C4.61544 15.6815 0.575223 18.4474 0.506397 18.5344C0.437671 18.6216 0.38135 18.8649 0.38135 19.0751C0.38135 19.3876 0.460279 19.5428 0.813512 19.9247C1.0512 20.1817 2.83477 22.1341 4.7771 24.2633C6.71933 26.3926 8.41807 28.2352 8.55202 28.358C8.82632 28.6096 9.44135 28.6624 9.70786 28.4573C9.79659 28.3891 12.3085 24.8713 15.2901 20.6402C18.2715 16.409 20.727 12.93 20.7466 12.9091C20.7663 12.8881 24.2274 13.7256 28.4381 14.7703C32.6488 15.8149 36.2614 16.6695 36.4664 16.6695C36.8232 16.6695 37.0004 16.5095 40.6452 12.8974C42.7386 10.8228 44.4766 9.12535 44.5075 9.12535C44.5384 9.12535 45.1644 9.57205 45.8985 10.118C46.9773 10.9204 47.2983 11.1107 47.5728 11.1107C48.0608 11.1107 48.2778 10.9601 48.3974 10.5383C48.5685 9.93536 50 1.22818 50 0.791019C50 0.243471 49.736 -0.009458 49.1747 0.00027002C48.9065 0.0049355 46.9628 0.602812 43.9101 1.61949ZM48.0977 2.15195C48.0931 2.36924 47.0026 8.65841 46.9627 8.69811C46.9366 8.72382 46.432 8.38384 45.8412 7.9425C44.1543 6.68223 44.7177 6.38274 40.0233 11.0353L36.0931 14.9307L28.3661 13.0178C24.1162 11.9658 20.5013 11.1063 20.3329 11.1079C20.1647 11.1094 19.9563 11.1665 19.87 11.2347C19.7836 11.303 17.337 14.7314 14.4329 18.8534C11.5289 22.9754 9.14164 26.3625 9.12774 26.3804C9.11393 26.3982 7.61747 24.7929 5.80229 22.8132L2.50205 19.2135L3.01724 18.8572C7.4432 15.7964 18.9684 8.0914 19.084 8.11632C19.1689 8.13448 22.8504 9.1731 27.265 10.4242C31.6796 11.6753 35.4451 12.6989 35.6328 12.6989C35.9271 12.6989 36.4799 12.3092 39.6607 9.85932C41.6885 8.29758 43.4038 6.94896 43.4725 6.8624C43.6108 6.68838 43.6386 6.06738 43.5167 5.87689C43.4738 5.80998 43.0216 5.44518 42.5116 5.06619C42.0016 4.68719 41.5759 4.34363 41.5656 4.30273C41.5505 4.24308 47.753 2.11363 48.0243 2.08534C48.0656 2.08107 48.0986 2.11095 48.0977 2.15195ZM41.3968 16.0739C41.1995 16.2697 41.1967 16.4048 41.1967 25.7003V35.128L40.4214 35.5784L39.6461 36.0288L39.5961 29.2695C39.5477 22.7233 39.54 22.5056 39.3519 22.3693C39.1996 22.2589 38.7294 22.2284 37.1761 22.2284C35.3278 22.2284 35.1809 22.2418 34.9944 22.4269C34.7978 22.622 34.7943 22.7578 34.7943 30.2303V37.8352L34.4692 37.7795C34.2903 37.7489 33.9303 37.6942 33.6689 37.6579L33.1937 37.592V28.1234C33.1937 18.7872 33.1909 18.6521 32.9936 18.4563C32.8068 18.271 32.6602 18.2578 30.7928 18.2578C28.9254 18.2578 28.7787 18.271 28.592 18.4563C28.3972 18.6496 28.3919 18.7872 28.3919 23.6181V28.5814H27.5916H26.7913V25.2064C26.7913 21.9637 26.7835 21.8236 26.5912 21.6328C26.4044 21.4475 26.2578 21.4343 24.3904 21.4343C22.523 21.4343 22.3763 21.4475 22.1895 21.6328C21.9961 21.8248 21.9895 21.9637 21.9895 25.8445V29.8577L21.4489 30.0137C21.1516 30.0995 20.7914 30.1696 20.6486 30.1696H20.3889V27.5887C20.3889 25.1402 20.3786 24.9976 20.1888 24.8093C20.002 24.624 19.8554 24.6108 17.988 24.6108C16.1206 24.6108 15.9739 24.624 15.7871 24.8093C15.5968 24.9982 15.5871 25.1402 15.5871 27.7249V30.442L15.191 30.5049C14.5138 30.6124 12.9807 31.1631 11.9357 31.6743C9.25578 32.9853 7.04215 35.1356 5.5684 37.8595C5.17105 38.594 4.83973 39.0425 4.28282 39.6C3.59656 40.2869 3.38328 40.4259 1.78188 41.2301C0.819014 41.7137 0.0177132 42.1202 0.00120698 42.1334C-0.0152992 42.1467 0.139459 42.4948 0.344936 42.907L0.718677 43.6564L2.57577 42.7258C5.01939 41.5013 5.99906 40.6667 6.82607 39.105C8.85023 35.2827 12.0121 32.8797 16.1072 32.0516C16.8659 31.8982 17.6618 31.8345 19.3272 31.794L21.5393 31.7403L24.0235 31.0455C26.498 30.3533 27.689 30.1416 28.2698 30.291C28.9937 30.4772 29.3517 31.5029 28.8943 32.08C28.6342 32.4081 26.7884 33.4881 26.0663 33.7346C25.418 33.9559 25.0799 34.0096 23.5264 34.1378C22.1102 34.2547 21.0417 34.5986 19.9014 35.3043C18.8859 35.9328 18.7883 36.0414 18.7883 36.5416C18.7883 36.9961 19.0378 37.2812 19.5079 37.3638C20.7129 37.5754 36.0155 39.6991 36.3359 39.6991C36.6754 39.6991 37.3939 39.3175 41.218 37.1059C43.6842 35.6797 45.87 34.4531 46.0753 34.3805C46.2807 34.3077 46.712 34.2463 47.0339 34.2439C47.5688 34.2399 47.6484 34.2686 47.9592 34.577C48.2477 34.8633 48.2994 34.984 48.2994 35.3726C48.2994 35.7538 48.2447 35.8875 47.9742 36.1693C47.7954 36.3556 45.3533 37.9706 42.5472 39.7582C37.475 42.9896 36.6083 43.4708 35.5946 43.6183C35.347 43.6545 31.5881 43.8517 27.2414 44.0568L19.3385 44.4295L13.3862 46.3948C10.1125 47.4757 7.39999 48.3905 7.35837 48.4276C7.29245 48.4866 7.7089 49.8819 7.82745 49.9995C7.85176 50.0236 10.5868 49.1494 13.9051 48.0567L19.9387 46.07L26.8913 45.7586C30.7153 45.5874 34.3664 45.4051 35.0051 45.3538C36.2201 45.2559 37.2027 45.0089 38.0455 44.5893C38.6 44.3132 48.316 38.1384 48.9473 37.6607C49.1663 37.495 49.4784 37.1461 49.641 36.8853C49.8899 36.4858 49.9433 36.282 49.9797 35.5935C50.034 34.5678 49.8009 33.957 49.1111 33.3168C48.4484 32.7016 47.9296 32.5291 46.8638 32.5691L45.998 32.6016L45.9983 24.4371C45.9985 16.4047 45.9953 16.2693 45.7984 16.0739C45.6116 15.8886 45.465 15.8754 43.5976 15.8754C41.7302 15.8754 41.5835 15.8886 41.3968 16.0739ZM44.3968 25.3801L44.3958 33.2965L43.6498 33.7184C43.2395 33.9504 42.8798 34.1403 42.8505 34.1403C42.8213 34.1403 42.7973 30.388 42.7973 25.802V17.4637H43.5976H44.3979L44.3968 25.3801ZM31.5931 28.5929V37.3399L30.9254 37.2689C30.5582 37.2299 30.1981 37.1753 30.1251 37.1475C30.0217 37.1081 29.9925 36.6992 29.9925 35.2907V33.4845L30.2778 33.0927C30.6638 32.5625 30.7928 32.1413 30.7928 31.4105C30.7928 30.6894 30.6675 30.2757 30.2767 29.7051L29.9925 29.2901V24.5681V19.846H30.7928H31.5931V28.5929ZM25.1907 25.9852V28.9479L24.449 29.1617C24.0411 29.2793 23.681 29.3755 23.6487 29.3755C23.6165 29.3755 23.5901 27.9461 23.5901 26.199V23.0225H24.3904H25.1907V25.9852ZM37.9955 30.4084V37L37.4203 37.3217C37.1039 37.4986 36.7438 37.7091 36.62 37.7893L36.3949 37.9352V30.8759V23.8166H37.1952H37.9955V30.4084ZM18.7883 28.1843V30.1696H17.988H17.1877V28.1843V26.199H17.988H18.7883V28.1843ZM28.369 36.8763C28.3527 36.8924 27.012 36.7175 25.3895 36.4876C23.6391 36.2394 22.4937 36.0362 22.5725 35.9876C22.6455 35.9426 23.3433 35.8468 24.1231 35.7749C25.8993 35.6108 26.377 35.498 27.4679 34.985L28.3419 34.5739L28.3702 35.7104C28.3857 36.3355 28.3852 36.8601 28.369 36.8763Z" fill="#5F2DEE"/>
</svg>
