<svg width="221" height="60" viewBox="0 0 221 60" fill="none" xmlns="http://www.w3.org/2000/svg">
<rect x="0.5" y="0.5" width="220" height="59" fill="white"/>
<rect x="0.5" y="0.5" width="220" height="59" stroke="#5F2DEE"/>
<path d="M73.0182 36.6958C73.0182 37.569 72.839 38.2399 72.4809 38.7087C72.1321 39.1775 71.549 39.4118 70.7318 39.4118C69.9604 39.4118 69.4142 39.1775 69.0927 38.7087C68.7805 38.2399 68.6245 37.569 68.6245 36.6958V22.1232C68.6245 21.2501 68.7805 20.5791 69.0927 20.1104C69.4142 19.6416 69.9604 19.4072 70.7318 19.4072C71.549 19.4072 72.1321 19.6416 72.4809 20.1104C72.839 20.5791 73.0182 21.2501 73.0182 22.1232V36.6958Z" fill="#5F2DEE"/>
<path d="M74.3519 32.4632C74.3519 31.4889 74.508 30.5698 74.8203 29.7058C75.1416 28.8326 75.619 28.0698 76.2527 27.4172C76.8954 26.7646 77.6943 26.2453 78.6493 25.8593C79.6134 25.4732 80.7428 25.2803 82.0375 25.2803C83.2771 25.2803 84.3744 25.4594 85.3293 25.8179C86.2843 26.1764 87.0877 26.6773 87.7396 27.3207C88.3915 27.9549 88.8874 28.7131 89.2272 29.5955C89.5669 30.4686 89.7368 31.4245 89.7368 32.4632C89.7368 33.4283 89.576 34.3427 89.2547 35.2067C88.9334 36.0615 88.4512 36.8152 87.8085 37.4678C87.1658 38.1111 86.3623 38.6258 85.3982 39.0119C84.434 39.3887 83.3138 39.5771 82.0375 39.5771C80.7795 39.5771 79.6685 39.3979 78.7043 39.0394C77.7493 38.6718 76.946 38.1709 76.294 37.5366C75.6512 36.8933 75.1645 36.1397 74.834 35.2757C74.5126 34.4025 74.3519 33.465 74.3519 32.4632ZM78.9385 32.4632C78.9385 33.0698 78.9935 33.6489 79.1038 34.2003C79.2139 34.7425 79.3884 35.2205 79.6271 35.6342C79.875 36.0477 80.1965 36.3786 80.5913 36.6267C80.9862 36.8657 81.4682 36.9852 82.0375 36.9852C82.5609 36.9852 83.0154 36.875 83.401 36.6543C83.7959 36.4338 84.1172 36.1258 84.3652 35.7306C84.6223 35.3354 84.8151 34.862 84.9436 34.3106C85.0722 33.7499 85.1365 33.1342 85.1365 32.4632C85.1365 31.8565 85.0768 31.282 84.9575 30.7398C84.8472 30.1884 84.6682 29.7058 84.4202 29.2922C84.1724 28.8694 83.851 28.5385 83.4561 28.2996C83.0705 28.0514 82.5975 27.9273 82.0375 27.9273C81.4773 27.9273 80.9999 28.0467 80.605 28.2858C80.2102 28.5247 79.8889 28.851 79.6409 29.2646C79.393 29.6783 79.2139 30.1607 79.1038 30.7123C78.9935 31.2637 78.9385 31.8473 78.9385 32.4632Z" fill="#5F2DEE"/>
<path d="M101.042 36.7512C100.795 37.2107 100.492 37.6013 100.133 37.923C99.7845 38.2447 99.3942 38.5113 98.9628 38.7227C98.5403 38.9248 98.0858 39.0765 97.5991 39.1776C97.1216 39.2695 96.6304 39.3155 96.1254 39.3155C95.2806 39.3155 94.5093 39.1639 93.8114 38.8605C93.1136 38.5572 92.5122 38.1206 92.0072 37.5508C91.5113 36.9718 91.1257 36.264 90.8502 35.4276C90.5747 34.5912 90.437 33.6353 90.437 32.56C90.437 31.5489 90.5655 30.6022 90.8227 29.7199C91.0797 28.8375 91.4516 28.0701 91.9383 27.4175C92.4342 26.7649 93.0402 26.2502 93.7564 25.8734C94.4725 25.4966 95.2899 25.3081 96.208 25.3081C97.2548 25.3081 98.1822 25.5103 98.9903 25.9147C99.8075 26.3192 100.51 26.9809 101.098 27.9V27.5416C101.098 26.8799 101.277 26.3835 101.635 26.0526C102.002 25.7126 102.507 25.5425 103.15 25.5425C103.535 25.5425 103.861 25.6068 104.128 25.7355C104.394 25.855 104.605 26.0388 104.761 26.287C104.917 26.526 105.028 26.8247 105.092 27.1832C105.165 27.5323 105.202 27.9322 105.202 28.3826V37.6198C105.202 38.741 105.06 39.7428 104.775 40.6252C104.5 41.5075 104.068 42.2521 103.48 42.8587C102.893 43.4653 102.14 43.9248 101.221 44.2374C100.303 44.559 99.2106 44.7199 97.9435 44.7199C97.0529 44.7199 96.2632 44.6786 95.5744 44.5958C94.895 44.5223 94.3073 44.4074 93.8114 44.2512C93.3157 44.0765 92.9392 43.8835 92.6821 43.6721C92.4342 43.4607 92.3102 43.1849 92.3102 42.8449C92.3102 42.6519 92.3377 42.4681 92.3928 42.2934C92.4479 42.1188 92.5306 41.9626 92.6407 41.8247C92.7601 41.696 92.9116 41.5903 93.0953 41.5075C93.2881 41.4341 93.5222 41.3973 93.7977 41.3973C94.0915 41.3973 94.3853 41.4156 94.6792 41.4525C94.9822 41.4892 95.2944 41.526 95.6158 41.5627C95.9463 41.6087 96.2907 41.65 96.6488 41.6868C97.0161 41.7235 97.4109 41.742 97.8333 41.742C98.3383 41.742 98.7882 41.6914 99.1831 41.5903C99.5779 41.4892 99.913 41.31 100.189 41.0526C100.464 40.7953 100.675 40.4506 100.822 40.0186C100.969 39.5958 101.042 39.0535 101.042 38.3918V36.7512ZM101.042 32.4635C101.042 31.7925 100.992 31.1813 100.891 30.6299C100.799 30.0783 100.638 29.6096 100.409 29.2235C100.179 28.8283 99.8718 28.525 99.4861 28.3136C99.1004 28.093 98.6184 27.9828 98.0399 27.9828C97.4706 27.9828 96.9977 28.0976 96.6213 28.3274C96.254 28.5572 95.9602 28.8743 95.7398 29.2787C95.5194 29.6832 95.3633 30.1565 95.2714 30.6988C95.1888 31.241 95.1475 31.8201 95.1475 32.4359C95.1475 33.8421 95.3954 34.8992 95.8913 35.6068C96.387 36.3146 97.1079 36.6685 98.0536 36.6685C98.4944 36.6593 98.8939 36.5765 99.2519 36.4202C99.6192 36.2548 99.936 36.0021 100.202 35.662C100.469 35.3219 100.675 34.8899 100.822 34.366C100.969 33.8421 101.042 33.208 101.042 32.4635Z" fill="#5F2DEE"/>
<path d="M106.467 32.4632C106.467 31.4889 106.623 30.5698 106.935 29.7058C107.257 28.8326 107.734 28.0698 108.368 27.4172C109.01 26.7646 109.809 26.2453 110.764 25.8593C111.728 25.4732 112.858 25.2803 114.153 25.2803C115.392 25.2803 116.489 25.4594 117.444 25.8179C118.399 26.1764 119.203 26.6773 119.855 27.3207C120.507 27.9549 121.002 28.7131 121.342 29.5955C121.682 30.4686 121.852 31.4245 121.852 32.4632C121.852 33.4283 121.691 34.3427 121.37 35.2067C121.048 36.0615 120.566 36.8152 119.924 37.4678C119.281 38.1111 118.477 38.6258 117.513 39.0119C116.549 39.3887 115.429 39.5771 114.153 39.5771C112.894 39.5771 111.783 39.3979 110.819 39.0394C109.864 38.6718 109.061 38.1709 108.409 37.5366C107.766 36.8933 107.28 36.1397 106.949 35.2757C106.628 34.4025 106.467 33.465 106.467 32.4632ZM111.053 32.4632C111.053 33.0698 111.109 33.6489 111.219 34.2003C111.329 34.7425 111.503 35.2205 111.742 35.6342C111.99 36.0477 112.311 36.3786 112.706 36.6267C113.101 36.8657 113.583 36.9852 114.153 36.9852C114.676 36.9852 115.13 36.875 115.516 36.6543C115.911 36.4338 116.232 36.1258 116.48 35.7306C116.737 35.3354 116.93 34.862 117.059 34.3106C117.187 33.7499 117.252 33.1342 117.252 32.4632C117.252 31.8565 117.192 31.282 117.072 30.7398C116.962 30.1884 116.783 29.7058 116.535 29.2922C116.287 28.8694 115.966 28.5385 115.571 28.2996C115.186 28.0514 114.713 27.9273 114.153 27.9273C113.592 27.9273 113.115 28.0467 112.72 28.2858C112.325 28.5247 112.004 28.851 111.756 29.2646C111.508 29.6783 111.329 30.1607 111.219 30.7123C111.109 31.2637 111.053 31.8473 111.053 32.4632Z" fill="#5F2DEE"/>
<path d="M127.758 20.634C127.758 20.9374 127.689 21.2085 127.552 21.4475C127.414 21.6772 127.235 21.8702 127.015 22.0266C126.794 22.1828 126.537 22.3022 126.243 22.3849C125.959 22.4584 125.665 22.4953 125.362 22.4953C125.04 22.4953 124.733 22.4539 124.439 22.3712C124.154 22.2884 123.902 22.169 123.682 22.0127C123.461 21.8473 123.287 21.6497 123.158 21.4199C123.03 21.1901 122.965 20.9282 122.965 20.634C122.965 20.3675 123.025 20.1239 123.144 19.9034C123.273 19.6736 123.443 19.476 123.654 19.3105C123.865 19.1451 124.118 19.0164 124.412 18.9245C124.705 18.8326 125.027 18.7866 125.376 18.7866C125.679 18.7866 125.972 18.828 126.257 18.9107C126.551 18.9934 126.808 19.1129 127.028 19.2692C127.249 19.4254 127.423 19.6184 127.552 19.8482C127.689 20.078 127.758 20.3399 127.758 20.634ZM127.552 36.6956C127.552 37.5688 127.373 38.2397 127.015 38.7084C126.666 39.1773 126.083 39.4116 125.265 39.4116C124.494 39.4116 123.948 39.1773 123.626 38.7084C123.314 38.2397 123.158 37.5688 123.158 36.6956V28.2581C123.158 27.3849 123.314 26.714 123.626 26.2453C123.948 25.7766 124.494 25.5421 125.265 25.5421C126.083 25.5421 126.666 25.7766 127.015 26.2453C127.373 26.714 127.552 27.3849 127.552 28.2581V36.6956Z" fill="#5F2DEE"/>
<path d="M133.885 32.4359C133.885 33.0518 133.931 33.6261 134.023 34.1593C134.124 34.6923 134.289 35.161 134.519 35.5655C134.758 35.9607 135.07 36.2732 135.455 36.5029C135.85 36.7328 136.337 36.8476 136.915 36.8476C137.448 36.8476 137.893 36.7374 138.252 36.5168C138.618 36.287 138.912 35.9745 139.133 35.5793C139.353 35.1748 139.509 34.7015 139.601 34.1593C139.702 33.6169 139.753 33.0287 139.753 32.3946C139.753 31.889 139.716 31.3743 139.642 30.8505C139.569 30.3173 139.432 29.8348 139.23 29.4028C139.027 28.9708 138.748 28.6169 138.389 28.3412C138.031 28.0655 137.563 27.9276 136.984 27.9276C136.406 27.9276 135.915 28.0195 135.511 28.2034C135.116 28.3872 134.794 28.6675 134.546 29.0443C134.308 29.4212 134.138 29.8946 134.037 30.4643C133.936 31.025 133.885 31.6822 133.885 32.4359ZM133.872 28.2585C134.101 27.7714 134.395 27.344 134.753 26.9763C135.111 26.6087 135.506 26.3008 135.938 26.0526C136.369 25.8045 136.819 25.6206 137.287 25.5012C137.765 25.3725 138.238 25.3081 138.705 25.3081C139.55 25.3081 140.313 25.4966 140.993 25.8734C141.672 26.2502 142.25 26.7649 142.727 27.4175C143.214 28.0609 143.587 28.8238 143.844 29.7061C144.1 30.5793 144.229 31.5168 144.229 32.5186C144.229 33.5572 144.091 34.5085 143.816 35.3725C143.55 36.2365 143.168 36.9809 142.672 37.6059C142.186 38.2218 141.598 38.7042 140.909 39.0535C140.23 39.4028 139.473 39.5774 138.637 39.5774C137.609 39.5774 136.69 39.3385 135.882 38.8605C135.074 38.3826 134.404 37.7116 133.872 36.8476V41.8109C133.872 42.684 133.692 43.355 133.334 43.8238C132.985 44.2925 132.402 44.5269 131.585 44.5269C130.814 44.5269 130.267 44.2925 129.946 43.8238C129.634 43.355 129.478 42.684 129.478 41.8109V28.2585C129.478 27.3853 129.634 26.7143 129.946 26.2456C130.267 25.7769 130.814 25.5425 131.585 25.5425C132.402 25.5425 132.985 25.7769 133.334 26.2456C133.692 26.7143 133.872 27.3853 133.872 28.2585Z" fill="#5F2DEE"/>
<path d="M149.075 29.2371C149.075 29.5955 149.232 29.8758 149.543 30.078C149.856 30.2711 150.287 30.4319 150.838 30.5606C151.361 30.68 151.898 30.795 152.45 30.9052C153.001 31.0156 153.538 31.1443 154.061 31.2913C154.584 31.4291 155.075 31.5946 155.535 31.7876C155.993 31.9806 156.398 32.2242 156.747 32.5183C157.096 32.8032 157.371 33.1525 157.573 33.566C157.775 33.9705 157.876 34.4577 157.876 35.0274C157.876 35.7444 157.729 36.3832 157.435 36.9438C157.142 37.4953 156.724 37.964 156.183 38.3502C155.65 38.7362 155.012 39.0349 154.268 39.2463C153.524 39.4577 152.702 39.5679 151.802 39.5771C150.949 39.5771 150.126 39.522 149.336 39.4117C148.548 39.3106 147.845 39.1497 147.229 38.9291C146.624 38.7085 146.137 38.4374 145.769 38.1157C145.402 37.7849 145.219 37.3989 145.219 36.9577C145.219 36.5716 145.343 36.2729 145.591 36.0615C145.838 35.8502 146.155 35.7444 146.541 35.7444C146.688 35.7444 146.862 35.7719 147.064 35.8271C147.267 35.8823 147.486 35.9512 147.725 36.0339C147.963 36.1166 148.216 36.2085 148.483 36.3097C148.758 36.4016 149.042 36.4843 149.336 36.5578C149.704 36.659 150.08 36.7417 150.466 36.806C150.861 36.8611 151.265 36.8887 151.679 36.8887C151.935 36.8887 152.188 36.8657 152.436 36.8198C152.684 36.7646 152.905 36.6865 153.097 36.5855C153.299 36.4751 153.464 36.3372 153.593 36.1718C153.721 36.0064 153.799 35.8042 153.827 35.5652C153.854 35.51 153.878 35.4549 153.895 35.3997C153.914 35.3446 153.924 35.2803 153.924 35.2067C153.924 34.9493 153.804 34.7196 153.565 34.5173C153.336 34.3152 153.009 34.1543 152.587 34.0349C151.88 33.8695 151.205 33.7178 150.562 33.5799C149.92 33.442 149.323 33.295 148.772 33.1387C148.23 32.9825 147.734 32.8032 147.284 32.601C146.843 32.3989 146.467 32.1506 146.155 31.8565C145.853 31.5624 145.613 31.2085 145.439 30.795C145.273 30.3813 145.191 29.8804 145.191 29.2922C145.191 28.658 145.333 28.0927 145.618 27.5964C145.911 27.0909 146.33 26.6682 146.872 26.328C147.413 25.9879 148.069 25.7306 148.841 25.556C149.612 25.3722 150.485 25.2803 151.458 25.2803C153.202 25.2803 154.529 25.4917 155.439 25.9144C156.356 26.328 156.816 26.8703 156.816 27.5413C156.816 27.9182 156.691 28.2077 156.443 28.4098C156.195 28.6029 155.897 28.6993 155.549 28.6993C155.365 28.6993 155.172 28.6672 154.97 28.6029C154.777 28.5293 154.543 28.4512 154.268 28.3685C153.992 28.2766 153.661 28.1985 153.276 28.1342C152.9 28.0606 152.431 28.0238 151.871 28.0238C151.448 28.0238 151.063 28.0422 150.714 28.079C150.374 28.1157 150.08 28.18 149.832 28.2719C149.594 28.3639 149.406 28.4879 149.268 28.6443C149.139 28.8005 149.075 28.998 149.075 29.2371Z" fill="#5F2DEE"/>
<path d="M163.466 34.2966C163.466 34.7286 163.521 35.1054 163.632 35.4272C163.75 35.7488 163.911 36.02 164.114 36.2406C164.316 36.452 164.55 36.6128 164.815 36.7231C165.091 36.8242 165.385 36.8748 165.697 36.8748C166.065 36.8748 166.418 36.8196 166.758 36.7093C167.098 36.5991 167.396 36.4289 167.654 36.1992C167.919 35.9694 168.131 35.6799 168.287 35.3306C168.442 34.9814 168.521 34.5723 168.521 34.1036V28.258C168.521 27.3848 168.677 26.7139 168.989 26.2452C169.311 25.7765 169.857 25.542 170.628 25.542C171.445 25.542 172.028 25.7765 172.377 26.2452C172.736 26.7139 172.914 27.3848 172.914 28.258V36.6955C172.914 37.5687 172.736 38.2396 172.377 38.7083C172.028 39.1772 171.445 39.4115 170.628 39.4115C169.857 39.4115 169.311 39.1772 168.989 38.7083C168.677 38.2396 168.521 37.5687 168.521 36.6955C168.328 37.1183 168.076 37.5043 167.763 37.8536C167.46 38.2029 167.102 38.5062 166.689 38.7635C166.284 39.0118 165.835 39.2047 165.339 39.3426C164.853 39.4805 164.324 39.5494 163.755 39.5494C163.14 39.5494 162.548 39.4436 161.978 39.2323C161.419 39.0118 160.923 38.69 160.491 38.2672C160.06 37.8353 159.716 37.3021 159.458 36.668C159.201 36.0338 159.073 35.2939 159.073 34.4482V28.258C159.073 27.3848 159.229 26.7139 159.54 26.2452C159.862 25.7765 160.408 25.542 161.18 25.542C161.997 25.542 162.58 25.7765 162.929 26.2452C163.287 26.7139 163.466 27.3848 163.466 28.258V34.2966Z" fill="#5F2DEE"/>
<path d="M174.909 28.2585C174.909 27.3853 175.065 26.7143 175.378 26.2456C175.699 25.7769 176.245 25.5425 177.016 25.5425C177.834 25.5425 178.417 25.7769 178.766 26.2456C179.124 26.7143 179.304 27.3853 179.304 28.2585C179.487 27.8173 179.735 27.4175 180.047 27.059C180.368 26.6914 180.732 26.3789 181.135 26.1215C181.548 25.8642 181.994 25.6666 182.471 25.5287C182.948 25.3816 183.444 25.3081 183.959 25.3081C184.436 25.3081 184.904 25.3725 185.363 25.5012C185.831 25.6206 186.264 25.8182 186.659 26.094C187.062 26.3605 187.416 26.7006 187.719 27.1142C188.022 27.5278 188.256 28.0241 188.422 28.6032C188.706 27.9874 189.041 27.4681 189.427 27.0453C189.812 26.6225 190.23 26.2823 190.679 26.025C191.13 25.7676 191.599 25.5839 192.085 25.4735C192.581 25.3633 193.076 25.3081 193.572 25.3081C194.16 25.3081 194.72 25.4139 195.253 25.6252C195.794 25.8366 196.267 26.1583 196.671 26.5903C197.085 27.013 197.411 27.5508 197.649 28.2034C197.897 28.8467 198.021 29.6005 198.021 30.4643V36.696C198.021 37.5692 197.842 38.2401 197.483 38.7088C197.136 39.1776 196.551 39.412 195.735 39.412C194.964 39.412 194.417 39.1776 194.096 38.7088C193.784 38.2401 193.627 37.5692 193.627 36.696V30.6574C193.627 30.2438 193.572 29.8761 193.463 29.5545C193.352 29.2235 193.196 28.9479 192.994 28.7273C192.801 28.4975 192.572 28.3274 192.305 28.2172C192.039 28.0976 191.754 28.0379 191.452 28.0379C191.074 28.0379 190.717 28.0976 190.377 28.2172C190.038 28.3366 189.739 28.5205 189.482 28.7686C189.234 29.0168 189.032 29.3339 188.875 29.7199C188.728 30.1059 188.656 30.5701 188.656 31.1123V36.696C188.656 37.5692 188.476 38.2401 188.118 38.7088C187.769 39.1776 187.186 39.412 186.368 39.412C185.597 39.412 185.051 39.1776 184.73 38.7088C184.417 38.2401 184.261 37.5692 184.261 36.696V30.9193C184.261 29.9727 184.064 29.2558 183.67 28.7686C183.283 28.2815 182.755 28.0379 182.086 28.0379C181.691 28.0379 181.323 28.1022 180.983 28.2309C180.643 28.3596 180.35 28.548 180.102 28.7962C179.854 29.0443 179.656 29.3522 179.509 29.7199C179.372 30.0875 179.304 30.5103 179.304 30.9882V36.696C179.304 37.5692 179.124 38.2401 178.766 38.7088C178.417 39.1776 177.834 39.412 177.016 39.412C176.245 39.412 175.699 39.1776 175.378 38.7088C175.065 38.2401 174.909 37.5692 174.909 36.696V28.2585Z" fill="#5F2DEE"/>
<path d="M39.9805 37.0591C36.0859 37.0591 32.9286 33.8987 32.9286 30.0002C32.9286 26.1018 36.0859 22.9414 39.9805 22.9414C43.8752 22.9414 47.0325 26.1018 47.0325 30.0002C47.0325 33.8987 43.8752 37.0591 39.9805 37.0591Z" fill="#5F2DEE"/>
<path d="M26.3188 32.4111C24.2752 32.7718 22.8744 34.7478 23.6589 36.6709C24.7541 39.3556 26.5014 41.7476 28.7666 43.6167C32.0057 46.2893 36.0911 47.7174 40.2882 47.6442C44.4853 47.5709 48.5185 46.0009 51.6625 43.2166C53.8611 41.2696 55.5239 38.8179 56.525 36.0966C57.2419 34.1473 55.773 32.2214 53.7181 31.9324C51.6632 31.6433 49.8182 33.1405 48.8032 34.9523C48.253 35.9343 47.5388 36.8252 46.6832 37.583C44.8793 39.1805 42.5652 40.0812 40.1572 40.1233C37.749 40.1653 35.405 39.346 33.5466 37.8125C32.6649 37.0851 31.9201 36.2197 31.336 35.2574C30.2585 33.4823 28.3624 32.0504 26.3188 32.4111Z" fill="#5F2DEE"/>
<path d="M57.4741 32.2054C57.5641 31.4829 57.6104 30.7469 57.6104 30.0001C57.6104 20.2539 49.7173 12.353 39.9805 12.353C30.2438 12.353 22.3506 20.2539 22.3506 30.0001C22.3506 30.9586 22.427 31.8991 22.5739 32.8162C23.3837 31.7066 24.6475 30.9144 26.0127 30.6735C27.4897 30.4128 28.8321 30.7714 29.9671 31.4416C29.9 30.9708 29.8653 30.4895 29.8653 30.0001C29.8653 24.4082 34.3941 19.875 39.9805 19.875C45.567 19.875 50.0957 24.4082 50.0957 30.0001C50.0957 30.3688 50.076 30.7329 50.0377 31.0914C51.1487 30.3816 52.478 29.9761 53.9635 30.1851C55.3358 30.3782 56.6261 31.1253 57.4741 32.2054Z" fill="#5F2DEE"/>
</svg>
