<svg width="210" height="60" viewBox="0 0 210 60" fill="none" xmlns="http://www.w3.org/2000/svg">
<rect x="0.5" y="0.5" width="209" height="59" fill="white"/>
<rect x="0.5" y="0.5" width="209" height="59" stroke="#5F2DEE"/>
<path d="M72.1319 37.9998H84.0736V34.3998H76.3762V20.8398H72.1319V37.9998Z" fill="#5F2DEE"/>
<path d="M91.1485 35.6C89.446 35.6 88.5588 34.112 88.5588 31.88C88.5588 29.648 89.446 28.136 91.1485 28.136C92.8511 28.136 93.7623 29.648 93.7623 31.88C93.7623 34.112 92.8511 35.6 91.1485 35.6ZM91.1725 38.384C95.1291 38.384 97.7188 35.576 97.7188 31.88C97.7188 28.184 95.1291 25.376 91.1725 25.376C87.2399 25.376 84.6022 28.184 84.6022 31.88C84.6022 35.576 87.2399 38.384 91.1725 38.384Z" fill="#5F2DEE"/>
<path d="M104.567 42.2481C106.39 42.2481 107.996 41.84 109.076 40.8801C110.059 39.9921 110.706 38.6481 110.706 36.8001V25.7121H106.965V27.0321H106.917C106.198 26.0001 105.095 25.3521 103.464 25.3521C100.419 25.3521 98.3088 27.8961 98.3088 31.4961C98.3088 35.2641 100.875 37.3281 103.632 37.3281C105.119 37.3281 106.054 36.7281 106.774 35.9121H106.869V37.1361C106.869 38.6241 106.174 39.4881 104.519 39.4881C103.225 39.4881 102.577 38.9361 102.361 38.2881H98.5726C98.9563 40.8561 101.186 42.2481 104.567 42.2481ZM104.543 34.4241C103.081 34.4241 102.122 33.2241 102.122 31.3761C102.122 29.5041 103.081 28.3041 104.543 28.3041C106.174 28.3041 107.037 29.6961 107.037 31.3521C107.037 33.0801 106.246 34.4241 104.543 34.4241Z" fill="#5F2DEE"/>
<path d="M118.398 35.6C116.695 35.6 115.808 34.112 115.808 31.88C115.808 29.648 116.695 28.136 118.398 28.136C120.1 28.136 121.012 29.648 121.012 31.88C121.012 34.112 120.1 35.6 118.398 35.6ZM118.422 38.384C122.378 38.384 124.968 35.576 124.968 31.88C124.968 28.184 122.378 25.376 118.422 25.376C114.489 25.376 111.852 28.184 111.852 31.88C111.852 35.576 114.489 38.384 118.422 38.384Z" fill="#5F2DEE"/>
<path d="M126.109 37.9998H130.018V25.7118H126.109V37.9998ZM126.109 24.0078H130.018V20.8398H126.109V24.0078Z" fill="#5F2DEE"/>
<path d="M131.714 42.0561H135.623V36.7281H135.671C136.438 37.76 137.565 38.3841 139.148 38.3841C142.361 38.3841 144.495 35.8401 144.495 31.8561C144.495 28.1601 142.505 25.3521 139.244 25.3521C137.565 25.3521 136.366 26.0961 135.527 27.2001H135.455V25.7121H131.714V42.0561ZM138.141 35.3601C136.462 35.3601 135.503 33.9921 135.503 32.0001C135.503 30.0081 136.366 28.4961 138.069 28.4961C139.747 28.4961 140.539 29.8881 140.539 32.0001C140.539 34.0881 139.628 35.3601 138.141 35.3601Z" fill="#5F2DEE"/>
<path d="M150.859 38.3841C154.072 38.3841 156.446 36.9921 156.446 34.3041C156.446 31.1601 153.904 30.6081 151.746 30.2481C150.187 29.9601 148.797 29.8401 148.797 28.9761C148.797 28.2081 149.54 27.8481 150.499 27.8481C151.578 27.8481 152.321 28.1841 152.465 29.2881H156.062C155.87 26.8641 154 25.3521 150.523 25.3521C147.622 25.3521 145.224 26.6961 145.224 29.2881C145.224 32.1681 147.502 32.7441 149.636 33.1041C151.266 33.3921 152.753 33.5121 152.753 34.6161C152.753 35.4081 152.01 35.8401 150.835 35.8401C149.54 35.8401 148.725 35.2401 148.581 34.0161H144.888C145.008 36.7281 147.262 38.3841 150.859 38.3841Z" fill="#5F2DEE"/>
<path d="M161.755 38.3599C163.458 38.3599 164.537 37.6879 165.424 36.4879H165.496V37.9999H169.237V25.7119H165.328V32.5759C165.328 34.0399 164.513 35.0479 163.17 35.0479C161.923 35.0479 161.324 34.3039 161.324 32.9599V25.7119H157.439V33.7759C157.439 36.5119 158.926 38.3599 161.755 38.3599Z" fill="#5F2DEE"/>
<path d="M170.936 38.0001H174.845V31.1121C174.845 29.6481 175.564 28.6161 176.787 28.6161C177.962 28.6161 178.514 29.384 178.514 30.7041V38.0001H182.423V31.1121C182.423 29.6481 183.118 28.6161 184.365 28.6161C185.54 28.6161 186.091 29.384 186.091 30.7041V38.0001H190V30.0081C190 27.2481 188.609 25.3521 185.828 25.3521C184.245 25.3521 182.926 26.0241 181.967 27.5121H181.919C181.296 26.1921 180.073 25.3521 178.466 25.3521C176.691 25.3521 175.517 26.1921 174.749 27.4641H174.677V25.7121H170.936V38.0001Z" fill="#5F2DEE"/>
<path fill-rule="evenodd" clip-rule="evenodd" d="M40.9828 50C52.0189 50 60.9655 41.0457 60.9655 30C60.9655 18.9543 52.0189 10 40.9828 10C29.9466 10 21 18.9543 21 30C21 41.0457 29.9466 50 40.9828 50ZM47.2167 19.3168C47.5201 18.238 46.4741 17.6001 45.5188 18.2813L32.1835 27.7896C31.1475 28.5283 31.3104 30 32.4283 30H35.9398V29.9728H42.7837L37.2072 31.9421L34.7488 40.6832C34.4454 41.762 35.4913 42.3999 36.4467 41.7187L49.7821 32.2105C50.8181 31.4718 50.655 30 49.5373 30H44.2121L47.2167 19.3168Z" fill="#5F2DEE"/>
</svg>
