<svg width="225" height="60" viewBox="0 0 225 60" fill="none" xmlns="http://www.w3.org/2000/svg">
<rect x="0.5" y="0.5" width="224" height="59" fill="white"/>
<rect x="0.5" y="0.5" width="224" height="59" stroke="#5F2DEE"/>
<path fill-rule="evenodd" clip-rule="evenodd" d="M78.3469 12.5157C78.3469 11.1263 79.4854 10 80.8899 10H85.32C86.3196 10 87.2884 10.3427 88.0613 10.9698L89.409 12.063L89.4427 12.0935C89.4738 12.0831 89.5049 12.0729 89.5361 12.063C91.9674 11.2927 94.9173 11.1461 97.9281 11.1461C100.939 11.1461 103.889 11.2927 106.32 12.063C106.351 12.0729 106.382 12.0831 106.413 12.0935L106.447 12.063L107.795 10.9698C108.568 10.3427 109.537 10 110.536 10H114.966C116.371 10 117.509 11.1263 117.509 12.5157V14.0709C117.509 15.2742 116.997 16.4217 116.098 17.2321L115.011 18.2121C114.48 18.6906 113.843 19.0387 113.151 19.2286L112.894 19.2991C113.901 21.677 114.458 24.2188 114.458 26.275C114.458 34.5464 109.284 38.1187 104.726 41.2663C101.136 43.7451 97.9281 45.9604 97.9281 50C97.9281 45.9604 94.7198 43.7451 91.1301 41.2663C86.5718 38.1187 81.3984 34.5464 81.3984 26.275C81.3984 24.2188 81.955 21.677 82.9624 19.2991L82.7052 19.2286C82.0133 19.0387 81.3762 18.6906 80.8455 18.2121L79.7583 17.2321C78.8592 16.4217 78.3469 15.2742 78.3469 14.0709V12.5157ZM101.234 33.0372C101.234 33.4324 101.06 33.8113 100.75 34.0908C100.44 34.3702 100.019 34.5272 99.581 34.5272C99.2025 34.5272 98.8374 34.4101 98.5452 34.1983C99.0426 35.5153 100.315 36.7632 102.251 34.7564C103.96 32.8917 102.175 28.9588 100.436 26.625C99.8566 25.8471 98.905 25.4727 97.9281 25.4727C96.9512 25.4727 95.9996 25.8471 95.4199 26.625C93.6809 28.9588 91.8959 32.8917 93.6049 34.7564C95.5408 36.7632 96.8136 35.5153 97.3109 34.1983C97.0188 34.4101 96.6536 34.5272 96.2751 34.5272C95.8367 34.5272 95.4162 34.3702 95.1063 34.0908C94.7963 33.8113 94.6221 33.4324 94.6221 33.0372H101.234ZM91.5981 21.3951H86.9931L90.6223 24.2698C91.4209 24.9023 92.5881 24.7001 93.0823 23.8436C93.7062 22.7622 92.8775 21.3951 91.5981 21.3951ZM104.258 21.3951H108.863L105.234 24.2698C104.435 24.9023 103.268 24.7001 102.774 23.8436C102.15 22.7622 102.979 21.3951 104.258 21.3951Z" fill="#5F2DEE"/>
<path d="M122.995 38.3333H127.074V22.9433H122.995V38.3333ZM122.995 20.5433H127.074V16.8833H122.995V20.5433Z" fill="#5F2DEE"/>
<path d="M129.703 43.3734H133.783V36.5934H133.843C134.713 37.9134 136.122 38.7834 138.282 38.7834C142.242 38.7834 144.941 35.6334 144.941 30.6534C144.941 25.8534 142.332 22.5234 138.252 22.5234C136.152 22.5234 134.713 23.5134 133.723 24.8634H133.633V22.9434H129.703V43.3734ZM137.412 35.3934C134.982 35.3934 133.693 33.5634 133.693 30.7734C133.693 28.0134 134.713 25.8234 137.262 25.8234C139.782 25.8234 140.802 27.8634 140.802 30.7734C140.802 33.6834 139.482 35.3934 137.412 35.3934Z" fill="#5F2DEE"/>
<path d="M153.08 38.7834C156.919 38.7834 159.559 36.9234 159.559 33.8334C159.559 30.2334 156.709 29.5134 154.13 28.9734C151.94 28.5234 149.9 28.4034 149.9 27.0834C149.9 25.9734 150.95 25.3734 152.54 25.3734C154.28 25.3734 155.329 25.9734 155.509 27.6234H159.199C158.899 24.5334 156.649 22.5234 152.6 22.5234C149.09 22.5234 146.33 24.1134 146.33 27.4434C146.33 30.8034 149.03 31.5534 151.79 32.0934C153.89 32.5134 155.839 32.6634 155.839 34.1334C155.839 35.2134 154.819 35.9034 153.02 35.9034C151.19 35.9034 149.93 35.1234 149.66 33.3534H145.88C146.12 36.6234 148.61 38.7834 153.08 38.7834Z" fill="#5F2DEE"/>
<path d="M175.048 38.3334V22.9434H170.969V31.8234C170.969 33.8634 169.799 35.3034 167.879 35.3034C166.139 35.3034 165.329 34.3134 165.329 32.5134V22.9434H161.28V33.2034C161.28 36.5634 163.2 38.7534 166.619 38.7534C168.779 38.7534 169.979 37.9434 171.029 36.5334H171.119V38.3334H175.048Z" fill="#5F2DEE"/>
<path d="M177.687 38.3334H181.766V29.3934C181.766 27.3534 182.876 26.0334 184.526 26.0334C186.026 26.0334 186.896 26.9334 186.896 28.6734V38.3334H190.975V29.3934C190.975 27.3534 192.025 26.0334 193.735 26.0334C195.235 26.0334 196.105 26.9334 196.105 28.6734V38.3334H200.184V27.9834C200.184 24.6234 198.355 22.5234 195.115 22.5234C193.165 22.5234 191.545 23.5434 190.496 25.2234H190.436C189.686 23.6034 188.126 22.5234 186.176 22.5234C184.046 22.5234 182.546 23.6034 181.706 25.0134H181.616V22.9434H177.687V38.3334Z" fill="#5F2DEE"/>
<path d="M20 38.3333H24.0796V16.8833H20V38.3333Z" fill="#5F2DEE"/>
<path d="M34.0547 38.7834C38.8242 38.7834 42.0938 35.2434 42.0938 30.6534C42.0938 26.0634 38.8242 22.5234 34.0547 22.5234C29.2852 22.5234 26.0155 26.0634 26.0155 30.6534C26.0155 35.2434 29.2852 38.7834 34.0547 38.7834ZM34.0547 35.6634C31.535 35.6634 30.1551 33.6534 30.1551 30.6534C30.1551 27.6534 31.535 25.6134 34.0547 25.6134C36.5444 25.6134 37.9543 27.6534 37.9543 30.6534C37.9543 33.6534 36.5444 35.6634 34.0547 35.6634Z" fill="#5F2DEE"/>
<path d="M50.7694 43.5834C53.0492 43.5834 55.029 43.0434 56.3188 41.8434C57.4587 40.7934 58.1486 39.3234 58.1486 37.1634V22.9434H54.2191V24.5634H54.1591C53.2292 23.2734 51.8193 22.5234 49.8995 22.5234C45.9999 22.5234 43.2402 25.4634 43.2402 30.0534C43.2402 34.7034 46.5999 37.4034 50.0195 37.4034C51.9693 37.4034 53.1392 36.6234 54.0391 35.6034H54.1291V37.2834C54.1291 39.3834 53.0192 40.4934 50.7094 40.4934C48.8196 40.4934 47.9497 39.7434 47.6198 38.7834H43.5702C43.9902 41.7834 46.5699 43.5834 50.7694 43.5834ZM50.7094 34.1334C48.6097 34.1334 47.2298 32.6034 47.2298 29.9934C47.2298 27.4134 48.6097 25.7934 50.6794 25.7934C53.1392 25.7934 54.339 27.7134 54.339 29.9634C54.339 32.2434 53.2892 34.1334 50.7094 34.1334Z" fill="#5F2DEE"/>
<path d="M68.0647 38.7834C72.8342 38.7834 76.1038 35.2434 76.1038 30.6534C76.1038 26.0634 72.8342 22.5234 68.0647 22.5234C63.2952 22.5234 60.0255 26.0634 60.0255 30.6534C60.0255 35.2434 63.2952 38.7834 68.0647 38.7834ZM68.0647 35.6634C65.5449 35.6634 64.1651 33.6534 64.1651 30.6534C64.1651 27.6534 65.5449 25.6134 68.0647 25.6134C70.5544 25.6134 71.9643 27.6534 71.9643 30.6534C71.9643 33.6534 70.5544 35.6634 68.0647 35.6634Z" fill="#5F2DEE"/>
<path d="M200.001 19.5835C200.001 18.8931 200.559 18.3335 201.25 18.3335H203.75C204.44 18.3335 205 18.8931 205 19.5835C205 20.2738 204.44 20.8335 203.75 20.8335H201.25C200.559 20.8335 200.001 20.2738 200.001 19.5835Z" fill="#5F2DEE"/>
</svg>
