<svg width="198" height="60" viewBox="0 0 198 60" fill="none" xmlns="http://www.w3.org/2000/svg">
<path d="M51.9293 60C49.7722 60 47.7435 59.1535 46.2193 57.6176C44.6926 56.0833 43.8533 54.0411 43.8533 51.8671C43.8533 49.6967 44.6926 47.6546 46.2152 46.1213C47.7409 44.5844 49.7697 43.7378 51.9263 43.7378C54.0824 43.7378 56.1096 44.5818 57.6327 46.1177C60.7806 49.2897 60.7806 54.4507 57.6327 57.6217C56.1096 59.156 54.0839 60 51.9293 60Z" fill="#5F2DEE"/>
<path d="M8.07608 16.6398C5.91897 16.6398 3.89071 15.7932 2.36502 14.2563C0.840358 12.722 0 10.6799 0 8.50688C0 6.33493 0.838302 4.29433 2.36142 2.76156C3.88814 1.2231 5.91743 0.376556 8.07506 0.376556C10.2296 0.376556 12.2568 1.22154 13.7789 2.75638C15.3057 4.29329 16.146 6.33648 16.146 8.50843C16.146 10.6814 15.3062 12.7235 13.7805 14.2605C12.2568 15.7943 10.2306 16.6398 8.07608 16.6398Z" fill="white"/>
<path d="M51.5689 16.4013C49.4103 16.4013 47.3836 15.5548 45.8589 14.0189C42.7125 10.8478 42.71 5.68947 45.8543 2.52102C47.38 0.984108 49.4082 0.136536 51.5669 0.136536C53.7224 0.136536 55.7497 0.983071 57.2743 2.51843C60.4207 5.68792 60.4207 10.8489 57.2743 14.0235C55.7507 15.5558 53.7235 16.4013 51.5689 16.4013Z" fill="#5F2DEE"/>
<path d="M8.28597 60C6.12885 60 4.1006 59.1534 2.57337 57.6176C1.04871 56.0822 0.209888 54.0411 0.211428 51.8681C0.211428 49.6962 1.05332 47.6545 2.5785 46.1187C2.89781 45.7949 3.25767 45.4986 3.71558 45.1873C3.85316 45.0906 3.98047 45.0136 4.11189 44.9329C4.41066 44.7602 4.70841 44.6024 4.98613 44.4742C5.13757 44.4059 5.2926 44.3356 5.45636 44.273C5.74641 44.1644 6.07033 44.0677 6.44046 43.9793C6.51438 43.9591 6.57958 43.9415 6.64581 43.9224C6.68739 43.911 6.72743 43.8971 6.76952 43.8873L8.56678 43.7642C8.79471 43.774 9.03855 43.803 9.29882 43.8371L9.40149 43.851C9.46258 43.8583 9.54523 43.865 9.62788 43.8697L9.70026 43.8748L9.7824 43.8914H9.85375C9.98517 43.8966 10.1166 43.8986 10.2465 43.8986C13.344 43.8986 16.4016 42.5696 18.6362 40.2544C20.8611 37.9491 22.0865 34.8478 21.9987 31.7435L21.9961 31.6514L21.9792 31.5552C21.9622 31.4684 21.9576 31.3805 21.9515 31.2931C21.9438 31.1886 21.935 31.0852 21.9222 30.9807L21.9022 30.7982C21.8847 30.642 21.8673 30.4895 21.857 30.3333L21.9946 28.5171C22.0033 28.4716 22.0197 28.4302 22.0321 28.3858L22.0644 28.2736C22.1476 27.9297 22.2359 27.5842 22.3647 27.2501C22.4309 27.0604 22.4946 26.9202 22.5634 26.7765C22.7071 26.4589 22.856 26.1704 23.031 25.8746C23.107 25.7463 23.1809 25.616 23.2687 25.4903C23.5947 25.0115 23.8914 24.6454 24.1989 24.3351C25.7236 22.7992 27.7503 21.9542 29.91 21.9542C32.0656 21.9542 34.0954 22.7982 35.6211 24.3325C38.7648 27.5035 38.7628 32.6635 35.6139 35.835C35.2956 36.1567 34.9347 36.4514 34.4758 36.7674C34.3418 36.8595 34.2145 36.936 34.0866 37.012C33.7966 37.1868 33.504 37.3419 33.2129 37.4769C33.0553 37.5483 32.8977 37.6217 32.7452 37.6781C32.4362 37.7939 32.1087 37.8922 31.7647 37.9702L31.5712 38.0245C31.5271 38.037 31.4844 38.0509 31.4408 38.0623L29.6261 38.1921C29.4136 38.1833 29.1908 38.1544 28.9546 38.1238L28.7934 38.1037C28.7395 38.0949 28.6548 38.0887 28.5696 38.0835L28.506 38.0773L28.4136 38.0592H28.3412C28.2087 38.0545 28.0783 38.053 27.9474 38.053C24.8499 38.053 21.7933 39.3805 19.5603 41.6962C17.3344 44.0026 16.1085 47.1069 16.1962 50.2107L16.1988 50.3028L16.2158 50.3948C16.2327 50.4832 16.2363 50.5701 16.2435 50.658C16.2507 50.763 16.2599 50.8659 16.2722 50.9693C16.2758 51.0309 16.2881 51.1431 16.302 51.2527C16.3153 51.3773 16.3318 51.4984 16.3318 51.623V51.6675L16.2014 53.4081C16.1932 53.4449 16.1352 53.6455 16.1187 53.7081C16.0315 54.0835 15.9329 54.416 15.8225 54.7149C15.7625 54.8814 15.7014 55.0247 15.63 55.1746C15.4899 55.4834 15.3374 55.7797 15.1649 56.0807C15.0889 56.2037 14.9991 56.3485 14.9077 56.4876C14.6074 56.9262 14.3097 57.2949 13.9909 57.6176C12.4698 59.1519 10.4431 59.9984 8.28699 59.9984H8.28597V60Z" fill="white"/>
<path d="M30.0861 60C27.9275 60 25.8992 59.1535 24.3735 57.6166C22.8494 56.0812 22.01 54.0401 22.009 51.8671C22.008 49.6967 22.8468 47.6556 24.3699 46.1238C24.681 45.8089 25.0342 45.5193 25.5168 45.1832C25.6364 45.1015 25.7652 45.0218 25.9002 44.9438C26.1964 44.7648 26.4819 44.6138 26.7781 44.4763C26.9357 44.4044 27.0897 44.333 27.2463 44.2736C27.5461 44.1624 27.8725 44.0657 28.2191 43.9886C28.2191 43.9886 28.5029 43.9054 28.5394 43.8966L30.3649 43.7621C30.5805 43.7719 30.8125 43.8035 31.0559 43.835L31.1909 43.8531C31.2807 43.8619 31.3557 43.8692 31.4311 43.8707C31.4609 43.8733 31.4912 43.8733 31.5199 43.8759L31.5774 43.8836L31.6534 43.8914C31.7869 43.895 31.9224 43.8986 32.0559 43.8986C35.1473 43.8976 38.2002 42.5707 40.4297 40.258C42.6546 37.9542 43.88 34.8489 43.7922 31.745L43.7809 31.366L43.7475 31.3241C43.746 31.3117 43.746 31.2967 43.7449 31.2827C43.7403 31.1943 43.7352 31.1054 43.7265 31.0159L43.6967 30.7553C43.6803 30.612 43.6618 30.4708 43.6566 30.3271L43.7819 28.5673C43.7917 28.5244 43.8548 28.3067 43.8692 28.241C43.9718 27.8205 44.0617 27.5129 44.1644 27.2393C44.2219 27.0759 44.2922 26.9259 44.363 26.7682C44.4919 26.4848 44.6433 26.1962 44.8281 25.8787L44.863 25.8208C44.9251 25.7138 44.9852 25.6083 45.0591 25.5048C45.3897 25.0198 45.6834 24.6547 45.9934 24.3423C47.5196 22.8054 49.5489 21.9589 51.706 21.9589C53.8616 21.9589 55.8878 22.8039 57.4125 24.3387C60.5583 27.5082 60.5583 32.6707 57.4125 35.8438C57.107 36.15 56.7431 36.4463 56.2692 36.7757C56.1779 36.8388 56.0906 36.8915 56.0033 36.9443L55.8622 37.0327C55.5921 37.194 55.298 37.3492 55.0115 37.4816C54.8498 37.5545 54.6979 37.6248 54.5372 37.6853C54.2548 37.7929 53.9432 37.8834 53.5505 37.978C53.472 37.9966 53.4083 38.0168 53.3452 38.0359C53.301 38.0473 53.26 38.0608 53.2173 38.0711L51.4232 38.1957C51.1603 38.1844 50.8765 38.1456 50.6013 38.1088C50.5074 38.0975 50.435 38.0939 50.3636 38.0897C50.3364 38.0887 50.3092 38.0887 50.2815 38.0845L50.1285 38.0685C49.995 38.0633 49.8626 38.0608 49.7301 38.0608C46.6361 38.0608 43.5837 39.3888 41.3512 41.7014C39.1278 44.0078 37.9035 47.1111 37.9938 50.2175L37.9964 50.3085L38.0139 50.3979C38.0313 50.49 38.0349 50.5841 38.0416 50.6761C38.0477 50.7718 38.0549 50.8654 38.0652 50.9569C38.0714 51.034 38.0827 51.1323 38.0929 51.2274C38.1093 51.365 38.1258 51.5035 38.1294 51.6406L37.9969 53.4252C37.9872 53.4645 37.9179 53.705 37.9179 53.705C37.8316 54.083 37.7356 54.414 37.6217 54.7253C37.5678 54.8716 37.5041 55.0128 37.4389 55.1602L37.4163 55.2119C37.2828 55.5025 37.1324 55.79 36.9646 56.0708C36.8824 56.2094 36.8008 56.3454 36.7146 56.4742C36.3983 56.9365 36.1001 57.3042 35.7818 57.6279C34.2638 59.156 32.2407 60 30.0861 60Z" fill="#5F2DEE"/>
<path d="M8.28923 38.0437C6.13211 38.0437 4.10436 37.1987 2.58022 35.6639C1.05504 34.1259 0.214676 32.0838 0.213136 29.9108C0.212109 27.7399 1.04939 25.7003 2.57405 24.166C2.88668 23.8511 3.25066 23.5537 3.71884 23.2284C3.84101 23.1457 3.97859 23.0609 4.11617 22.9776C4.39543 22.8116 4.68035 22.6591 4.98425 22.5179C5.14031 22.446 5.29535 22.3757 5.46013 22.3136C5.75685 22.204 6.08437 22.1068 6.42575 22.0303L6.63109 21.9723C6.66908 21.961 6.70553 21.9485 6.743 21.9398L8.57003 21.8074C8.8072 21.8172 9.06387 21.8513 9.33287 21.888L9.38934 21.8958C9.48328 21.9056 9.55567 21.9098 9.62959 21.9134C9.65577 21.9144 9.68195 21.9144 9.70813 21.9186L9.78668 21.9325L9.8606 21.9351C9.99613 21.9387 10.1296 21.9413 10.2631 21.9413C13.3535 21.9413 16.4059 20.6149 18.6369 18.3007C20.8608 15.9943 22.0851 12.89 21.9958 9.78513L21.9932 9.69566L21.9758 9.60724C21.9568 9.50899 21.9547 9.40918 21.948 9.30834C21.9434 9.22663 21.9383 9.14441 21.9296 9.05908L21.9018 8.80827C21.8834 8.65934 21.8644 8.50834 21.8608 8.35734L21.9819 6.64926L21.9932 6.60996V6.57583C22.003 6.53652 22.0692 6.31002 22.0692 6.31002C22.1719 5.87304 22.2632 5.55708 22.3659 5.27835C22.4234 5.12476 22.4948 4.97117 22.5671 4.81241C22.6986 4.52023 22.8526 4.22443 23.0302 3.92295L23.0579 3.87641C23.1277 3.75902 23.197 3.64215 23.2756 3.52476C23.5959 3.05728 23.8895 2.69218 24.197 2.38346C25.7232 0.846546 27.751 0 29.9096 0C32.0668 0 34.094 0.845509 35.6197 2.38087C38.766 5.55191 38.7635 10.7129 35.6161 13.8824C35.3045 14.1973 34.9333 14.5008 34.479 14.8106C34.3553 14.899 34.2485 14.9616 34.1387 15.0273L34.0786 15.0624C33.7824 15.2403 33.4908 15.395 33.2156 15.5222C33.0529 15.5977 32.9005 15.667 32.7454 15.7249C32.4425 15.8386 32.1212 15.9343 31.7582 16.0186C31.6823 16.0372 31.6135 16.0574 31.5447 16.0765C31.5031 16.0879 31.461 16.1014 31.4184 16.1117L29.6288 16.2379C29.4025 16.2265 29.1601 16.196 28.9055 16.1634L28.7957 16.1495C28.713 16.1391 28.6365 16.1355 28.5631 16.1303C28.5333 16.1288 28.5031 16.1288 28.4733 16.1241L28.4132 16.1164L28.3347 16.1102C28.2012 16.105 28.0682 16.1024 27.9343 16.1024C24.8428 16.1024 21.7899 17.4288 19.5594 19.7409C17.3345 22.0473 16.1091 25.1527 16.1969 28.2591L16.1995 28.3496L16.2154 28.439C16.2344 28.5295 16.238 28.6242 16.2447 28.7162C16.2508 28.8119 16.2585 28.905 16.2683 29.0006C16.276 29.0761 16.2868 29.1728 16.2986 29.269C16.3135 29.405 16.3309 29.5385 16.3335 29.6734L16.2046 31.4461C16.1949 31.4911 16.18 31.5382 16.1661 31.5863L16.121 31.7451C16.0311 32.1417 15.9361 32.4721 15.8283 32.7653C15.7708 32.9189 15.6969 33.0777 15.623 33.2406C15.4906 33.5328 15.3407 33.8213 15.1651 34.1161C15.0819 34.2573 15.0039 34.3897 14.9202 34.5143C14.5891 34.9978 14.3037 35.3531 13.9921 35.6644C12.4669 37.1997 10.4422 38.0437 8.28923 38.0437Z" fill="white"/>
<path d="M69.9926 16.0613C69.9926 14.7911 70.3758 13.805 71.1423 13.1031C71.9421 12.3677 73.0418 12 74.4414 12L93.8361 41.5822L94.186 41.2813L92.7364 38.8746V12C94.2693 12 95.419 12.3342 96.1855 13.0028C96.9853 13.6713 97.3852 14.6406 97.3852 15.9109V44.2897C97.3852 45.3594 97.002 46.2451 96.2355 46.9471C95.5024 47.649 94.5526 48 93.3863 48L73.5416 17.766L73.1917 18.0669L74.6413 20.4735V44.0891C74.6413 45.3594 74.2414 46.3287 73.4416 46.9972C72.6752 47.6658 71.5255 48 69.9926 48V16.0613ZM114.454 48C112.422 48 110.605 47.6156 109.006 46.8468C107.406 46.0446 106.157 44.9582 105.257 43.5877C104.357 42.1838 103.907 40.6128 103.907 38.8746V31.454C103.907 29.6824 104.374 28.078 105.307 26.6407C106.273 25.2034 107.556 24.0836 109.156 23.2813C110.789 22.4457 112.555 22.0279 114.454 22.0279C116.354 22.0279 118.087 22.429 119.653 23.2312C121.253 24.0334 122.502 25.1365 123.402 26.5404C124.335 27.9443 124.802 29.532 124.802 31.3036V34.5125C124.802 35.0473 124.602 35.4986 124.202 35.8663C123.802 36.234 123.319 36.4178 122.752 36.4178H108.156V38.6741C108.156 40.3788 108.689 41.7493 109.756 42.7855C110.855 43.8217 112.422 44.3398 114.454 44.3398C116.487 44.3398 118.037 43.8886 119.103 42.9861C120.17 42.0836 120.703 40.8635 120.703 39.3259C121.702 39.259 122.536 39.4596 123.202 39.9276C123.902 40.3621 124.252 41.0139 124.252 41.883C124.252 42.9527 123.785 43.9555 122.852 44.8914C121.952 45.8273 120.753 46.5793 119.253 47.1476C117.753 47.7159 116.154 48 114.454 48ZM120.753 33.0084V31.3036C120.753 29.6323 120.17 28.2785 119.003 27.2423C117.87 26.1727 116.354 25.6379 114.454 25.6379C112.555 25.6379 111.022 26.1727 109.856 27.2423C108.723 28.2785 108.156 29.6323 108.156 31.3036V33.0084H120.753ZM129.726 48C129.293 48 128.826 47.9165 128.326 47.7493C127.827 47.6156 127.41 47.3816 127.077 47.0473L136.274 34.3621L128.126 22.7799C128.393 22.546 128.76 22.3621 129.226 22.2284C129.726 22.0947 130.176 22.0279 130.576 22.0279C131.842 22.0279 132.775 22.4791 133.375 23.3816L138.574 31.1532L137.624 32.507L137.874 32.7075L144.222 23.3816C144.522 22.9471 144.922 22.6128 145.422 22.3788C145.955 22.1449 146.522 22.0279 147.121 22.0279C147.521 22.0279 147.954 22.0947 148.421 22.2284C148.888 22.3621 149.254 22.546 149.521 22.7799L141.323 34.3621L150.47 47.0473C150.171 47.3816 149.787 47.6156 149.321 47.7493C148.888 47.9165 148.471 48 148.071 48C147.538 48 147.005 47.883 146.472 47.649C145.938 47.4485 145.555 47.1644 145.322 46.7966L138.774 37.2201L132.275 46.7966C132.009 47.1978 131.642 47.4986 131.176 47.6992C130.709 47.8997 130.226 48 129.726 48Z" fill="white"/>
<path d="M157.969 15.9109C157.969 14.6741 158.369 13.7215 159.168 13.0529C160.002 12.351 161.168 12 162.668 12V44.0891C162.668 45.3259 162.251 46.2953 161.418 46.9972C160.618 47.6658 159.468 48 157.969 48V15.9109ZM181.134 16.6128H168.937C168.937 13.8384 170.236 12.4513 172.836 12.4513H197.979C197.979 15.2257 196.679 16.6128 194.08 16.6128H185.832V44.0891C185.832 45.3594 185.432 46.3287 184.633 46.9972C183.833 47.6658 182.666 48 181.134 48V16.6128Z" fill="#5F2DEE"/>
</svg>
