<svg width="209" height="60" viewBox="0 0 209 60" fill="none" xmlns="http://www.w3.org/2000/svg">
<rect x="0.5" y="0.5" width="208" height="59" fill="white"/>
<rect x="0.5" y="0.5" width="208" height="59" stroke="#5F2DEE"/>
<path d="M71.1317 38.9998H83.0734V35.3998H75.376V21.8398H71.1317V38.9998Z" fill="#5F2DEE"/>
<path d="M90.1484 36.6C88.4459 36.6 87.5586 35.112 87.5586 32.88C87.5586 30.648 88.4459 29.136 90.1484 29.136C91.8509 29.136 92.7621 30.648 92.7621 32.88C92.7621 35.112 91.8509 36.6 90.1484 36.6ZM90.1724 39.384C94.1289 39.384 96.7187 36.576 96.7187 32.88C96.7187 29.184 94.1289 26.376 90.1724 26.376C86.2398 26.376 83.6021 29.184 83.6021 32.88C83.6021 36.576 86.2398 39.384 90.1724 39.384Z" fill="#5F2DEE"/>
<path d="M103.567 43.2481C105.389 43.2481 106.996 42.8401 108.075 41.8801C109.058 40.9921 109.706 39.6481 109.706 37.8001V26.7121H105.965V28.0321H105.917C105.198 27.0001 104.095 26.3521 102.464 26.3521C99.4186 26.3521 97.3085 28.8961 97.3085 32.4961C97.3085 36.2641 99.8742 38.3281 102.632 38.3281C104.119 38.3281 105.054 37.7281 105.773 36.9121H105.869V38.1361C105.869 39.6241 105.174 40.4881 103.519 40.4881C102.224 40.4881 101.577 39.9361 101.361 39.2881H97.5722C97.9559 41.8561 100.186 43.2481 103.567 43.2481ZM103.543 35.4241C102.08 35.4241 101.121 34.2241 101.121 32.3761C101.121 30.5041 102.08 29.3041 103.543 29.3041C105.174 29.3041 106.037 30.6961 106.037 32.3521C106.037 34.0801 105.246 35.4241 103.543 35.4241Z" fill="#5F2DEE"/>
<path d="M117.397 36.6C115.695 36.6 114.808 35.112 114.808 32.88C114.808 30.648 115.695 29.136 117.397 29.136C119.1 29.136 120.011 30.648 120.011 32.88C120.011 35.112 119.1 36.6 117.397 36.6ZM117.421 39.384C121.378 39.384 123.967 36.576 123.967 32.88C123.967 29.184 121.378 26.376 117.421 26.376C113.489 26.376 110.851 29.184 110.851 32.88C110.851 36.576 113.489 39.384 117.421 39.384Z" fill="#5F2DEE"/>
<path d="M125.109 38.9998H129.018V26.7118H125.109V38.9998ZM125.109 25.0078H129.018V21.8398H125.109V25.0078Z" fill="#5F2DEE"/>
<path d="M130.714 43.0561H134.622V37.7281H134.67C135.437 38.7601 136.564 39.3841 138.147 39.3841C141.36 39.3841 143.494 36.8401 143.494 32.8561C143.494 29.1601 141.504 26.3521 138.243 26.3521C136.564 26.3521 135.366 27.0961 134.526 28.2001H134.454V26.7121H130.714V43.0561ZM137.14 36.3601C135.461 36.3601 134.502 34.9921 134.502 33.0001C134.502 31.0081 135.366 29.4961 137.068 29.4961C138.747 29.4961 139.538 30.8881 139.538 33.0001C139.538 35.0881 138.627 36.3601 137.14 36.3601Z" fill="#5F2DEE"/>
<path d="M149.858 39.3841C153.071 39.3841 155.445 37.9921 155.445 35.3041C155.445 32.1601 152.903 31.6081 150.745 31.2481C149.187 30.9601 147.796 30.8401 147.796 29.9761C147.796 29.2081 148.539 28.8481 149.498 28.8481C150.577 28.8481 151.321 29.1841 151.465 30.2881H155.062C154.87 27.8641 152.999 26.3521 149.522 26.3521C146.621 26.3521 144.223 27.6961 144.223 30.2881C144.223 33.1681 146.501 33.7441 148.635 34.1041C150.266 34.3921 151.752 34.5121 151.752 35.6161C151.752 36.4081 151.009 36.8401 149.834 36.8401C148.539 36.8401 147.724 36.2401 147.58 35.0161H143.887C144.007 37.7281 146.261 39.3841 149.858 39.3841Z" fill="#5F2DEE"/>
<path d="M160.755 39.3599C162.457 39.3599 163.536 38.6879 164.423 37.4879H164.495V38.9999H168.236V26.7119H164.328V33.5759C164.328 35.0399 163.512 36.0479 162.169 36.0479C160.922 36.0479 160.323 35.3039 160.323 33.9599V26.7119H156.438V34.7759C156.438 37.5119 157.925 39.3599 160.755 39.3599Z" fill="#5F2DEE"/>
<path d="M169.937 39.0001H173.845V32.1121C173.845 30.6481 174.565 29.6161 175.787 29.6161C176.962 29.6161 177.514 30.3841 177.514 31.7041V39.0001H181.423V32.1121C181.423 30.6481 182.118 29.6161 183.365 29.6161C184.54 29.6161 185.091 30.3841 185.091 31.7041V39.0001H189V31.0081C189 28.2481 187.609 26.3521 184.828 26.3521C183.245 26.3521 181.926 27.0241 180.967 28.5121H180.919C180.296 27.1921 179.073 26.3521 177.466 26.3521C175.692 26.3521 174.517 27.1921 173.749 28.4641H173.677V26.7121H169.937V39.0001Z" fill="#5F2DEE"/>
<path fill-rule="evenodd" clip-rule="evenodd" d="M39.9826 50C51.0189 50 59.9653 41.0457 59.9653 30C59.9653 18.9543 51.0189 10 39.9826 10C28.9465 10 20 18.9543 20 30C20 41.0457 28.9465 50 39.9826 50ZM43.067 25.4526C44.7703 23.7477 44.7703 20.9836 43.067 19.2787C41.3635 17.5738 38.6018 17.5738 36.8984 19.2787C35.1951 20.9836 35.1951 23.7477 36.8984 25.4526L39.9826 28.5395L43.067 25.4526ZM44.5262 33.087C46.2296 34.7919 48.9913 34.7919 50.6947 33.087C52.3981 31.3821 52.3981 28.618 50.6947 26.9131C48.9913 25.2083 46.2296 25.2083 44.5262 26.9131L41.442 30.0001L44.5262 33.087ZM43.067 40.7214C44.7703 39.0165 44.7703 36.2524 43.067 34.5475L39.9826 31.4606L36.8984 34.5475C35.1951 36.2524 35.1951 39.0165 36.8984 40.7214C38.6018 42.4263 41.3635 42.4263 43.067 40.7214ZM29.2706 33.087C27.5672 31.3821 27.5672 28.618 29.2706 26.9131C30.974 25.2083 33.7358 25.2083 35.4392 26.9131L38.5234 30.0001L35.4392 33.087C33.7358 34.7919 30.974 34.7919 29.2706 33.087Z" fill="#5F2DEE"/>
</svg>
