<svg width="206" height="60" viewBox="0 0 206 60" fill="none" xmlns="http://www.w3.org/2000/svg">
<rect x="0.5" y="0.5" width="205" height="59" fill="white"/>
<rect x="0.5" y="0.5" width="205" height="59" stroke="#5F2DEE"/>
<path d="M68.3837 38.5003H80.2998V34.9003H72.6189V21.3403H68.3837V38.5003Z" fill="#5F2DEE"/>
<path d="M87.3597 36.1C85.6608 36.1 84.7755 34.612 84.7755 32.38C84.7755 30.148 85.6608 28.636 87.3597 28.636C89.0586 28.636 89.9679 30.148 89.9679 32.38C89.9679 34.612 89.0586 36.1 87.3597 36.1ZM87.3837 38.884C91.3318 38.884 93.916 36.076 93.916 32.38C93.916 28.684 91.3318 25.876 87.3837 25.876C83.4595 25.876 80.8274 28.684 80.8274 32.38C80.8274 36.076 83.4595 38.884 87.3837 38.884Z" fill="#5F2DEE"/>
<path d="M100.75 42.7481C102.568 42.7481 104.172 42.34 105.248 41.3801C106.229 40.4921 106.875 39.1481 106.875 37.3001V26.2121H103.143V27.5321H103.095C102.377 26.5001 101.276 25.8521 99.6492 25.8521C96.6103 25.8521 94.5046 28.3961 94.5046 31.9961C94.5046 35.7641 97.0649 37.8281 99.8167 37.8281C101.3 37.8281 102.233 37.2281 102.951 36.4121H103.047V37.6361C103.047 39.1241 102.353 39.9881 100.702 39.9881C99.4099 39.9881 98.7638 39.4361 98.5485 38.7881H94.7678C95.1507 41.3561 97.376 42.7481 100.75 42.7481ZM100.726 34.9241C99.2663 34.9241 98.3092 33.7241 98.3092 31.8761C98.3092 30.0041 99.2663 28.8041 100.726 28.8041C102.353 28.8041 103.214 30.1961 103.214 31.8521C103.214 33.5801 102.425 34.9241 100.726 34.9241Z" fill="#5F2DEE"/>
<path d="M114.551 36.1C112.852 36.1 111.967 34.612 111.967 32.38C111.967 30.148 112.852 28.636 114.551 28.636C116.25 28.636 117.159 30.148 117.159 32.38C117.159 34.612 116.25 36.1 114.551 36.1ZM114.575 38.884C118.523 38.884 121.107 36.076 121.107 32.38C121.107 28.684 118.523 25.876 114.575 25.876C110.651 25.876 108.018 28.684 108.018 32.38C108.018 36.076 110.651 38.884 114.575 38.884Z" fill="#5F2DEE"/>
<path d="M122.246 38.5003H126.146V26.2123H122.246V38.5003ZM122.246 24.5083H126.146V21.3403H122.246V24.5083Z" fill="#5F2DEE"/>
<path d="M127.838 42.5561H131.738V37.2281H131.786C132.552 38.2601 133.677 38.8841 135.256 38.8841C138.462 38.8841 140.592 36.3401 140.592 32.3561C140.592 28.6601 138.606 25.8521 135.352 25.8521C133.677 25.8521 132.48 26.5961 131.643 27.7001H131.571V26.2121H127.838V42.5561ZM134.251 35.8601C132.576 35.8601 131.619 34.4921 131.619 32.5001C131.619 30.5081 132.48 28.9961 134.179 28.9961C135.854 28.9961 136.644 30.3881 136.644 32.5001C136.644 34.5881 135.734 35.8601 134.251 35.8601Z" fill="#5F2DEE"/>
<path d="M146.943 38.8841C150.149 38.8841 152.518 37.4921 152.518 34.8041C152.518 31.6601 149.981 31.1081 147.828 30.7481C146.273 30.4601 144.885 30.3401 144.885 29.4761C144.885 28.7081 145.627 28.3481 146.584 28.3481C147.66 28.3481 148.402 28.6841 148.546 29.7881H152.135C151.944 27.3641 150.077 25.8521 146.608 25.8521C143.712 25.8521 141.319 27.1961 141.319 29.7881C141.319 32.6681 143.593 33.2441 145.722 33.6041C147.349 33.8921 148.833 34.0121 148.833 35.1161C148.833 35.9081 148.091 36.3401 146.919 36.3401C145.627 36.3401 144.813 35.7401 144.669 34.5161H140.984C141.104 37.2281 143.353 38.8841 146.943 38.8841Z" fill="#5F2DEE"/>
<path d="M157.815 38.8599C159.514 38.8599 160.591 38.1879 161.476 36.9879H161.548V38.4999H165.28V26.2119H161.38V33.0759C161.38 34.5399 160.567 35.5479 159.227 35.5479C157.982 35.5479 157.384 34.8039 157.384 33.4599V26.2119H153.508V34.2759C153.508 37.0119 154.991 38.8599 157.815 38.8599Z" fill="#5F2DEE"/>
<path d="M166.977 38.5001H170.878V31.6121C170.878 30.1481 171.595 29.1161 172.816 29.1161C173.988 29.1161 174.539 29.8841 174.539 31.2041V38.5001H178.439V31.6121C178.439 30.1481 179.133 29.1161 180.377 29.1161C181.549 29.1161 182.1 29.8841 182.1 31.2041V38.5001H186V30.5081C186 27.7481 184.612 25.8521 181.837 25.8521C180.257 25.8521 178.941 26.5241 177.984 28.0121H177.936C177.314 26.6921 176.094 25.8521 174.491 25.8521C172.72 25.8521 171.548 26.6921 170.782 27.9641H170.71V26.2121H166.977V38.5001Z" fill="#5F2DEE"/>
<path fill-rule="evenodd" clip-rule="evenodd" d="M28.5271 13.5979C27.1007 14.5982 25.8109 15.781 24.6912 17.1124C29.2667 16.6863 35.0798 17.382 41.8287 20.7667C49.0356 24.3809 54.8389 24.5031 58.8778 23.7217C58.5113 22.6088 58.0499 21.5392 57.5034 20.5224C52.88 21.0115 46.9528 20.3641 40.0452 16.9C35.6588 14.7002 31.7923 13.794 28.5271 13.5979ZM54.8026 16.6666C51.1515 12.575 45.8456 10 39.94 10C38.2057 10 36.5229 10.2221 34.9188 10.6395C37.0914 11.2341 39.3995 12.104 41.8287 13.3223C46.886 15.8585 51.2523 16.6752 54.8026 16.6666ZM59.7413 27.6281C54.8619 28.5945 48.1241 28.396 40.0452 24.3444C32.4924 20.5566 26.4809 20.6043 22.4266 21.508C22.2173 21.5546 22.013 21.6036 21.8136 21.6546C21.2828 22.8125 20.859 24.0301 20.555 25.2945C20.8797 25.2075 21.2153 25.1248 21.5615 25.0476C26.4801 23.9513 33.4296 23.9989 41.8287 28.2111C49.3816 31.9989 55.393 31.9512 59.4474 31.0475C59.5863 31.0166 59.7232 30.9846 59.8578 30.9516C59.8726 30.6363 59.8799 30.319 59.8799 30C59.8799 29.1975 59.8329 28.406 59.7413 27.6281ZM59.2068 35.1723C54.3748 36.0196 47.8332 35.6944 40.0452 31.7888C32.4924 28.001 26.4809 28.0487 22.4266 28.9524C21.5267 29.1529 20.7171 29.3972 20.0029 29.6551C20.001 29.7698 20 29.8848 20 30C20 41.0457 28.9274 50 39.94 50C49.1693 50 56.9341 43.7109 59.2068 35.1723Z" fill="#5F2DEE"/>
</svg>
