<svg width="201" height="60" viewBox="0 0 201 60" fill="none" xmlns="http://www.w3.org/2000/svg">
<rect x="0.5" y="0.5" width="200" height="59" fill="white"/>
<rect x="0.5" y="0.5" width="200" height="59" stroke="#5F2DEE"/>
<g clip-path="url(#clip0_63_444)">
<path d="M68.4525 37.9557H79.8387V34.5271H72.4994V21.6128H68.4525V37.9557Z" fill="#5F2DEE"/>
<path d="M86.5847 35.6698C84.9613 35.6698 84.1153 34.2526 84.1153 32.1269C84.1153 30.0012 84.9613 28.5612 86.5847 28.5612C88.208 28.5612 89.0768 30.0012 89.0768 32.1269C89.0768 34.2526 88.208 35.6698 86.5847 35.6698ZM86.6075 38.3212C90.3801 38.3212 92.8494 35.6469 92.8494 32.1269C92.8494 28.6069 90.3801 25.9326 86.6075 25.9326C82.8578 25.9326 80.3428 28.6069 80.3428 32.1269C80.3428 35.6469 82.8578 38.3212 86.6075 38.3212Z" fill="#5F2DEE"/>
<path d="M99.3794 42.0011C101.117 42.0011 102.649 41.6125 103.678 40.6982C104.615 39.8525 105.233 38.5725 105.233 36.8125V26.2525H101.666V27.5097H101.62C100.934 26.5268 99.8824 25.9097 98.3276 25.9097C95.4239 25.9097 93.4119 28.3325 93.4119 31.7611C93.4119 35.3497 95.8583 37.3154 98.4877 37.3154C99.9052 37.3154 100.797 36.744 101.483 35.9668H101.574V37.1325C101.574 38.5497 100.911 39.3725 99.3337 39.3725C98.099 39.3725 97.4817 38.8468 97.2759 38.2297H93.6634C94.0292 40.6754 96.1556 42.0011 99.3794 42.0011ZM99.3565 34.5497C97.9618 34.5497 97.0473 33.4068 97.0473 31.6468C97.0473 29.864 97.9618 28.7211 99.3565 28.7211C100.911 28.7211 101.734 30.0468 101.734 31.624C101.734 33.2697 100.98 34.5497 99.3565 34.5497Z" fill="#5F2DEE"/>
<path d="M112.566 35.6698C110.943 35.6698 110.097 34.2526 110.097 32.1269C110.097 30.0012 110.943 28.5612 112.566 28.5612C114.19 28.5612 115.059 30.0012 115.059 32.1269C115.059 34.2526 114.19 35.6698 112.566 35.6698ZM112.589 38.3212C116.362 38.3212 118.831 35.6469 118.831 32.1269C118.831 28.6069 116.362 25.9326 112.589 25.9326C108.84 25.9326 106.325 28.6069 106.325 32.1269C106.325 35.6469 108.84 38.3212 112.589 38.3212Z" fill="#5F2DEE"/>
<path d="M119.919 37.9557H123.646V26.2528H119.919V37.9557ZM119.919 24.6299H123.646V21.6128H119.919V24.6299Z" fill="#5F2DEE"/>
<path d="M125.264 41.8182H128.99V36.744H129.036C129.768 37.7268 130.842 38.3211 132.351 38.3211C135.415 38.3211 137.45 35.8982 137.45 32.104C137.45 28.584 135.552 25.9097 132.443 25.9097C130.842 25.9097 129.699 26.6182 128.899 27.6697H128.83V26.2525H125.264V41.8182ZM131.391 35.4411C129.791 35.4411 128.876 34.1382 128.876 32.2411C128.876 30.344 129.699 28.904 131.322 28.904C132.923 28.904 133.677 30.2297 133.677 32.2411C133.677 34.2297 132.809 35.4411 131.391 35.4411Z" fill="#5F2DEE"/>
<path d="M143.517 38.3211C146.581 38.3211 148.845 36.9954 148.845 34.4354C148.845 31.4411 146.421 30.9154 144.363 30.5725C142.877 30.2982 141.551 30.184 141.551 29.3611C141.551 28.6297 142.26 28.2868 143.175 28.2868C144.203 28.2868 144.912 28.6068 145.049 29.6582H148.479C148.296 27.3497 146.513 25.9097 143.197 25.9097C140.431 25.9097 138.144 27.1897 138.144 29.6582C138.144 32.4011 140.317 32.9497 142.351 33.2925C143.906 33.5668 145.324 33.6811 145.324 34.7325C145.324 35.4868 144.615 35.8982 143.495 35.8982C142.26 35.8982 141.483 35.3268 141.345 34.1611H137.824C137.939 36.744 140.088 38.3211 143.517 38.3211Z" fill="#5F2DEE"/>
<path d="M153.907 38.2982C155.531 38.2982 156.559 37.6582 157.405 36.5153H157.474V37.9553H161.041V26.2524H157.314V32.7896C157.314 34.1839 156.537 35.1439 155.256 35.1439C154.067 35.1439 153.496 34.4353 153.496 33.1553V26.2524H149.792V33.9324C149.792 36.5382 151.209 38.2982 153.907 38.2982Z" fill="#5F2DEE"/>
<path d="M162.661 37.9554H166.388V31.3954C166.388 30.0011 167.074 29.0182 168.24 29.0182C169.36 29.0182 169.886 29.7497 169.886 31.0068V37.9554H173.613V31.3954C173.613 30.0011 174.276 29.0182 175.465 29.0182C176.585 29.0182 177.111 29.7497 177.111 31.0068V37.9554H180.838V30.344C180.838 27.7154 179.512 25.9097 176.86 25.9097C175.351 25.9097 174.093 26.5497 173.179 27.9668H173.133C172.538 26.7097 171.372 25.9097 169.841 25.9097C168.149 25.9097 167.028 26.7097 166.297 27.9211H166.228V26.2525H162.661V37.9554Z" fill="#5F2DEE"/>
<path fill-rule="evenodd" clip-rule="evenodd" d="M39.7051 10.916C50.4338 10.916 59.1311 19.6108 59.1311 30.3363C59.1311 41.0619 50.4338 49.7567 39.7051 49.7567C28.9763 49.7567 20.279 41.0619 20.279 30.3363C20.279 19.6108 28.9763 10.916 39.7051 10.916ZM58.3855 30.3363C58.3855 20.0225 50.0219 11.6614 39.7051 11.6614C38.8728 11.6614 38.0534 11.7158 37.25 11.8212C37.7691 11.7758 38.2944 11.7527 38.8252 11.7527C48.6835 11.7527 56.6753 19.7421 56.6753 29.5975C56.6753 39.4528 48.6835 47.4423 38.8252 47.4423C29.492 47.4423 21.8318 40.2814 21.0422 31.1556C21.4712 41.0893 29.6627 49.0112 39.7051 49.0112C50.0219 49.0112 58.3855 40.6502 58.3855 30.3363ZM55.9297 29.5975C55.9297 20.1537 48.2718 12.498 38.8252 12.498C38.0582 12.498 37.3029 12.5485 36.5626 12.6463C37.0185 12.608 37.4797 12.5884 37.9454 12.5884C46.9334 12.5884 54.2196 19.8725 54.2196 28.8577C54.2196 37.843 46.9334 45.127 37.9454 45.127C29.4471 45.127 22.4701 38.6149 21.7353 30.31C22.1089 39.4233 29.6174 46.6969 38.8252 46.6969C48.2718 46.6969 55.9297 39.0412 55.9297 29.5975ZM37.9454 13.3338C46.5216 13.3338 53.474 20.2841 53.474 28.8577C53.474 37.4313 46.5216 44.3816 37.9454 44.3816C29.568 44.3816 22.7399 37.7496 22.428 29.4508C23.1013 36.9413 29.3977 42.8117 37.0657 42.8117C45.1827 42.8117 51.7629 36.2335 51.7629 28.1188C51.7629 20.0042 45.1827 13.426 37.0657 13.426C36.6458 13.426 36.2299 13.4436 35.819 13.4781C36.5142 13.3829 37.2241 13.3338 37.9454 13.3338ZM51.0173 28.1188C51.0173 20.4159 44.771 14.1714 37.0657 14.1714C36.4147 14.1714 35.774 14.2159 35.1468 14.3022C35.4893 14.2754 35.8355 14.2617 36.1849 14.2617C43.4316 14.2617 49.3062 20.1346 49.3062 27.3791C49.3062 34.6236 43.4316 40.4965 36.1849 40.4965C29.3642 40.4965 23.759 35.2937 23.1236 28.6414C23.3985 36.1023 29.5354 42.0664 37.0657 42.0664C44.771 42.0664 51.0173 35.8219 51.0173 28.1188ZM36.1849 15.0071C43.0198 15.0071 48.5605 20.5463 48.5605 27.3791C48.5605 34.212 43.0198 39.7511 36.1849 39.7511C29.4847 39.7511 24.0281 34.4281 23.8157 27.7814C24.3893 33.6197 29.3144 38.1812 35.3051 38.1812C41.6815 38.1812 46.8504 33.0137 46.8504 26.6393C46.8504 20.2649 41.6815 15.0975 35.3051 15.0975C35.0127 15.0975 34.7228 15.1083 34.4359 15.1297C35.0073 15.0489 35.5912 15.0071 36.1849 15.0071ZM46.1049 26.6393C46.1049 20.6766 41.2696 15.8428 35.3051 15.8428C34.7607 15.8428 34.2256 15.8831 33.7028 15.9608C33.9415 15.9438 34.1824 15.9351 34.4254 15.9351C39.9308 15.9351 44.3938 20.3968 44.3938 25.9005C44.3938 31.4043 39.9308 35.8659 34.4254 35.8659C29.2665 35.8659 25.023 31.9483 24.5092 26.9266C24.6615 32.7566 29.4367 37.4359 35.3051 37.4359C41.2696 37.4359 46.1049 32.6021 46.1049 26.6393ZM34.4254 16.6804C39.519 16.6804 43.6481 20.8084 43.6481 25.9005C43.6481 30.9927 39.519 35.1206 34.4254 35.1206C29.3966 35.1206 25.3078 31.097 25.2046 26.0945C25.6691 30.2887 29.2263 33.5507 33.5456 33.5507C38.1806 33.5507 41.938 29.7944 41.938 25.1607C41.938 20.5271 38.1806 16.7708 33.5456 16.7708C33.3683 16.7708 33.1924 16.7763 33.0179 16.7871C33.4768 16.7169 33.9468 16.6804 34.4254 16.6804ZM41.1925 25.1607C41.1925 20.9387 37.7689 17.5162 33.5456 17.5162C33.1215 17.5162 32.7055 17.5507 32.3001 17.617C32.4209 17.6107 32.5425 17.6075 32.6649 17.6075C36.4294 17.6075 39.4813 20.6584 39.4813 24.4219C39.4813 28.1854 36.4294 31.2364 32.6649 31.2364C29.1839 31.2364 26.3123 28.6278 25.8994 25.2594C25.9523 29.436 29.3553 32.8053 33.5456 32.8053C37.7689 32.8053 41.1925 29.3827 41.1925 25.1607ZM32.6649 18.3528C36.0177 18.3528 38.7357 21.07 38.7357 24.4219C38.7357 27.7738 36.0177 30.4909 32.6649 30.4909C29.312 30.4909 26.594 27.7738 26.594 24.4219C26.594 24.4139 26.594 24.4058 26.594 24.3978C26.9431 26.9521 29.1342 28.9202 31.7851 28.9202C34.6788 28.9202 37.0247 26.575 37.0247 23.6822C37.0247 20.7892 34.6788 18.4441 31.7851 18.4441C31.7197 18.4441 31.6545 18.4453 31.5896 18.4477C31.9386 18.3854 32.2979 18.3528 32.6649 18.3528ZM36.279 23.6822C36.279 21.2009 34.2671 19.1895 31.7851 19.1895C29.3031 19.1895 27.2911 21.2009 27.2911 23.6822C27.2911 26.1633 29.3031 28.1747 31.7851 28.1747C34.2671 28.1747 36.279 26.1633 36.279 23.6822Z" fill="#5F2DEE"/>
</g>
<defs>
<clipPath id="clip0_63_444">
<rect width="161" height="40" fill="white" transform="translate(20 10)"/>
</clipPath>
</defs>
</svg>
