<svg width="206" height="60" viewBox="0 0 206 60" fill="none" xmlns="http://www.w3.org/2000/svg">
<rect x="0.5" y="0.5" width="205" height="59" fill="white"/>
<rect x="0.5" y="0.5" width="205" height="59" stroke="#5F2DEE"/>
<path d="M68.6872 38.0296H80.5726V34.4296H72.9115V20.8696H68.6872V38.0296Z" fill="#5F2DEE"/>
<path d="M87.6143 35.6298C85.9198 35.6298 85.0367 34.1418 85.0367 31.9098C85.0367 29.6778 85.9198 28.1658 87.6143 28.1658C89.3088 28.1658 90.2157 29.6778 90.2157 31.9098C90.2157 34.1418 89.3088 35.6298 87.6143 35.6298ZM87.6382 38.4138C91.5761 38.4138 94.1536 35.6058 94.1536 31.9098C94.1536 28.2138 91.5761 25.4058 87.6382 25.4058C83.7241 25.4058 81.0988 28.2138 81.0988 31.9098C81.0988 35.6058 83.7241 38.4138 87.6382 38.4138Z" fill="#5F2DEE"/>
<path d="M100.97 42.2773C102.784 42.2773 104.383 41.8693 105.457 40.9093C106.435 40.0213 107.08 38.6773 107.08 36.8293V25.7413H103.356V27.0613H103.309C102.593 26.0293 101.495 25.3813 99.872 25.3813C96.841 25.3813 94.7407 27.9253 94.7407 31.5253C94.7407 35.2933 97.2944 37.3573 100.039 37.3573C101.519 37.3573 102.45 36.7573 103.165 35.9413H103.261V37.1653C103.261 38.6533 102.569 39.5173 100.922 39.5173C99.6333 39.5173 98.9889 38.9653 98.7741 38.3173H95.0033C95.3851 40.8853 97.6047 42.2773 100.97 42.2773ZM100.946 34.4533C99.4901 34.4533 98.5355 33.2533 98.5355 31.4053C98.5355 29.5333 99.4901 28.3333 100.946 28.3333C102.569 28.3333 103.428 29.7253 103.428 31.3813C103.428 33.1093 102.64 34.4533 100.946 34.4533Z" fill="#5F2DEE"/>
<path d="M114.735 35.6298C113.041 35.6298 112.157 34.1418 112.157 31.9098C112.157 29.6778 113.041 28.1658 114.735 28.1658C116.43 28.1658 117.336 29.6778 117.336 31.9098C117.336 34.1418 116.43 35.6298 114.735 35.6298ZM114.759 38.4138C118.697 38.4138 121.274 35.6058 121.274 31.9098C121.274 28.2138 118.697 25.4058 114.759 25.4058C110.845 25.4058 108.22 28.2138 108.22 31.9098C108.22 35.6058 110.845 38.4138 114.759 38.4138Z" fill="#5F2DEE"/>
<path d="M122.411 38.0296H126.301V25.7416H122.411V38.0296ZM122.411 24.0376H126.301V20.8696H122.411V24.0376Z" fill="#5F2DEE"/>
<path d="M127.988 42.0853H131.878V36.7573H131.926C132.69 37.7893 133.812 38.4133 135.387 38.4133C138.585 38.4133 140.709 35.8693 140.709 31.8853C140.709 28.1893 138.728 25.3813 135.482 25.3813C133.812 25.3813 132.618 26.1253 131.783 27.2293H131.711V25.7413H127.988V42.0853ZM134.384 35.3893C132.714 35.3893 131.759 34.0213 131.759 32.0293C131.759 30.0373 132.618 28.5253 134.313 28.5253C135.983 28.5253 136.771 29.9173 136.771 32.0293C136.771 34.1173 135.864 35.3893 134.384 35.3893Z" fill="#5F2DEE"/>
<path d="M147.042 38.4133C150.24 38.4133 152.603 37.0213 152.603 34.3333C152.603 31.1893 150.073 30.6373 147.925 30.2773C146.374 29.9893 144.99 29.8693 144.99 29.0053C144.99 28.2373 145.73 27.8773 146.684 27.8773C147.758 27.8773 148.498 28.2133 148.641 29.3173H152.221C152.03 26.8933 150.169 25.3813 146.708 25.3813C143.82 25.3813 141.434 26.7253 141.434 29.3173C141.434 32.1973 143.701 32.7733 145.825 33.1333C147.448 33.4213 148.928 33.5413 148.928 34.6453C148.928 35.4373 148.188 35.8693 147.019 35.8693C145.73 35.8693 144.918 35.2693 144.775 34.0453H141.1C141.219 36.7573 143.462 38.4133 147.042 38.4133Z" fill="#5F2DEE"/>
<path d="M157.888 38.3897C159.582 38.3897 160.656 37.7177 161.539 36.5177H161.611V38.0297H165.334V25.7417H161.444V32.6057C161.444 34.0697 160.632 35.0777 159.296 35.0777C158.055 35.0777 157.458 34.3337 157.458 32.9897V25.7417H153.592V33.8057C153.592 36.5417 155.071 38.3897 157.888 38.3897Z" fill="#5F2DEE"/>
<path d="M167.026 38.0293H170.917V31.1413C170.917 29.6773 171.633 28.6453 172.85 28.6453C174.019 28.6453 174.568 29.4133 174.568 30.7333V38.0293H178.458V31.1413C178.458 29.6773 179.15 28.6453 180.391 28.6453C181.561 28.6453 182.11 29.4133 182.11 30.7333V38.0293H186V30.0373C186 27.2773 184.616 25.3813 181.847 25.3813C180.272 25.3813 178.959 26.0533 178.005 27.5413H177.957C177.337 26.2213 176.119 25.3813 174.52 25.3813C172.754 25.3813 171.585 26.2213 170.821 27.4933H170.749V25.7413H167.026V38.0293Z" fill="#5F2DEE"/>
<path d="M44.9526 11.0539L41.0416 10L37.7456 22.3696L34.77 11.2022L30.8588 12.2561L34.0738 24.3216L26.0661 16.269L23.2029 19.1482L31.9864 27.981L21.048 25.0336L20 28.9666L31.9516 32.187C31.8148 31.5935 31.7424 30.9751 31.7424 30.3397C31.7424 25.8421 35.3681 22.1961 39.8406 22.1961C44.3131 22.1961 47.9388 25.8421 47.9388 30.3397C47.9388 30.971 47.8673 31.5856 47.7322 32.1756L58.594 35.1023L59.6419 31.1693L47.6428 27.9361L58.5819 24.9885L57.5339 21.0555L45.5353 24.2885L53.543 16.2359L50.6798 13.3567L42.0182 22.067L44.9526 11.0539Z" fill="#5F2DEE"/>
<path d="M47.7215 32.2217C47.3862 33.6473 46.6783 34.928 45.7069 35.9541L53.5758 43.8672L56.4389 40.988L47.7215 32.2217Z" fill="#5F2DEE"/>
<path d="M45.6274 36.0366C44.6443 37.0463 43.402 37.7998 42.0088 38.1881L44.8721 48.9341L48.7832 47.8802L45.6274 36.0366Z" fill="#5F2DEE"/>
<path d="M41.8626 38.2274C41.2162 38.3945 40.5387 38.4833 39.8406 38.4833C39.0926 38.4833 38.3682 38.3813 37.6806 38.1904L34.8146 48.9462L38.7257 50L41.8626 38.2274Z" fill="#5F2DEE"/>
<path d="M37.5424 38.1511C36.1705 37.7435 34.9502 36.9804 33.9872 35.9678L26.0989 43.9003L28.9621 46.7795L37.5424 38.1511Z" fill="#5F2DEE"/>
<path d="M33.9214 35.8976C32.9749 34.8786 32.2855 33.615 31.9573 32.2114L21.0601 35.1477L22.108 39.0807L33.9214 35.8976Z" fill="#5F2DEE"/>
</svg>
