<svg width="230" height="60" viewBox="0 0 230 60" fill="none" xmlns="http://www.w3.org/2000/svg">
<rect x="0.5" y="0.5" width="229" height="59" fill="white"/>
<rect x="0.5" y="0.5" width="229" height="59" stroke="#5F2DEE"/>
<path fill-rule="evenodd" clip-rule="evenodd" d="M45.4365 21.6853C43.7997 20.5865 41.8753 20 39.9067 20V10C43.8439 10 47.6926 11.173 50.9663 13.3706C54.2399 15.5682 56.7914 18.6918 58.2981 22.3463C59.8048 26.0008 60.199 30.0222 59.4309 33.9018C58.6628 37.7814 56.7669 41.3451 53.9829 44.1421C51.1989 46.9392 47.6518 48.844 43.7903 49.6157C39.9288 50.3874 35.9262 49.9913 32.2887 48.4776C28.6513 46.9638 25.5423 44.4004 23.3549 41.1114C21.1675 37.8224 20 33.9556 20 30H29.9534C29.9534 31.9778 30.5371 33.9112 31.6308 35.5557C32.7245 37.2002 34.279 38.4819 36.0978 39.2388C37.9164 39.9957 39.9178 40.1937 41.8485 39.8078C43.7793 39.422 45.5528 38.4696 46.9448 37.0711C48.3368 35.6725 49.2848 33.8907 49.6688 31.9509C50.0529 30.0111 49.8558 28.0004 49.1024 26.1732C48.3491 24.3459 47.0733 22.7841 45.4365 21.6853Z" fill="#5F2DEE"/>
<path fill-rule="evenodd" clip-rule="evenodd" d="M29.9534 10C29.9534 11.3132 29.6959 12.6136 29.1957 13.8268C28.6955 15.0401 27.9623 16.1425 27.0381 17.0711C26.1138 17.9997 25.0166 18.7363 23.809 19.2388C22.6014 19.7413 21.3071 20 20 20L20 30C22.6142 30 25.2028 29.4827 27.618 28.4776C30.0332 27.4725 32.2277 25.9993 34.0761 24.1421C35.9247 22.285 37.391 20.0802 38.3914 17.6537C39.3918 15.2272 39.9067 12.6264 39.9067 10L29.9534 10Z" fill="#5F2DEE"/>
<path d="M141.344 24.4673H137.445V36.8506H141.344V24.4673Z" fill="#5F2DEE"/>
<path d="M137.646 22.2857C138.128 22.7619 138.731 23 139.455 23C140.179 23 140.772 22.7619 141.234 22.2857C141.698 21.7897 141.929 21.1944 141.929 20.5C141.929 19.7857 141.698 19.1905 141.234 18.7143C140.772 18.2381 140.179 18 139.455 18C138.731 18 138.128 18.2381 137.646 18.7143C137.183 19.1905 136.952 19.7857 136.952 20.5C136.952 21.1944 137.183 21.7897 137.646 22.2857Z" fill="#5F2DEE"/>
<path d="M70.9026 36.8419V17.498H75.2043V33.0608H83.7803V36.8419H70.9026Z" fill="#5F2DEE"/>
<path fill-rule="evenodd" clip-rule="evenodd" d="M92.5248 37.198C91.2374 37.198 90.0703 36.9149 89.0232 36.3484C87.9933 35.7648 87.178 34.9753 86.5772 33.9797C85.9765 32.9841 85.6761 31.8685 85.6761 30.6326C85.6761 29.3968 85.9765 28.2897 86.5772 27.3113C87.178 26.3329 87.9933 25.5605 89.0232 24.9941C90.0531 24.4104 91.2203 24.1187 92.5248 24.1187C93.8293 24.1187 94.9964 24.4019 96.0263 24.9683C97.0562 25.5347 97.8716 26.3158 98.4723 27.3113C99.0731 28.2897 99.3735 29.3968 99.3735 30.6326C99.3735 31.8685 99.0731 32.9841 98.4723 33.9797C97.8716 34.9753 97.0562 35.7648 96.0263 36.3484C94.9964 36.9149 93.8293 37.198 92.5248 37.198ZM92.5248 33.6193C93.0912 33.6193 93.589 33.4991 94.0181 33.2588C94.4472 33.0014 94.7733 32.6495 94.9964 32.2032C95.2368 31.7398 95.3569 31.2162 95.3569 30.6326C95.3569 30.049 95.2368 29.5427 94.9964 29.1136C94.7561 28.6673 94.4215 28.324 93.9923 28.0837C93.5804 27.8262 93.0912 27.6975 92.5248 27.6975C91.9755 27.6975 91.4864 27.8262 91.0572 28.0837C90.6281 28.324 90.2934 28.6673 90.0531 29.1136C89.8128 29.5599 89.6927 30.0748 89.6927 30.6583C89.6927 31.2248 89.8128 31.7398 90.0531 32.2032C90.2934 32.6495 90.6281 33.0014 91.0572 33.2588C91.4864 33.4991 91.9755 33.6193 92.5248 33.6193Z" fill="#5F2DEE"/>
<path fill-rule="evenodd" clip-rule="evenodd" d="M105.259 42.9867C106.375 43.499 107.665 43.7551 109.129 43.7551C110.556 43.7551 111.828 43.4715 112.944 42.9043C114.06 42.337 114.938 41.5503 115.579 40.5439C116.219 39.5376 116.54 38.3482 116.54 36.9758V24.4327H112.422V25.3289C112.116 25.0712 111.768 24.8548 111.38 24.6797C110.666 24.3321 109.852 24.1582 108.937 24.1582C107.711 24.1582 106.622 24.451 105.671 25.0365C104.719 25.6037 103.969 26.3905 103.42 27.3969C102.871 28.385 102.597 29.5012 102.597 30.7455C102.597 31.9714 102.871 33.0876 103.42 34.0939C103.969 35.1003 104.719 35.8963 105.671 36.4818C106.622 37.0673 107.711 37.3601 108.937 37.3601C109.833 37.3601 110.648 37.1863 111.38 36.8386C111.734 36.6702 112.054 36.4718 112.34 36.2432V37.0856C112.34 38.0188 112.038 38.7416 111.434 39.2539C110.849 39.7663 110.035 40.0224 108.992 40.0224C108.15 40.0224 107.427 39.876 106.823 39.5833C106.238 39.2906 105.707 38.8605 105.231 38.2933L102.651 40.8733C103.292 41.7882 104.161 42.4927 105.259 42.9867ZM111.242 33.2431C110.821 33.4993 110.318 33.6274 109.733 33.6274C109.147 33.6274 108.635 33.4993 108.196 33.2431C107.775 32.9869 107.445 32.6392 107.208 32.2001C106.97 31.7427 106.851 31.2578 106.851 30.7455C106.851 30.1965 106.97 29.7025 107.208 29.2633C107.445 28.8242 107.784 28.4765 108.223 28.2203C108.662 27.9642 109.165 27.8361 109.733 27.8361C110.318 27.8361 110.821 27.9642 111.242 28.2203C111.681 28.4765 112.011 28.8242 112.23 29.2633C112.468 29.7025 112.587 30.1965 112.587 30.7455C112.587 31.2944 112.468 31.7884 112.23 32.2275C112.011 32.6484 111.681 32.9869 111.242 33.2431Z" fill="#5F2DEE"/>
<path fill-rule="evenodd" clip-rule="evenodd" d="M126.367 37.198C125.079 37.198 123.911 36.9149 122.865 36.3484C121.835 35.7648 121.02 34.9753 120.419 33.9797C119.818 32.9841 119.518 31.8685 119.518 30.6326C119.518 29.3968 119.818 28.2897 120.419 27.3113C121.02 26.3329 121.835 25.5605 122.865 24.9941C123.894 24.4104 125.062 24.1187 126.367 24.1187C127.67 24.1187 128.838 24.4019 129.867 24.9683C130.898 25.5347 131.713 26.3158 132.314 27.3113C132.914 28.2897 133.215 29.3968 133.215 30.6326C133.215 31.8685 132.914 32.9841 132.314 33.9797C131.713 34.9753 130.898 35.7648 129.867 36.3484C128.838 36.9149 127.67 37.198 126.367 37.198ZM126.367 33.6193C126.932 33.6193 127.43 33.4991 127.86 33.2588C128.288 33.0014 128.615 32.6495 128.838 32.2032C129.078 31.7398 129.198 31.2162 129.198 30.6326C129.198 30.049 129.078 29.5427 128.838 29.1136C128.598 28.6673 128.263 28.324 127.834 28.0837C127.422 27.8262 126.932 27.6975 126.367 27.6975C125.817 27.6975 125.327 27.8262 124.899 28.0837C124.469 28.324 124.135 28.6673 123.894 29.1136C123.654 29.5599 123.534 30.0748 123.534 30.6583C123.534 31.2248 123.654 31.7398 123.894 32.2032C124.135 32.6495 124.469 33.0014 124.899 33.2588C125.327 33.4991 125.817 33.6193 126.367 33.6193Z" fill="#5F2DEE"/>
<path fill-rule="evenodd" clip-rule="evenodd" d="M152.063 38.0064C151.17 38.0064 150.348 37.8331 149.6 37.4865C149.207 37.304 148.851 37.0862 148.534 36.833V43.3434H144.4V24.4315H148.588V25.3495C148.892 25.101 149.229 24.8862 149.6 24.7051C150.348 24.3402 151.17 24.1577 152.063 24.1577C153.322 24.1577 154.436 24.4588 155.402 25.061C156.388 25.663 157.154 26.4841 157.701 27.5241C158.268 28.5642 158.55 29.7502 158.55 31.0821C158.55 32.4141 158.268 33.6001 157.701 34.6401C157.154 35.6801 156.388 36.5011 155.402 37.1033C154.436 37.7054 153.322 38.0064 152.063 38.0064ZM151.298 34.2295C151.899 34.2295 152.42 34.0927 152.857 33.819C153.314 33.5453 153.669 33.1712 153.925 32.6969C154.18 32.2225 154.308 31.6842 154.308 31.0821C154.308 30.4617 154.18 29.9144 153.925 29.44C153.669 28.9656 153.314 28.6007 152.857 28.3452C152.42 28.0715 151.909 27.9347 151.325 27.9347C150.741 27.9347 150.221 28.0715 149.765 28.3452C149.327 28.6007 148.981 28.9656 148.725 29.44C148.47 29.9144 148.342 30.4617 148.342 31.0821C148.342 31.6842 148.46 32.2225 148.697 32.6969C148.953 33.1712 149.309 33.5453 149.765 33.819C150.221 34.0927 150.732 34.2295 151.298 34.2295Z" fill="#5F2DEE"/>
<path d="M163.863 36.9461C164.586 37.1353 165.316 37.2298 166.055 37.2298C167.62 37.2298 168.858 36.8688 169.77 36.1465C170.698 35.4244 171.162 34.4529 171.162 33.232C171.162 32.441 171.017 31.8047 170.724 31.3233C170.432 30.8247 170.054 30.4292 169.589 30.1368C169.125 29.8445 168.634 29.6123 168.119 29.4404C167.603 29.2684 167.113 29.1223 166.649 29.0019C166.185 28.8815 165.806 28.744 165.514 28.5892C165.222 28.4345 165.075 28.2281 165.075 27.9702C165.075 27.7295 165.187 27.5489 165.41 27.4285C165.634 27.291 165.969 27.2223 166.416 27.2223C166.881 27.2223 167.353 27.3168 167.835 27.506C168.333 27.6951 168.781 28.0219 169.176 28.4861L171.42 26.2163C170.853 25.4941 170.114 24.9524 169.202 24.5914C168.308 24.2131 167.328 24.0239 166.262 24.0239C165.248 24.0239 164.362 24.1959 163.605 24.5397C162.848 24.8837 162.263 25.3566 161.851 25.9584C161.439 26.543 161.232 27.2394 161.232 28.0476C161.232 28.8042 161.379 29.4318 161.671 29.9305C161.963 30.4119 162.342 30.7903 162.805 31.0653C163.27 31.3405 163.76 31.5555 164.276 31.7101C164.791 31.8649 165.282 32.0111 165.746 32.1487C166.21 32.2691 166.589 32.4152 166.881 32.5872C167.191 32.7419 167.345 32.9741 167.345 33.2835C167.345 33.5243 167.216 33.7134 166.958 33.851C166.717 33.9885 166.365 34.0573 165.901 34.0573C165.23 34.0573 164.611 33.937 164.044 33.6962C163.476 33.4383 162.986 33.0858 162.573 32.6387L160.329 34.9085C160.76 35.3727 161.275 35.7855 161.877 36.1465C162.496 36.4904 163.158 36.7569 163.863 36.9461Z" fill="#5F2DEE"/>
<path d="M180.104 37.1991C178.96 37.1991 177.944 36.9685 177.056 36.5075C176.184 36.0293 175.502 35.3803 175.007 34.5606C174.511 33.7238 174.263 32.7675 174.263 31.6916V24.4678H178.183V31.6403C178.183 32.0673 178.251 32.4345 178.388 32.7418C178.541 33.0493 178.763 33.2884 179.053 33.4591C179.344 33.6299 179.694 33.7153 180.104 33.7153C180.684 33.7153 181.146 33.5359 181.487 33.1773C181.829 32.8016 181.999 32.2893 181.999 31.6403V24.4678H185.919V31.666C185.919 32.7589 185.672 33.7238 185.176 34.5606C184.68 35.3803 183.998 36.0293 183.126 36.5075C182.255 36.9685 181.248 37.1991 180.104 37.1991Z" fill="#5F2DEE"/>
<path d="M194.073 24.406H190.156V36.8497H194.073V29.578C194.073 29.1513 194.159 28.7929 194.329 28.5027C194.518 28.2125 194.765 27.9906 195.072 27.837C195.38 27.6662 195.729 27.5809 196.122 27.5809C196.685 27.5809 197.154 27.7601 197.53 28.1186C197.923 28.46 198.119 28.9465 198.119 29.578V36.8497H202.037V29.578C202.037 29.1513 202.122 28.7929 202.293 28.5027C202.481 28.2125 202.728 27.9906 203.035 27.837C203.342 27.6662 203.693 27.5809 204.085 27.5809C204.649 27.5809 205.118 27.7601 205.493 28.1186C205.886 28.46 206.082 28.9465 206.082 29.578V36.8497H210V29.1428C210 28.1016 209.778 27.2139 209.334 26.4799C208.907 25.7288 208.318 25.157 207.567 24.7645C206.833 24.3547 205.988 24.1499 205.032 24.1499C204.059 24.1499 203.18 24.3633 202.395 24.7901C201.885 25.0619 201.439 25.4128 201.057 25.8427C200.701 25.393 200.269 25.0251 199.757 24.7388C199.075 24.3463 198.299 24.1499 197.428 24.1499C196.506 24.1499 195.679 24.3463 194.945 24.7388C194.625 24.9021 194.335 25.0978 194.073 25.3257V24.406Z" fill="#5F2DEE"/>
</svg>
