<svg width="1440" height="794" viewBox="0 0 1440 794" fill="none" xmlns="http://www.w3.org/2000/svg">
<path opacity="0.5" fill-rule="evenodd" clip-rule="evenodd" d="M500.344 678.787L506.203 678.552L512.723 677.361L506.92 677.882L500.344 678.787ZM485.384 680.841L493.132 680.941L501.955 679.328C499.341 679.433 496.725 679.539 494.115 679.641L485.384 680.841ZM475.431 680.707L481.331 680.787L487.879 679.888L481.991 680.12L475.431 680.707ZM469.169 680.623L469.501 680.626L469.856 680.595L469.169 680.623ZM471.505 682.741C474.354 682.938 477.212 683.133 480.07 683.329C483.382 682.726 486.702 682.116 490.016 681.512C487.119 681.474 484.229 681.435 481.335 681.396L471.505 682.741ZM460.885 682.001L468.555 682.534L477.283 681.34C474.687 681.306 472.089 681.271 469.498 681.234L460.885 682.001ZM451.121 681.317L457.049 681.733L463.588 681.153L457.652 681.066L451.121 681.317ZM444.98 680.88L445.567 680.923L446.178 680.898L444.98 680.88ZM458.098 684.573C461.052 684.953 464.009 685.33 466.972 685.709C470.527 685.061 474.076 684.418 477.634 683.771C474.603 683.564 471.576 683.354 468.553 683.144L458.098 684.573ZM447.393 683.197C450.188 683.559 452.993 683.918 455.797 684.278L465.602 682.939C462.746 682.741 459.889 682.543 457.04 682.342L447.393 683.197ZM437.041 681.852L444.606 682.835L453.209 682.075C450.648 681.894 448.095 681.712 445.538 681.53L437.041 681.852ZM427.537 680.61C429.497 680.867 431.456 681.124 433.42 681.38L439.962 681.136C437.974 680.995 435.986 680.853 434.002 680.711L427.537 680.61ZM421.386 679.8L422.267 679.917L423.208 679.933L421.386 679.8ZM444.94 686.366C447.931 686.937 450.929 687.509 453.925 688.079L464.98 686.071C461.906 685.678 458.841 685.283 455.775 684.889L444.94 686.366ZM434.353 684.347C437.245 684.904 440.166 685.456 443.076 686.01L453.474 684.594C450.504 684.211 447.536 683.828 444.574 683.446L434.353 684.347ZM423.966 682.342C426.7 682.871 429.429 683.403 432.172 683.932L441.787 683.083C438.979 682.718 436.171 682.354 433.371 681.989L423.966 682.342ZM413.945 680.388L421.358 681.832C424.154 681.728 426.962 681.622 429.763 681.518L422.211 680.525C419.451 680.481 416.701 680.434 413.945 680.388ZM404.675 678.582C406.621 678.964 408.579 679.344 410.533 679.723L416.915 679.829C414.941 679.569 412.974 679.307 411.003 679.046L404.675 678.582ZM398.567 677.391L399.659 677.604L400.77 677.685L398.567 677.391ZM431.837 688.147C434.831 688.918 437.833 689.687 440.843 690.456C444.643 689.767 448.453 689.073 452.256 688.382C449.184 687.796 446.106 687.212 443.04 686.624L431.837 688.147ZM421.523 685.475C424.448 686.232 427.365 686.991 430.293 687.748C433.92 687.255 437.546 686.764 441.176 686.27C438.156 685.695 435.123 685.123 432.124 684.544L421.523 685.475ZM411.246 682.812C414.075 683.55 416.922 684.285 419.767 685.02L429.943 684.128C427.05 683.568 424.18 683.003 421.29 682.442C417.937 682.566 414.593 682.689 411.246 682.812ZM401.171 680.174C403.846 680.875 406.512 681.58 409.196 682.28C412.357 682.164 415.511 682.05 418.679 681.933C415.935 681.399 413.195 680.865 410.458 680.331C407.361 680.279 404.263 680.228 401.171 680.174ZM391.428 677.602L398.703 679.523L407.046 679.665C404.548 679.181 402.043 678.695 399.563 678.207C396.844 678.006 394.14 677.803 391.428 677.602ZM382.402 675.218C384.332 675.73 386.273 676.241 388.211 676.752L394.556 677.224C392.635 676.844 390.733 676.462 388.813 676.081C386.675 675.793 384.536 675.506 382.402 675.218ZM376.153 673.561C376.641 673.691 377.12 673.821 377.608 673.951L379.2 674.168L376.153 673.561ZM418.87 689.907C421.838 690.879 424.8 691.852 427.772 692.824L439.398 690.72C436.335 689.937 433.29 689.149 430.24 688.365C426.45 688.879 422.658 689.394 418.87 689.907ZM408.757 686.593C411.674 687.556 414.619 688.515 417.556 689.476L428.696 687.964C425.693 687.188 422.702 686.411 419.704 685.634L408.757 686.593ZM398.751 683.27C401.6 684.217 404.434 685.166 407.29 686.112C410.839 685.804 414.395 685.49 417.948 685.179C414.999 684.417 412.045 683.655 409.113 682.891C405.658 683.016 402.2 683.145 398.751 683.27ZM388.834 679.957C391.59 680.88 394.349 681.802 397.114 682.723C400.424 682.603 403.747 682.479 407.063 682.358C404.235 681.617 401.435 680.871 398.611 680.129C395.348 680.074 392.09 680.016 388.834 679.957ZM378.994 676.673C381.614 677.557 384.266 678.435 386.908 679.316L396.141 679.477C393.458 678.77 390.778 678.062 388.099 677.353C385.063 677.126 382.024 676.901 378.994 676.673ZM369.606 673.481C371.971 674.283 374.324 675.085 376.685 675.887L384.883 676.504C382.412 675.853 379.938 675.203 377.487 674.549C374.858 674.194 372.228 673.839 369.606 673.481ZM360.864 670.507C362.765 671.155 364.672 671.804 366.579 672.452C368.671 672.737 370.767 673.021 372.861 673.307C370.952 672.792 369.04 672.278 367.124 671.763C365.038 671.345 362.944 670.927 360.864 670.507ZM354.821 668.454C355.315 668.623 355.813 668.791 356.309 668.96L357.913 669.286C356.884 669.008 355.849 668.731 354.821 668.454ZM405.927 691.656C408.848 692.834 411.744 694.013 414.673 695.189C418.619 694.476 422.558 693.767 426.507 693.052C423.496 692.067 420.49 691.081 417.482 690.096L405.927 691.656ZM396.119 687.692C399.005 688.862 401.898 690.032 404.797 691.2C408.587 690.688 412.373 690.178 416.167 689.664C413.177 688.686 410.175 687.709 407.207 686.728C403.505 687.051 399.814 687.371 396.119 687.692ZM386.329 683.716C389.166 684.877 392.023 686.034 394.88 687.191C398.501 686.877 402.116 686.564 405.742 686.247C402.819 685.278 399.927 684.303 397.011 683.334C393.444 683.463 389.889 683.59 386.329 683.716ZM376.673 679.738C379.442 680.878 382.199 682.021 384.974 683.159C388.441 683.035 391.901 682.913 395.374 682.786C392.511 681.834 389.648 680.878 386.796 679.923C383.416 679.863 380.044 679.8 376.673 679.738ZM367.033 675.769C369.716 676.88 372.423 677.991 375.124 679.101C378.372 679.161 381.616 679.221 384.871 679.28C382.092 678.35 379.312 677.42 376.55 676.489C373.374 676.249 370.201 676.009 367.033 675.769ZM357.599 671.836C360.141 672.897 362.669 673.961 365.219 675.021C368.221 675.249 371.233 675.475 374.241 675.703C371.634 674.818 369.035 673.931 366.429 673.047C363.481 672.644 360.541 672.241 357.599 671.836ZM348.399 667.975C350.737 668.959 353.077 669.939 355.42 670.922C358.074 671.287 360.735 671.651 363.396 672.015C360.973 671.194 358.548 670.371 356.141 669.548C353.553 669.026 350.982 668.5 348.399 667.975ZM339.82 664.375C341.708 665.174 343.617 665.971 345.522 666.768C347.553 667.181 349.585 667.595 351.621 668.007C349.768 667.369 347.938 666.73 346.087 666.092C343.988 665.52 341.914 664.946 339.82 664.375ZM334.15 661.96C334.65 662.173 335.145 662.386 335.643 662.598L337.322 663.057C336.266 662.693 335.205 662.326 334.15 661.96ZM393.02 693.4C395.88 694.783 398.77 696.159 401.648 697.54C405.609 696.826 409.575 696.109 413.54 695.393C410.581 694.204 407.657 693.011 404.705 691.822C400.81 692.348 396.911 692.875 393.02 693.4ZM383.506 688.789C386.338 690.169 389.18 691.547 392.03 692.924C395.874 692.407 399.727 691.885 403.574 691.365C400.636 690.18 397.701 688.996 394.776 687.809C391.019 688.135 387.257 688.464 383.506 688.789ZM374.046 684.156C376.842 685.529 379.641 686.901 382.449 688.272C386.14 687.952 389.841 687.63 393.537 687.308C390.635 686.13 387.738 684.95 384.853 683.771C381.249 683.899 377.641 684.028 374.046 684.156ZM364.565 679.514C367.317 680.875 370.114 682.232 372.891 683.591C376.42 683.466 379.963 683.339 383.499 683.211C380.655 682.045 377.827 680.875 374.992 679.708C371.515 679.644 368.034 679.581 364.565 679.514ZM355.248 674.866C357.932 676.205 360.598 677.544 363.289 678.882C366.668 678.946 370.058 679.008 373.444 679.07C370.648 677.921 367.843 676.772 365.068 675.62C361.788 675.37 358.52 675.118 355.248 674.866ZM345.962 670.229C348.564 671.536 351.185 672.841 353.804 674.146C356.954 674.388 360.098 674.631 363.255 674.871C360.577 673.753 357.929 672.632 355.254 671.514C352.151 671.087 349.056 670.658 345.962 670.229ZM336.795 665.618C339.274 666.872 341.761 668.126 344.256 669.379C347.195 669.786 350.128 670.194 353.075 670.601C350.493 669.519 347.911 668.437 345.341 667.354C342.494 666.774 339.632 666.198 336.795 665.618ZM327.984 661.133C330.241 662.283 332.496 663.432 334.757 664.581C337.314 665.104 339.899 665.624 342.463 666.146C340.113 665.157 337.775 664.167 335.441 663.175C332.953 662.496 330.463 661.815 327.984 661.133ZM319.719 656.927C321.565 657.873 323.43 658.819 325.292 659.762C327.291 660.313 329.309 660.862 331.313 661.412C329.528 660.648 327.737 659.884 325.949 659.121C323.859 658.391 321.803 657.657 319.719 656.927ZM314.319 654.151C314.773 654.384 315.22 654.62 315.675 654.855L317.322 655.433C316.322 655.006 315.313 654.579 314.319 654.151ZM380.133 695.133C382.931 696.725 385.757 698.311 388.583 699.899C392.589 699.177 396.613 698.449 400.623 697.726C397.718 696.334 394.803 694.944 391.92 693.549C387.985 694.078 384.06 694.604 380.133 695.133ZM370.954 689.87C373.729 691.46 376.486 693.051 379.27 694.64C383.155 694.117 387.036 693.597 390.927 693.073C388.049 691.68 385.187 690.285 382.326 688.89C378.53 689.219 374.744 689.544 370.954 689.87ZM361.74 684.587C364.486 686.174 367.262 687.757 370.031 689.341C373.777 689.018 377.519 688.697 381.268 688.373C378.423 686.983 375.585 685.593 372.751 684.202C369.074 684.333 365.411 684.458 361.74 684.587ZM352.623 679.283C355.33 680.86 358.023 682.439 360.744 684.015C364.361 683.889 367.971 683.765 371.596 683.637C368.773 682.254 365.935 680.874 363.137 679.488C359.624 679.422 356.126 679.352 352.623 679.283ZM343.541 673.965C346.203 675.528 348.871 677.091 351.548 678.652C354.989 678.72 358.421 678.789 361.87 678.854C359.115 677.485 356.381 676.113 353.634 674.742C350.266 674.484 346.898 674.225 343.541 673.965ZM334.47 668.633C337.078 670.178 339.71 671.719 342.338 673.261C345.617 673.516 348.903 673.768 352.189 674.023C349.479 672.672 346.762 671.322 344.072 669.969C340.868 669.524 337.664 669.079 334.47 668.633ZM325.58 663.32C328.097 664.823 330.602 666.327 333.125 667.829C336.201 668.259 339.281 668.688 342.365 669.116C339.751 667.799 337.157 666.481 334.556 665.163C331.559 664.549 328.566 663.935 325.58 663.32ZM316.743 658.038C319.141 659.481 321.565 660.922 323.983 662.365C326.83 662.952 329.663 663.54 332.519 664.125C330.031 662.862 327.547 661.6 325.071 660.336C322.292 659.57 319.512 658.804 316.743 658.038ZM308.226 652.88C310.407 654.202 312.568 655.528 314.756 656.85C317.299 657.555 319.827 658.262 322.379 658.965C320.059 657.784 317.74 656.604 315.44 655.42C313.033 654.573 310.624 653.727 308.226 652.88ZM300.358 648.082C302.139 649.169 303.925 650.258 305.71 651.345C307.648 652.031 309.603 652.715 311.546 653.4C309.741 652.463 307.933 651.526 306.126 650.589C304.198 649.753 302.279 648.917 300.358 648.082ZM295.067 644.854C295.559 645.157 296.058 645.459 296.553 645.761C297.091 645.997 297.635 646.23 298.173 646.465C297.139 645.929 296.096 645.392 295.067 644.854ZM367.307 696.857C370.031 698.654 372.751 700.452 375.495 702.247C379.547 701.518 383.585 700.798 387.64 700.068C384.796 698.469 381.958 696.869 379.139 695.267C375.195 695.797 371.247 696.328 367.307 696.857ZM358.411 690.949C361.12 692.749 363.822 694.55 366.543 696.349L378.279 694.773C375.471 693.17 372.688 691.565 369.89 689.962C366.062 690.292 362.232 690.621 358.411 690.949ZM349.488 685.015C352.169 686.817 354.89 688.613 357.6 690.411C361.384 690.086 365.176 689.759 368.968 689.433C366.169 687.831 363.36 686.232 360.586 684.627C356.887 684.755 353.179 684.887 349.488 685.015ZM340.703 679.049C343.352 680.846 345.977 682.644 348.638 684.437C352.281 684.312 355.938 684.183 359.589 684.056C356.836 682.458 354.116 680.857 351.375 679.258C347.817 679.19 344.252 679.12 340.703 679.049ZM331.875 673.055C334.494 674.845 337.137 676.633 339.778 678.421C343.279 678.492 346.791 678.56 350.3 678.629C347.576 677.039 344.857 675.448 342.15 673.856C338.721 673.59 335.296 673.323 331.875 673.055ZM323.147 667.05C325.716 668.821 328.277 670.594 330.861 672.366C334.218 672.629 337.582 672.891 340.948 673.153C338.264 671.575 335.585 669.997 332.92 668.417C329.66 667.961 326.399 667.507 323.147 667.05ZM314.455 661.014C316.975 662.769 319.501 664.524 322.036 666.277C325.208 666.723 328.394 667.168 331.575 667.613C328.963 666.057 326.366 664.499 323.763 662.943C320.65 662.302 317.556 661.656 314.455 661.014ZM305.798 654.987C308.237 656.701 310.71 658.413 313.174 660.126C316.17 660.747 319.161 661.368 322.166 661.989C319.613 660.465 317.048 658.943 314.52 657.418C311.6 656.609 308.705 655.796 305.798 654.987ZM297.459 649.071C299.751 650.694 302.03 652.32 304.327 653.942C307.072 654.709 309.812 655.476 312.567 656.24C310.189 654.797 307.835 653.349 305.46 651.906C302.79 650.961 300.118 650.017 297.459 649.071ZM289.246 643.243C291.354 644.749 293.484 646.254 295.611 647.759C298.055 648.63 300.491 649.501 302.943 650.371C300.719 649.017 298.494 647.665 296.284 646.309C293.942 645.287 291.578 644.266 289.246 643.243ZM281.604 637.756C283.324 638.993 285.022 640.233 286.747 641.47C288.657 642.31 290.562 643.149 292.479 643.99C290.684 642.884 288.917 641.779 287.13 640.674C285.283 639.702 283.444 638.729 281.604 637.756ZM276.565 634.102L278.097 635.214L279.778 636.101C278.709 635.435 277.632 634.769 276.565 634.102ZM354.485 698.571C357.132 700.576 359.758 702.586 362.422 704.589C366.487 703.861 370.551 703.133 374.621 702.402C371.862 700.597 369.134 698.786 366.393 696.979L354.485 698.571ZM345.887 692.021C348.519 694.032 351.154 696.043 353.804 698.053L365.629 696.47C362.888 694.659 360.164 692.846 357.439 691.032L345.887 692.021ZM337.29 685.43C339.899 687.446 342.534 689.46 345.17 691.474C348.986 691.148 352.805 690.821 356.627 690.495C353.898 688.68 351.162 686.868 348.459 685.049C344.729 685.179 341.013 685.303 337.29 685.43ZM328.803 678.803C331.385 680.819 333.95 682.836 336.545 684.849C340.232 684.723 343.914 684.599 347.608 684.473C344.921 682.657 342.265 680.841 339.588 679.026C335.986 678.953 332.396 678.879 328.803 678.803ZM320.268 672.14C322.823 674.155 325.419 676.167 328.002 678.179C331.554 678.252 335.103 678.326 338.664 678.398C335.989 676.586 333.307 674.774 330.655 672.958C327.187 672.686 323.727 672.414 320.268 672.14ZM311.864 665.456C314.38 667.457 316.868 669.462 319.398 671.461C322.809 671.732 326.218 672.002 329.64 672.27C327.016 670.469 324.424 668.665 321.814 666.861C318.49 666.394 315.177 665.925 311.864 665.456ZM303.46 658.735C305.938 660.727 308.43 662.717 310.928 664.707C314.181 665.168 317.437 665.629 320.7 666.088C318.104 664.292 315.516 662.497 312.937 660.699C309.781 660.044 306.606 659.392 303.46 658.735ZM295.115 652.008C297.533 653.972 299.968 655.933 302.407 657.893C305.476 658.534 308.577 659.171 311.657 659.81C309.121 658.043 306.587 656.275 304.072 654.505C301.089 653.673 298.085 652.842 295.115 652.008ZM286.914 645.295C289.255 647.212 291.589 649.13 293.941 651.048C296.811 651.854 299.719 652.657 302.6 653.462C300.173 651.747 297.761 650.03 295.344 648.313C292.523 647.308 289.723 646.301 286.914 645.295ZM278.722 638.588C280.961 640.44 283.238 642.289 285.504 644.14C288.164 645.094 290.824 646.048 293.495 647.001C291.146 645.338 288.787 643.676 286.463 642.012C283.869 640.871 281.302 639.729 278.722 638.588ZM271.054 632.181C273.039 633.838 275.001 635.496 276.988 637.153C279.34 638.194 281.688 639.236 284.051 640.277C281.96 638.768 279.887 637.255 277.799 635.745C275.557 634.556 273.284 633.37 271.054 632.181ZM263.734 626.047C265.398 627.448 267.073 628.849 268.748 630.249C270.593 631.234 272.44 632.219 274.291 633.204C272.589 631.971 270.881 630.739 269.19 629.507C267.356 628.355 265.559 627.2 263.734 626.047ZM258.478 621.644C259.047 622.125 259.626 622.606 260.2 623.088L261.791 624.095C260.68 623.279 259.586 622.461 258.478 621.644ZM341.673 700.283C344.239 702.497 346.779 704.716 349.365 706.929C353.438 706.202 357.524 705.466 361.602 704.736C358.925 702.722 356.294 700.701 353.633 698.685L341.673 700.283ZM333.385 693.086C335.936 695.309 338.494 697.532 341.065 699.753L352.953 698.167C350.287 696.145 347.632 694.121 344.986 692.098C341.116 692.427 337.249 692.758 333.385 693.086ZM325.106 685.844C327.635 688.075 330.191 690.303 332.748 692.531L344.269 691.551C341.618 689.522 338.971 687.494 336.345 685.462C332.599 685.589 328.844 685.719 325.106 685.844ZM316.933 678.556C319.44 680.79 321.928 683.026 324.451 685.259C328.16 685.134 331.883 685.007 335.601 684.881C332.983 682.85 330.395 680.817 327.791 678.784C324.168 678.709 320.546 678.633 316.933 678.556ZM308.708 671.223C311.191 673.461 313.719 675.695 316.233 677.931C319.813 678.009 323.399 678.084 326.99 678.157C324.379 676.124 321.753 674.091 319.171 672.054C315.681 671.777 312.188 671.501 308.708 671.223ZM300.621 663.858C303.07 666.09 305.491 668.323 307.956 670.553C311.397 670.828 314.849 671.101 318.301 671.375C315.743 669.348 313.231 667.317 310.686 665.288C307.325 664.813 303.972 664.336 300.621 663.858ZM292.522 656.446C294.942 658.674 297.381 660.901 299.823 663.128C303.127 663.599 306.434 664.071 309.75 664.54C307.208 662.517 304.669 660.491 302.15 658.463C298.933 657.792 295.728 657.119 292.522 656.446ZM284.47 649.005C286.847 651.216 289.236 653.425 291.635 655.635C294.788 656.298 297.933 656.96 301.098 657.621C298.608 655.616 296.135 653.611 293.665 651.604C290.585 650.739 287.538 649.872 284.47 649.005ZM276.575 641.593C278.882 643.761 281.182 645.929 283.502 648.096C286.505 648.944 289.476 649.796 292.491 650.644C290.056 648.658 287.635 646.672 285.214 644.685C282.339 643.654 279.438 642.625 276.575 641.593ZM268.611 634.114C270.867 636.259 273.17 638.4 275.457 640.542C278.22 641.54 281.026 642.534 283.804 643.531C281.422 641.582 279.032 639.633 276.678 637.683C273.991 636.494 271.285 635.305 268.611 634.114ZM260.959 626.754C263.084 628.793 265.186 630.834 267.315 632.874C269.856 634.007 272.437 635.138 274.99 636.27C272.794 634.435 270.614 632.6 268.423 630.767C265.921 629.429 263.448 628.091 260.959 626.754ZM253.464 619.537C255.407 621.421 257.37 623.303 259.331 625.187C261.592 626.403 263.848 627.619 266.117 628.834C264.026 627.087 261.929 625.34 259.86 623.591C257.727 622.24 255.586 620.888 253.464 619.537ZM246.593 612.848C248.152 614.375 249.703 615.901 251.274 617.428C252.987 618.522 254.728 619.615 256.45 620.708C254.829 619.328 253.232 617.946 251.614 616.564C249.945 615.326 248.254 614.087 246.593 612.848ZM242.071 608.385L243.441 609.737C244.025 610.174 244.594 610.612 245.179 611.048C244.145 610.161 243.101 609.273 242.071 608.385ZM328.867 701.987C331.348 704.412 333.809 706.84 336.312 709.262L348.589 707.068C345.995 704.845 343.449 702.615 340.872 700.387L328.867 701.987ZM320.9 694.144C323.367 696.579 325.834 699.016 328.321 701.449L340.263 699.86C337.68 697.626 335.105 695.392 332.544 693.156L320.9 694.144ZM312.925 686.247C315.372 688.695 317.853 691.139 320.33 693.584L331.905 692.602C329.336 690.361 326.772 688.118 324.228 685.873C320.453 685.999 316.692 686.122 312.925 686.247ZM305.079 678.299C307.503 680.753 309.903 683.208 312.345 685.66C316.086 685.535 319.823 685.413 323.573 685.288C321.032 683.039 318.524 680.786 315.999 678.535C312.355 678.458 308.714 678.379 305.079 678.299ZM297.179 670.297C299.583 672.759 302.032 675.218 304.466 677.677C308.071 677.757 311.684 677.834 315.299 677.912C312.765 675.656 310.211 673.402 307.708 671.143C304.192 670.862 300.684 670.58 297.179 670.297ZM289.408 662.254C291.781 664.713 294.132 667.175 296.524 669.634C299.997 669.914 303.473 670.194 306.955 670.472C304.468 668.219 302.033 665.961 299.56 663.706C296.172 663.223 292.785 662.739 289.408 662.254ZM281.626 654.144C283.979 656.61 286.346 659.076 288.722 661.539C292.062 662.019 295.411 662.498 298.762 662.976C296.285 660.719 293.81 658.46 291.357 656.201C288.103 655.517 284.868 654.829 281.626 654.144ZM273.887 646.004C276.201 648.458 278.535 650.91 280.875 653.362C284.071 654.037 287.262 654.713 290.47 655.388C288.034 653.142 285.618 650.894 283.205 648.646C280.092 647.766 276.988 646.885 273.887 646.004ZM266.285 637.855C268.549 640.284 270.802 642.714 273.083 645.142C276.126 646.008 279.181 646.873 282.238 647.738C279.863 645.52 277.505 643.3 275.148 641.082C272.174 640.007 269.245 638.93 266.285 637.855ZM258.613 629.634C260.836 632.048 263.11 634.459 265.365 636.871C268.254 637.92 271.115 638.971 274.017 640.02C271.666 637.812 269.307 635.605 266.986 633.395C264.177 632.143 261.409 630.888 258.613 629.634ZM251.244 621.53C253.357 623.85 255.439 626.172 257.562 628.493C260.276 629.711 262.963 630.931 265.691 632.149C263.446 629.997 261.225 627.846 258.987 625.694C256.409 624.306 253.808 622.919 251.244 621.53ZM243.844 613.377C245.885 615.645 247.952 617.912 250.015 620.178C252.445 621.496 254.917 622.811 257.36 624.127C255.205 622.058 253.043 619.99 250.915 617.92C248.545 616.405 246.201 614.892 243.844 613.377ZM236.713 605.415C238.559 607.486 240.395 609.557 242.256 611.628C244.424 613.024 246.561 614.421 248.741 615.818C246.832 613.947 244.959 612.076 243.056 610.206C240.925 608.609 238.831 607.011 236.713 605.415ZM230.241 598.086C231.726 599.768 233.213 601.454 234.701 603.136C236.395 604.415 238.083 605.696 239.785 606.976C238.201 605.414 236.611 603.852 235.04 602.29C233.428 600.89 231.843 599.487 230.241 598.086ZM225.724 592.97C226.179 593.489 226.641 594.01 227.099 594.528L228.329 595.606C227.453 594.726 226.597 593.849 225.724 592.97ZM316.068 703.685C318.459 706.319 320.846 708.954 323.265 711.583C327.369 710.853 331.464 710.125 335.575 709.393C333.064 706.96 330.599 704.522 328.109 702.087C324.091 702.623 320.079 703.153 316.068 703.685ZM308.427 695.196C310.807 697.845 313.179 700.494 315.578 703.141L327.562 701.551C325.065 699.105 322.583 696.659 320.107 694.211C316.208 694.542 312.318 694.868 308.427 695.196ZM300.754 686.649C303.113 689.311 305.525 691.97 307.918 694.63L319.537 693.651C317.05 691.193 314.561 688.736 312.103 686.275C308.319 686.399 304.531 686.525 300.754 686.649ZM293.242 678.036C295.582 680.709 297.884 683.387 300.239 686.059C303.995 685.937 307.761 685.811 311.524 685.687C309.068 683.22 306.651 680.749 304.212 678.281C300.55 678.202 296.896 678.118 293.242 678.036ZM285.679 669.364C287.998 672.05 290.353 674.733 292.701 677.415C296.33 677.497 299.959 677.579 303.599 677.659C301.147 675.18 298.678 672.703 296.257 670.223C292.725 669.937 289.2 669.651 285.679 669.364ZM278.216 660.64C280.507 663.33 282.79 666.02 285.105 668.706C288.6 668.991 292.096 669.276 295.603 669.559C293.192 667.08 290.831 664.595 288.438 662.114C285.025 661.623 281.616 661.133 278.216 660.64ZM270.784 651.854C273.054 654.549 275.329 657.245 277.622 659.939C280.99 660.427 284.371 660.913 287.751 661.399C285.35 658.907 282.953 656.416 280.577 653.923C277.316 653.232 274.034 652.545 270.784 651.854ZM263.356 643.013C265.595 645.708 267.872 648.4 270.142 651.093C273.355 651.777 276.602 652.457 279.827 653.139C277.461 650.656 275.108 648.171 272.767 645.687C269.633 644.795 266.477 643.906 263.356 643.013ZM256.081 634.142C258.28 636.822 260.458 639.502 262.673 642.182C265.755 643.064 268.866 643.944 271.962 644.824C269.64 642.351 267.34 639.876 265.036 637.402C262.047 636.315 259.056 635.23 256.081 634.142ZM248.744 625.194C250.91 627.869 253.122 630.542 255.321 633.215C258.241 634.282 261.183 635.349 264.118 636.416C261.811 633.946 259.489 631.477 257.215 629.005C254.386 627.736 251.557 626.466 248.744 625.194ZM241.613 616.281C243.705 618.899 245.766 621.517 247.874 624.134C250.634 625.381 253.414 626.627 256.188 627.874C253.997 625.476 251.837 623.076 249.657 620.677C246.955 619.213 244.297 617.746 241.613 616.281ZM234.501 607.341C236.53 609.913 238.582 612.482 240.635 615.052C243.231 616.47 245.802 617.889 248.412 619.307C246.228 616.908 244.036 614.509 241.88 612.108C239.413 610.519 236.952 608.931 234.501 607.341ZM227.55 598.493C229.463 600.947 231.381 603.4 233.316 605.853C235.63 607.356 237.963 608.857 240.291 610.358C238.279 608.105 236.306 605.85 234.305 603.596C232.055 601.895 229.785 600.194 227.55 598.493ZM220.946 589.94C222.676 592.185 224.406 594.43 226.146 596.674C228.177 598.222 230.25 599.77 232.293 601.319C230.421 599.203 228.547 597.09 226.693 594.975C224.782 593.297 222.844 591.619 220.946 589.94ZM214.601 581.719C216.042 583.611 217.516 585.503 218.982 587.394C220.495 588.736 222.031 590.077 223.552 591.419C222.038 589.688 220.556 587.956 219.054 586.223C217.576 584.722 216.072 583.22 214.601 581.719ZM210.509 576.284C210.925 576.833 211.333 577.385 211.745 577.933C212.301 578.504 212.841 579.075 213.398 579.645C212.438 578.524 211.467 577.404 210.509 576.284ZM303.272 705.38C305.573 708.223 307.89 711.065 310.226 713.904C314.333 713.175 318.447 712.441 322.559 711.71C320.132 709.069 317.743 706.425 315.343 703.782C311.319 704.315 307.292 704.849 303.272 705.38ZM295.967 696.243C298.256 699.105 300.524 701.969 302.832 704.828C306.833 704.3 310.845 703.767 314.854 703.236C312.445 700.579 310.062 697.919 307.674 695.259C303.77 695.587 299.863 695.917 295.967 696.243ZM288.606 687.039C290.876 689.92 293.204 692.795 295.51 695.672C299.389 695.348 303.278 695.02 307.165 694.693C304.762 692.02 302.346 689.348 299.977 686.673C296.181 686.798 292.395 686.918 288.606 687.039ZM281.418 677.768C283.665 680.66 285.866 683.557 288.133 686.448C291.908 686.327 295.68 686.206 299.463 686.083C297.095 683.396 294.778 680.706 292.428 678.017C288.756 677.935 285.081 677.853 281.418 677.768ZM274.199 668.426C276.428 671.335 278.682 674.242 280.94 677.149C284.579 677.234 288.236 677.315 291.886 677.397C289.524 674.698 287.151 671.996 284.818 669.294C281.277 669.005 277.732 668.717 274.199 668.426ZM267.036 659.017C269.243 661.938 271.461 664.857 273.695 667.775C277.204 668.064 280.725 668.35 284.246 668.637C281.916 665.93 279.627 663.22 277.32 660.511C273.883 660.016 270.46 659.515 267.036 659.017ZM259.959 649.542C262.14 652.47 264.315 655.399 266.519 658.325C269.918 658.82 273.315 659.317 276.726 659.81C274.413 657.092 272.115 654.371 269.826 651.65C266.528 650.949 263.246 650.245 259.959 649.542ZM252.822 639.977C254.983 642.919 257.207 645.858 259.403 648.798C262.663 649.496 265.912 650.194 269.184 650.891C266.894 648.168 264.602 645.444 262.341 642.721C259.151 641.808 255.998 640.892 252.822 639.977ZM245.921 630.42C248.034 633.339 250.113 636.259 252.244 639.175C255.383 640.08 258.503 640.986 261.658 641.889C259.413 639.174 257.202 636.457 254.975 633.74C251.95 632.634 248.93 631.528 245.921 630.42ZM238.94 620.755C241.029 623.681 243.158 626.606 245.278 629.531C248.251 630.625 251.227 631.719 254.215 632.812C251.978 630.089 249.719 627.367 247.514 624.642C244.649 623.347 241.79 622.051 238.94 620.755ZM232.1 611.078C234.135 613.97 236.158 616.862 238.216 619.754C241.026 621.032 243.834 622.311 246.658 623.588C244.503 620.907 242.398 618.222 240.257 615.54C237.535 614.053 234.807 612.566 232.1 611.078ZM225.331 601.385C227.314 604.242 229.308 607.098 231.315 609.954C233.955 611.406 236.623 612.858 239.278 614.31C237.153 611.648 235.024 608.987 232.926 606.324C230.39 604.679 227.851 603.033 225.331 601.385ZM218.566 591.611C220.49 594.421 222.438 597.231 224.391 600.04C226.835 601.638 229.282 603.237 231.741 604.835C229.724 602.266 227.737 599.696 225.737 597.125C223.327 595.287 220.961 593.45 218.566 591.611ZM212.101 582.041C213.896 584.7 215.684 587.36 217.491 590.019C219.767 591.769 222.014 593.521 224.305 595.271C222.383 592.79 220.465 590.309 218.561 587.828C216.386 585.898 214.258 583.97 212.101 582.041ZM205.634 572.467C207.301 574.974 209.013 577.481 210.713 579.987C212.653 581.724 214.578 583.462 216.532 585.199C214.78 582.917 213.042 580.636 211.314 578.354C209.401 576.391 207.53 574.43 205.634 572.467ZM200.008 563.899C201.28 565.834 202.531 567.767 203.801 569.7C205.334 571.291 206.862 572.883 208.406 574.474C207.117 572.749 205.821 571.025 204.531 569.301C203.005 567.5 201.524 565.7 200.008 563.899ZM196.572 558.642L197.223 559.638L197.864 560.404C197.428 559.816 197.005 559.229 196.572 558.642ZM290.475 707.068C292.683 710.122 294.94 713.172 297.192 716.222C301.301 715.495 305.431 714.756 309.544 714.024C307.203 711.175 304.884 708.324 302.575 705.471C298.537 706.006 294.508 706.536 290.475 707.068ZM283.508 697.281C285.702 700.357 287.864 703.436 290.078 706.51C294.096 705.981 298.111 705.453 302.135 704.92C299.82 702.049 297.542 699.175 295.244 696.303C291.326 696.632 287.419 696.956 283.508 697.281ZM276.491 687.426C278.665 690.523 280.889 693.615 283.099 696.708C286.995 696.383 290.885 696.059 294.788 695.733C292.472 692.844 290.133 689.956 287.856 687.064C284.065 687.184 280.272 687.306 276.491 687.426ZM269.597 677.49C271.751 680.605 273.889 683.72 276.068 686.833C279.835 686.714 283.61 686.593 287.385 686.473C285.109 683.568 282.902 680.658 280.646 677.751C276.953 677.666 273.279 677.577 269.597 677.49ZM262.73 667.479C264.865 670.609 267.01 673.742 269.173 676.87C272.837 676.959 276.493 677.046 280.167 677.131C277.897 674.208 275.628 671.284 273.388 668.36C269.829 668.067 266.279 667.773 262.73 667.479ZM255.868 657.384C257.982 660.535 260.138 663.683 262.286 666.832C265.814 667.124 269.346 667.416 272.885 667.708C270.639 664.771 268.414 661.833 266.197 658.895C262.747 658.392 259.306 657.888 255.868 657.384ZM249.149 647.215C251.238 650.377 253.305 653.54 255.417 656.701C258.833 657.202 262.252 657.703 265.681 658.203C263.459 655.252 261.264 652.3 259.067 649.35C255.749 648.639 252.453 647.927 249.149 647.215ZM242.377 636.967C244.442 640.142 246.566 643.313 248.667 646.487C251.946 647.194 255.219 647.9 258.511 648.606C256.3 645.64 254.067 642.676 251.89 639.709C248.717 638.795 245.535 637.882 242.377 636.967ZM235.778 626.671C237.81 629.84 239.805 633.013 241.858 636.182C244.995 637.091 248.159 637.998 251.311 638.907C249.155 635.955 247.049 633 244.913 630.049C241.855 628.922 238.821 627.797 235.778 626.671ZM229.168 616.288C231.172 619.465 233.203 622.641 235.236 625.817C238.243 626.931 241.248 628.046 244.271 629.159C242.12 626.19 239.955 623.221 237.837 620.251C234.936 618.93 232.054 617.608 229.168 616.288ZM222.636 605.858C224.598 609.02 226.574 612.18 228.564 615.341C231.409 616.644 234.253 617.947 237.114 619.249C235.026 616.311 232.986 613.37 230.919 610.432C228.149 608.908 225.39 607.382 222.636 605.858ZM216.21 595.385C218.128 598.523 220.047 601.661 221.987 604.799C224.699 606.302 227.405 607.805 230.134 609.307C228.072 606.371 226.015 603.435 223.98 600.498C221.376 598.794 218.797 597.09 216.21 595.385ZM209.751 584.821C211.626 587.936 213.552 591.05 215.462 594.165C217.982 595.828 220.503 597.491 223.041 599.151C221.034 596.253 219.044 593.353 217.064 590.454C214.622 588.575 212.175 586.698 209.751 584.821ZM203.61 574.436C205.385 577.429 207.136 580.424 208.923 583.417C211.262 585.232 213.632 587.047 215.988 588.861C214.073 586.043 212.172 583.224 210.274 580.406C208.054 578.415 205.815 576.424 203.61 574.436ZM197.406 563.943C199.11 566.865 200.856 569.788 202.591 572.711C204.67 574.591 206.793 576.472 208.888 578.352C207.032 575.601 205.173 572.853 203.35 570.103C201.371 568.049 199.369 565.996 197.406 563.943ZM191.595 553.85C193.099 556.468 194.568 559.084 196.081 561.701C197.897 563.605 199.764 565.51 201.594 567.414C199.979 564.947 198.37 562.483 196.759 560.018C195.038 557.962 193.301 555.904 191.595 553.85ZM186.205 544.393C187.437 546.569 188.683 548.745 189.926 550.921C191.259 552.533 192.632 554.144 193.974 555.757C192.495 553.505 191.007 551.253 189.558 549.001C188.44 547.466 187.315 545.929 186.205 544.393ZM182.268 537.485C182.684 538.227 183.113 538.97 183.537 539.712C183.888 540.2 184.253 540.691 184.606 541.181C183.83 539.948 183.048 538.718 182.268 537.485ZM277.687 708.751C279.799 712.014 281.986 715.269 284.15 718.526C288.283 717.795 292.394 717.074 296.532 716.34C294.274 713.28 292.016 710.221 289.802 707.156C285.763 707.687 281.719 708.222 277.687 708.751ZM271.055 698.319C273.153 701.608 275.202 704.903 277.321 708.19C281.343 707.662 285.377 707.129 289.405 706.598C287.185 703.516 285.014 700.426 282.814 697.341C278.893 697.667 274.967 697.994 271.055 698.319ZM264.38 687.805C266.461 691.118 268.575 694.429 270.687 697.739C274.586 697.417 278.497 697.09 282.403 696.766C280.186 693.661 277.952 690.556 275.77 687.449C271.968 687.568 268.175 687.687 264.38 687.805ZM257.781 677.209C259.839 680.543 261.914 683.878 264.003 687.209C267.782 687.092 271.56 686.975 275.348 686.855C273.161 683.729 271.022 680.6 268.859 677.473C265.163 677.385 261.466 677.297 257.781 677.209ZM251.271 666.522C253.309 669.879 255.339 673.235 257.404 676.589C261.074 676.679 264.755 676.766 268.435 676.854C266.262 673.708 264.104 670.561 261.96 667.414C258.39 667.118 254.829 666.82 251.271 666.522ZM244.706 655.742C246.724 659.124 248.82 662.5 250.879 665.879C254.42 666.176 257.963 666.473 261.516 666.766C259.359 663.601 257.197 660.435 255.073 657.267C251.613 656.759 248.153 656.252 244.706 655.742ZM238.362 644.893C240.352 648.284 242.299 651.677 244.312 655.067C247.741 655.573 251.182 656.079 254.623 656.584C252.498 653.402 250.415 650.218 248.314 647.035C244.998 646.321 241.662 645.609 238.362 644.893ZM231.955 633.939C233.925 637.353 235.939 640.766 237.943 644.179C241.223 644.891 244.54 645.597 247.832 646.307C245.715 643.109 243.571 639.913 241.491 636.712C238.303 635.788 235.128 634.864 231.955 633.939ZM225.675 622.934C227.61 626.346 229.543 629.759 231.506 633.172C234.658 634.09 237.806 635.008 240.972 635.927C238.904 632.729 236.899 629.527 234.852 626.327C231.798 625.196 228.714 624.066 225.675 622.934ZM219.449 611.84C221.358 615.264 223.276 618.687 225.213 622.11C228.225 623.233 231.282 624.353 234.309 625.475C232.253 622.26 230.195 619.046 228.169 615.831C225.266 614.501 222.335 613.171 219.449 611.84ZM213.204 600.609C215.089 604.05 217.018 607.49 218.938 610.93C221.798 612.249 224.691 613.567 227.565 614.884C225.551 611.679 223.561 608.471 221.574 605.266C218.773 603.714 215.987 602.163 213.204 600.609ZM207.189 589.447C209.014 592.836 210.821 596.225 212.667 599.614C215.411 601.146 218.164 602.676 220.924 604.208C218.947 601.009 216.989 597.811 215.037 594.614C212.426 592.891 209.784 591.169 207.189 589.447ZM201.048 578.046C202.857 581.464 204.727 584.883 206.574 588.301C209.127 589.999 211.717 591.697 214.288 593.393C212.343 590.21 210.393 587.025 208.481 583.84C205.991 581.909 203.52 579.979 201.048 578.046ZM195.201 566.786C196.921 570.096 198.599 573.407 200.337 576.718C202.773 578.624 205.197 580.531 207.651 582.438C205.8 579.331 203.975 576.224 202.141 573.118C199.806 571.007 197.517 568.897 195.201 566.786ZM189.321 555.413C190.992 558.686 192.697 561.959 194.398 565.232C196.641 567.28 198.849 569.327 201.109 571.376C199.272 568.28 197.418 565.185 195.62 562.092C193.495 559.865 191.427 557.64 189.321 555.413ZM183.653 544.195C185.203 547.288 186.745 550.379 188.316 553.47C190.325 555.597 192.307 557.724 194.333 559.852C192.694 556.998 191.084 554.144 189.452 551.29C187.495 548.923 185.591 546.561 183.653 544.195ZM178.254 533.312C179.645 536.134 181.047 538.954 182.453 541.776C184.202 543.915 185.924 546.055 187.689 548.196C186.135 545.48 184.573 542.765 183.046 540.051C181.431 537.804 179.853 535.559 178.254 533.312ZM173.158 522.995C174.266 525.279 175.4 527.564 176.535 529.849C177.799 531.632 179.041 533.413 180.314 535.197C179.19 533.168 178.093 531.141 176.971 529.112C175.696 527.073 174.421 525.033 173.158 522.995ZM170.222 516.831C170.39 517.179 170.555 517.529 170.72 517.878C170.971 518.285 171.218 518.691 171.468 519.099C171.056 518.343 170.633 517.586 170.222 516.831ZM531.781 675.027L538.274 673.555L532.392 674.37L525.915 675.56L531.781 675.027ZM518.367 678.062L527.295 676.042L519.314 676.765L510.48 678.38L518.367 678.062ZM504.973 681.09L515.096 678.802C512.137 678.922 509.187 679.038 506.233 679.158L496.258 680.982C499.162 681.018 502.065 681.054 504.973 681.09ZM491.567 684.116L502.418 681.667C499.323 681.629 496.231 681.59 493.141 681.551C489.597 682.198 486.045 682.849 482.503 683.495C485.525 683.702 488.539 683.911 491.567 684.116ZM478.174 687.133L489.489 684.584C486.345 684.37 483.211 684.154 480.074 683.938C476.361 684.616 472.659 685.284 468.95 685.96C472.02 686.352 475.093 686.743 478.174 687.133ZM464.783 690.146L476.427 687.527C473.266 687.126 470.109 686.724 466.957 686.322L455.564 688.393C458.633 688.978 461.695 689.564 464.783 690.146ZM451.427 693.146L463.279 690.485C460.134 689.891 457.021 689.293 453.896 688.695C450.013 689.4 446.124 690.11 442.244 690.813C445.3 691.592 448.365 692.368 451.427 693.146ZM438.026 696.152C442.052 695.25 446.082 694.345 450.111 693.442C447.008 692.652 443.895 691.866 440.799 691.075L428.973 693.218C431.979 694.198 435.003 695.175 438.026 696.152ZM424.655 699.145C428.719 698.236 432.782 697.328 436.849 696.417C433.793 695.427 430.746 694.437 427.708 693.446C423.711 694.169 419.724 694.888 415.731 695.608C418.688 696.79 421.684 697.965 424.655 699.145ZM411.243 702.145C415.358 701.226 419.476 700.303 423.595 699.382C420.599 698.192 417.573 697.005 414.591 695.814C410.583 696.537 406.575 697.261 402.572 697.983C405.463 699.371 408.333 700.76 411.243 702.145ZM397.891 705.122C402.02 704.202 406.148 703.283 410.28 702.36C407.349 700.966 404.458 699.565 401.546 698.168C397.503 698.897 393.446 699.633 389.405 700.36C392.231 701.947 395.054 703.536 397.891 705.122ZM384.522 708.102C388.679 707.177 392.839 706.249 397 705.321C394.147 703.726 391.304 702.128 388.463 700.531C384.378 701.266 380.313 701.991 376.231 702.724C378.981 704.519 381.757 706.309 384.522 708.102ZM371.149 711.075C375.328 710.147 379.507 709.218 383.691 708.286C380.912 706.484 378.119 704.684 375.357 702.88C371.263 703.615 367.174 704.347 363.083 705.08C365.75 707.08 368.461 709.076 371.149 711.075ZM357.78 714.044C361.972 713.114 366.169 712.181 370.366 711.249C367.667 709.242 364.941 707.238 362.264 705.229C358.163 705.963 354.055 706.7 349.96 707.434C352.543 709.639 355.175 711.839 357.78 714.044ZM344.412 717.004L357.035 714.208C354.422 711.995 351.777 709.786 349.185 707.573L336.851 709.775C339.349 712.188 341.892 714.595 344.412 717.004ZM331.046 719.96L343.701 717.162C341.173 714.744 338.617 712.329 336.112 709.906C331.984 710.643 327.873 711.373 323.75 712.106C326.164 714.726 328.612 717.342 331.046 719.96ZM317.681 722.91C321.905 721.98 326.135 721.045 330.363 720.111C327.923 717.485 325.464 714.86 323.045 712.232C318.917 712.968 314.789 713.703 310.666 714.434C312.993 717.262 315.334 720.088 317.681 722.91ZM304.312 725.856C308.547 724.924 312.781 723.993 317.02 723.057C314.668 720.225 312.317 717.392 309.984 714.556C305.858 715.291 301.712 716.032 297.591 716.761C299.829 719.793 302.058 722.827 304.312 725.856ZM290.942 728.797C295.181 727.866 299.427 726.931 303.671 725.997C301.41 722.959 299.173 719.919 296.93 716.88C292.78 717.614 288.655 718.339 284.511 719.072C286.66 722.314 288.775 725.558 290.942 728.797ZM1378.14 477.774C1128.97 537.103 850.74 603.098 572.827 666.324C836.873 617.648 1103.84 566.236 1349.76 518.875L1378.14 513.409V514.022L1349.83 519.474C1099.53 567.677 827.447 620.072 558.813 669.513L552.145 671.025C828.999 632.635 1112.97 590.736 1378.14 551.399V552.007C1110.76 591.671 824.272 633.941 545.251 672.589L536.315 674.616C813.655 649.42 1102.25 620.211 1378.14 591.043V591.651C1100.76 620.977 810.546 650.342 531.842 675.63C528.458 676.397 525.074 677.161 521.69 677.927C798.604 666.668 1091.21 650.897 1378.14 632.255V632.863C1090.08 651.577 796.302 667.401 518.42 678.666C514.8 679.485 511.18 680.304 507.56 681.122C777.916 684.403 1067.9 682.848 1360.41 675.399C1366.36 675.246 1372.26 675.188 1378.14 675.171V675.781C1372.26 675.798 1366.35 675.856 1360.4 676.008C1066.98 683.48 776.091 685.022 505.005 681.698C501.226 682.554 497.448 683.405 493.67 684.257C757.172 702.103 1044.21 714.805 1342 718.586C1354.21 718.741 1366.25 719.182 1378.14 719.85V720.461C1366.24 719.791 1354.19 719.351 1341.97 719.196C1043.42 715.405 755.66 702.646 491.588 684.727L479.927 687.355C736.529 719.778 1082.42 13.6808 1385.46 28.7021C1404 29.6206 1422.18 31.0893 1440 33.0769V33.6921C1422.16 31.7011 1403.97 30.2304 1385.41 29.3096C1081.7 14.2542 735.229 720.266 478.176 687.748L466.28 690.425C715.952 737.433 1058.79 45.6203 1367.06 71.8909C1392.03 74.0193 1416.33 77.0567 1440 80.9275V81.547C1416.31 77.6695 1391.99 74.6273 1366.99 72.4965C1058.13 46.1745 714.803 737.883 464.77 690.765L452.713 693.473C695.434 755.072 1035.18 77.5543 1348.65 115.08C1380.15 118.851 1410.58 123.922 1440 130.174V130.798C1410.55 124.536 1380.1 119.457 1348.57 115.683C1034.57 78.0942 694.412 755.489 451.398 693.768C447.316 694.685 443.234 695.6 439.154 696.515C674.905 772.709 1011.58 109.486 1330.25 158.269C1368.37 164.105 1404.93 171.635 1440 180.705V181.335C1404.9 172.251 1368.31 164.712 1330.15 158.87C1011 110.014 673.97 773.105 437.98 696.779C433.866 697.701 429.758 698.62 425.648 699.539C654.419 790.334 987.987 141.412 1311.85 201.458C1356.69 209.773 1399.37 220.159 1440 232.432V233.073C1399.34 220.781 1356.62 210.38 1311.73 202.058C987.43 141.931 653.559 790.709 424.588 699.777C420.431 700.707 416.273 701.639 412.119 702.565C633.897 807.962 964.402 173.339 1293.44 244.648C1345.12 255.848 1393.91 269.493 1440 285.311V285.957C1393.88 270.117 1345.04 256.455 1293.31 245.243C963.864 173.847 633.102 808.319 411.156 702.781C406.994 703.71 402.836 704.636 398.676 705.563C613.458 825.568 940.815 205.26 1275.03 287.837C1333.66 302.323 1388.56 319.566 1440 339.22V339.874C1388.52 320.193 1333.57 302.928 1274.89 288.428C940.292 205.758 612.707 825.912 397.785 705.763C393.6 706.696 389.412 707.63 385.229 708.562C593.005 843.174 917.233 237.179 1256.63 331.028C1322.31 349.19 1383.32 370.35 1440 394.092V394.753C1383.28 370.981 1322.22 349.795 1256.47 331.616C916.724 237.673 592.293 843.508 384.397 708.747C380.191 709.683 375.989 710.616 371.787 711.55C572.553 860.774 893.653 269.097 1238.22 374.217C1311.08 396.443 1378.19 421.818 1440 449.86V450.53C1378.14 422.453 1310.97 397.05 1238.05 374.802C893.152 269.582 571.871 861.099 371.003 711.724C366.786 712.659 362.57 713.597 358.357 714.531C552.109 878.369 870.077 301.013 1219.82 417.407C1299.97 444.082 1373.17 473.96 1440 506.488V507.168C1373.12 474.602 1299.86 444.69 1219.63 417.989C869.581 301.491 551.45 878.688 357.613 714.696C353.384 715.633 349.159 716.569 344.934 717.505C531.667 895.962 846.498 332.927 1201.41 460.598C1288.99 492.101 1368.26 526.749 1440 563.91V564.598C1368.21 527.394 1288.88 492.71 1201.21 461.174C846.01 333.4 531.031 896.273 344.223 717.662C339.986 718.6 335.752 719.538 331.52 720.472C511.229 913.549 822.922 364.839 1183 503.788C1278.14 540.498 1363.47 580.15 1440 622.063V622.758C1363.42 580.801 1278.02 541.105 1182.79 504.359C822.437 365.306 510.612 913.853 330.838 720.622C326.594 721.56 322.35 722.498 318.112 723.433C490.794 931.13 799.346 396.747 1164.6 546.976C1255.99 584.568 1338.36 624.209 1412.56 665.391H1411.3C1337.37 624.413 1255.35 584.964 1164.38 547.545C798.864 397.21 490.189 931.43 317.45 723.578C313.198 724.515 308.951 725.451 304.703 726.386C470.356 948.707 775.771 428.655 1146.19 590.167C1202.54 614.736 1255.45 639.844 1305.14 665.391H1303.82C1254.44 640.038 1201.89 615.119 1145.96 590.732C775.29 429.113 469.762 949.003 304.061 726.527C299.804 727.463 295.547 728.401 291.297 729.335C449.915 966.285 752.196 460.564 1127.78 633.358C1150.88 643.986 1173.39 654.665 1195.36 665.392H1193.98C1172.38 654.854 1150.24 644.36 1127.54 633.917C751.717 461.013 449.332 966.575 290.671 729.474C191.991 751.148 94.6447 772.05 0.000488281 791.739V791.124C94.5299 771.459 191.756 750.584 290.314 728.937C288.143 725.689 286.022 722.436 283.866 719.187C187.187 736.283 92.1503 752.649 0 767.929V767.322C92.0349 752.059 186.95 735.716 283.506 718.641C281.336 715.376 279.141 712.111 277.025 708.839C182.349 721.275 89.6317 733.023 0 743.817V743.207C89.5225 732.424 182.117 720.693 276.665 708.276C274.54 704.98 272.484 701.674 270.38 698.375C177.627 706.06 87.168 713.103 0 719.336V718.727C87.0541 712.502 177.39 705.469 270.012 697.796C267.894 694.474 265.77 691.152 263.685 687.828C172.86 690.649 84.6772 692.878 0 694.449V693.843C84.5586 692.275 172.615 690.049 263.308 687.233C261.212 683.886 259.135 680.539 257.07 677.192C168.121 675.027 82.1913 672.318 0.000488281 669.111V668.501C82.0741 671.704 167.88 674.409 256.693 676.574C254.62 673.204 252.578 669.833 250.532 666.462C206.767 662.793 163.855 659.003 121.888 655.108C80.3179 651.25 39.666 647.293 0 643.253V642.641C39.6897 646.682 80.3651 650.644 121.961 654.505C163.779 658.386 206.536 662.162 250.14 665.818C248.073 662.423 245.974 659.03 243.948 655.631C239.868 655.027 235.792 654.424 231.729 653.82C150.859 641.775 73.5066 629.352 0 616.805V616.187C73.5374 628.739 150.924 641.169 231.832 653.219C235.728 653.8 239.64 654.378 243.553 654.956C241.53 651.548 239.569 648.136 237.571 644.725C153.981 626.598 74.7292 608.099 0 589.673V589.046C74.6025 607.443 153.715 625.912 237.151 644.011C235.133 640.573 233.103 637.136 231.12 633.697C149.234 609.819 72.2036 585.634 0 561.755V561.112C72.0698 584.95 148.952 609.092 230.671 632.928C228.695 629.492 226.76 626.053 224.811 622.614C144.531 592.686 69.6841 562.521 0.00146484 532.925V532.26C69.547 561.802 144.241 591.912 224.348 621.785C222.392 618.329 220.451 614.87 218.526 611.412C139.784 575.09 67.1249 538.608 0.00146484 502.995V502.304C66.9769 537.845 139.467 574.252 218.014 610.502C216.078 607.025 214.142 603.55 212.241 600.074C134.973 556.941 64.5151 513.735 0.00146484 471.748V471.025C64.3629 512.92 134.644 556.033 211.704 599.079C209.827 595.633 207.986 592.186 206.134 588.739C130.17 538.245 61.8822 487.776 0.000976562 438.943V438.17C61.7115 486.88 129.797 537.222 205.517 587.594C203.635 584.106 201.722 580.617 199.881 577.13C125.174 518.666 59.1278 460.341 0.00146484 404.158V403.328C58.9478 459.359 124.775 517.523 199.211 575.833C197.431 572.431 195.698 569.028 193.933 565.626C120.197 498.285 56.3403 431.216 0.00146484 366.92V366.013C56.1305 430.097 119.727 496.943 193.131 564.072C191.359 560.664 189.578 557.253 187.842 553.844C114.928 476.586 53.3652 399.761 0.00146484 326.518V325.509C53.1123 398.447 114.352 474.948 186.838 551.901C185.192 548.642 183.593 545.385 181.965 542.126C109.478 453.404 50.2365 365.317 0.00146484 281.899V280.756C49.9496 363.76 108.809 451.403 180.764 539.706C179.179 536.528 177.593 533.35 176.034 530.172C103.554 427.933 46.803 326.592 0.00146484 231.442V230.115C46.4192 324.581 102.636 425.175 174.316 526.708C172.93 523.868 171.581 521.028 170.214 518.188C96.9869 399.276 42.9581 281.623 0.00183105 172.448V170.849C42.4629 278.915 95.7549 395.328 167.777 513.071C166.702 510.812 165.618 508.554 164.552 506.297C89.2621 365.528 38.4565 226.557 0.00183105 99.8569V97.8585C37.5122 221.699 86.7949 357.334 159.21 494.95C79.1716 322.511 32.8188 152.772 0.00146484 2.71335V0C33.5688 153.933 81.3159 328.749 165.072 506.012C169.128 513.597 173.275 521.187 177.464 528.779C181.608 535.404 185.775 542.031 190.048 548.662C194.954 555.405 199.934 562.151 204.975 568.899C209.745 574.528 214.585 580.158 219.47 585.786C224.741 591.137 230.054 596.488 235.438 601.838C240.896 606.587 246.427 611.335 251.982 616.082C257.776 620.384 263.605 624.685 269.499 628.982C275.421 632.703 281.405 636.421 287.416 640.137C293.692 643.439 300.024 646.738 306.38 650.035C312.934 652.876 319.533 655.712 326.158 658.546C332.824 660.873 339.55 663.195 346.289 665.516C353.238 667.403 360.246 669.286 367.256 671.167C374.442 672.611 381.678 674.046 388.92 675.48C396.286 676.472 403.675 677.459 411.091 678.441C418.713 678.999 426.351 679.554 434.018 680.102C441.89 680.225 449.782 680.343 457.689 680.458C465.765 680.146 473.857 679.833 481.961 679.514C490.259 678.772 498.572 678.026 506.892 677.277C515.372 676.11 523.86 674.939 532.358 673.764C541.124 672.155 549.899 670.54 558.673 668.926C841.284 604.725 1124.74 537.491 1378.14 477.155V477.774Z" fill="white"/>
</svg>
