<svg width="60" height="60" viewBox="0 0 60 60" fill="none" xmlns="http://www.w3.org/2000/svg">
<rect width="60" height="60" rx="30" fill="#5F2DEE"/>
<path fill-rule="evenodd" clip-rule="evenodd" d="M22.2424 17.4346C22.7428 17.1496 23.3055 17 23.8777 17C24.46 17 25.0324 17.1549 25.5393 17.4497C25.5519 17.4569 25.5642 17.4645 25.5765 17.4722L40.7789 27.0758C41.2861 27.3412 41.7144 27.7435 42.0176 28.2402C42.3328 28.7565 42.5 29.3539 42.5 29.9637C42.5 30.5735 42.3328 31.1709 42.0176 31.6873C41.7148 32.1833 41.2873 32.5851 40.7808 32.8506L25.5799 42.5257C25.5666 42.5342 25.553 42.5424 25.5393 42.5502C25.0324 42.8452 24.46 43 23.8777 43C23.3055 43 22.7428 42.8503 22.2424 42.5654C21.7309 42.2959 21.2991 41.8896 20.9926 41.389C20.6807 40.8796 20.5104 40.2919 20.5003 39.6897L20.5 39.6687L20.5002 20.3103C20.5103 19.7082 20.6807 19.1205 20.9926 18.611C21.2991 18.1104 21.7308 17.7041 22.2424 17.4346ZM23.8777 19.4528C23.7064 19.4528 23.5379 19.4984 23.3887 19.5852C23.3712 19.5953 23.3535 19.6051 23.3355 19.6143C23.2018 19.6831 23.0889 19.7883 23.0093 19.9185C22.931 20.0463 22.8877 20.1934 22.8837 20.3443V39.6557C22.8877 39.8066 22.931 39.9538 23.0093 40.0815C23.0889 40.2116 23.2018 40.3168 23.3355 40.3857C23.3535 40.3949 23.3712 40.4047 23.3887 40.4149C23.5379 40.5016 23.7064 40.5472 23.8777 40.5472C24.0428 40.5472 24.2051 40.505 24.3501 40.4243L39.574 30.7347C39.6094 30.7121 39.646 30.6915 39.6836 30.6728C39.8133 30.6085 39.9227 30.5079 39.9994 30.3824C40.0758 30.257 40.1165 30.1119 40.1165 29.9637C40.1165 29.8156 40.0758 29.6704 39.9994 29.545C39.9227 29.4196 39.8133 29.3189 39.6836 29.2546C39.6472 29.2366 39.6117 29.2166 39.5774 29.1949L24.3515 19.5765C24.2062 19.4954 24.0433 19.4528 23.8777 19.4528Z" fill="white"/>
<path d="M23.8777 19.4528C23.7064 19.4528 23.5379 19.4984 23.3887 19.5852C23.3712 19.5953 23.3535 19.6051 23.3355 19.6143C23.2018 19.6831 23.0889 19.7883 23.0093 19.9185C22.931 20.0463 22.8877 20.1934 22.8837 20.3443V39.6557C22.8877 39.8066 22.931 39.9538 23.0093 40.0815C23.0889 40.2116 23.2018 40.3168 23.3355 40.3857C23.3535 40.3949 23.3712 40.4047 23.3887 40.4149C23.5379 40.5016 23.7064 40.5472 23.8777 40.5472C24.0428 40.5472 24.2051 40.505 24.3501 40.4243L39.574 30.7347C39.6094 30.7121 39.646 30.6915 39.6836 30.6728C39.8133 30.6085 39.9227 30.5079 39.9994 30.3824C40.0758 30.257 40.1165 30.1119 40.1165 29.9637C40.1165 29.8156 40.0758 29.6704 39.9994 29.545C39.9227 29.4196 39.8133 29.3189 39.6836 29.2546C39.6472 29.2366 39.6117 29.2166 39.5774 29.1949L24.3515 19.5765C24.2062 19.4954 24.0433 19.4528 23.8777 19.4528Z" fill="white"/>
</svg>
