<svg width="64" height="64" viewBox="0 0 64 64" fill="none" xmlns="http://www.w3.org/2000/svg">
<rect x="4" y="4" width="60" height="60" rx="30" fill="#5F2DEE"/>
<path fill-rule="evenodd" clip-rule="evenodd" d="M18.3255 17.1277C17.548 17.4056 16.8907 17.9905 16.4771 18.7727C15.9684 19.7345 16.0004 18.9394 16.0004 30.616C16.0004 42.2925 15.9684 41.4975 16.4771 42.4592C16.8991 43.2573 17.5635 43.8354 18.3774 44.113C18.7299 44.2333 18.9941 44.2453 21.282 44.2453H23.7988L23.9855 44.0861C24.1205 43.9709 24.1821 43.8388 24.2084 43.6081C24.2405 43.3257 24.2203 43.2622 24.0315 43.0527L23.8184 42.8161L21.3336 42.7813C18.8967 42.7471 18.8436 42.7433 18.5898 42.5869C18.2329 42.3668 17.9122 41.9877 17.6953 41.5296L17.5124 41.143L17.4935 34.4329L17.4745 27.7228H32.7368H47.9991V31.2434V34.764H47.6804C47.3035 34.764 46.9938 34.8812 46.6824 35.1415L46.4558 35.3309L45.8385 35.0855L45.2212 34.84L45.1776 34.5006C45.1179 34.0348 44.9372 33.687 44.6114 33.4105C44.2112 33.071 43.8798 33.0036 42.7501 33.0317C41.8315 33.0546 41.7558 33.0672 41.4407 33.2509C41.0017 33.5067 40.6867 34.0296 40.6857 34.504C40.6852 34.8012 40.6644 34.8451 40.4917 34.9154C40.3854 34.9586 40.1029 35.0807 39.864 35.1866C39.4397 35.3748 39.4271 35.3762 39.3096 35.2474C38.9251 34.8263 38.023 34.6424 37.4654 34.8714C37.1528 34.9999 35.9454 36.1615 35.7655 36.5069C35.4639 37.0861 35.5337 37.7548 35.9526 38.2988L36.1924 38.6102L35.9449 39.1794L35.6975 39.7486L35.3555 39.7918C34.8936 39.8502 34.548 40.0236 34.2565 40.3435C33.934 40.6974 33.8642 40.9848 33.8638 41.9621L33.8634 42.7813H31.7501C29.4185 42.7813 29.3268 42.7961 29.1113 43.2092C28.978 43.4648 29.0215 43.8082 29.2178 44.0486L29.35 44.2104L32.5244 44.2453L35.6989 44.2801L35.9484 44.8894L36.198 45.4986L36.0046 45.726C35.7228 46.0572 35.6216 46.3478 35.6216 46.8253C35.6216 47.4102 35.7603 47.6397 36.6174 48.4722C37.2859 49.1215 37.3764 49.1854 37.74 49.2655C38.2559 49.3792 38.7366 49.2706 39.1706 48.9421C39.4848 48.7043 39.4892 48.7033 39.7134 48.8182C39.8377 48.882 40.0993 48.9879 40.2947 49.0536L40.6499 49.1731L40.6928 49.5622C40.7473 50.0566 41.0255 50.5339 41.4044 50.7826C41.6848 50.9668 41.7295 50.9735 42.819 50.9952C44.115 51.021 44.4009 50.9539 44.7695 50.5376C45.0576 50.2125 45.186 49.9008 45.186 49.5273V49.2277L45.8249 48.96L46.4638 48.6923L46.6513 48.866C46.9912 49.181 47.2974 49.2957 47.7936 49.2938C48.1634 49.2924 48.3186 49.2556 48.5672 49.1106C48.9331 48.897 49.9687 47.862 50.132 47.5466C50.418 46.9941 50.334 46.2622 49.9308 45.7953L49.6935 45.5205L49.9517 44.8829L50.2099 44.2453L50.5286 44.2437C51.1469 44.2407 51.7677 43.7895 51.9397 43.2182C51.9885 43.0561 52.0099 42.5393 51.9957 41.8687C51.9729 40.797 51.9697 40.7777 51.7665 40.4874C51.5009 40.1077 51.0607 39.8542 50.5826 39.8053L50.2058 39.7667L49.9524 39.1752L49.699 38.5838L49.9371 38.2745C50.2272 37.8979 50.3479 37.4864 50.296 37.0509C50.2479 36.6468 50.1348 36.425 49.7643 36.0082L49.4759 35.6838L49.4747 28.0258C49.4737 21.5416 49.4576 20.2933 49.3697 19.8819C49.1218 18.7217 48.4045 17.7506 47.4503 17.2831L46.9163 17.0215L32.8122 17.0062C18.9585 16.9913 18.7012 16.9934 18.3255 17.1277ZM46.8518 18.6594C47.2715 18.898 47.4912 19.1581 47.7677 19.7433L47.9639 20.1587L47.9856 23.2087L48.0072 26.2588H32.7394H17.4717L17.4921 23.1739L17.5124 20.089L17.7153 19.6535C17.9314 19.1896 18.3807 18.7185 18.7646 18.553C18.9538 18.4714 21.1615 18.4558 32.7382 18.4541L46.4871 18.452L46.8518 18.6594ZM21.6917 20.1434C20.929 20.4625 20.451 21.0087 20.2506 21.7901C19.9709 22.8804 20.5031 24.0221 21.5229 24.5195C21.8233 24.6661 21.972 24.6902 22.576 24.6902C23.1637 24.6902 23.3321 24.6644 23.601 24.533C24.124 24.2775 24.4838 23.9234 24.7355 23.4164C24.9435 22.9977 24.9668 22.8898 24.9645 22.3562C24.9626 21.8941 24.9271 21.6859 24.805 21.4191C24.5656 20.8962 24.2169 20.5228 23.7247 20.2622C23.3377 20.0574 23.2007 20.0233 22.6814 20.0029C22.1776 19.9831 22.0221 20.0052 21.6917 20.1434ZM27.9563 20.1007C27.3196 20.3215 26.893 20.7071 26.5423 21.3787C26.4051 21.6415 26.3782 21.7998 26.3766 22.3547C26.3743 23.1546 26.5223 23.5174 27.0763 24.0694C27.5815 24.5728 28.073 24.7482 28.8702 24.7092C29.5766 24.6747 30.0009 24.4922 30.471 24.0205C31.9574 22.5292 30.8629 19.9728 28.7445 19.9877C28.4849 19.9896 28.1301 20.0404 27.9563 20.1007ZM36.3476 20.0838C35.6778 20.2935 35.0959 20.8445 34.8435 21.5079C34.6416 22.0388 34.6745 22.9345 34.913 23.4004C35.1296 23.8233 35.5813 24.2786 36.0084 24.5043L36.36 24.6902L40.0871 24.71C44.2346 24.732 44.1965 24.7356 44.8453 24.2637C45.521 23.7724 45.9142 22.8 45.763 21.9942C45.6083 21.1694 45.1347 20.5407 44.4124 20.2011L44.0256 20.0193L40.3335 20.0056C37.4413 19.9949 36.5777 20.0118 36.3476 20.0838ZM23.0402 21.6062C23.1717 21.693 23.3387 21.8843 23.4114 22.0313C23.5775 22.3673 23.4932 22.7137 23.1707 23.0199C22.9852 23.1961 22.8985 23.2262 22.576 23.2262C22.2539 23.2262 22.1667 23.196 21.9823 23.021C21.7225 22.7742 21.6135 22.4339 21.6992 22.1375C21.7758 21.8726 21.882 21.7416 22.154 21.5768C22.4375 21.4049 22.7512 21.4153 23.0402 21.6062ZM29.1581 21.5564C29.6158 21.791 29.7967 22.4918 29.497 22.8696C29.0542 23.4276 28.2237 23.3611 27.9282 22.7439C27.7893 22.4536 27.7856 22.2649 27.9141 22.0201C28.1829 21.508 28.6928 21.3179 29.1581 21.5564ZM43.7767 21.5516C44.4517 21.8976 44.4517 22.8118 43.7767 23.1578C43.6073 23.2447 43.0459 23.261 40.228 23.261C36.5334 23.261 36.5964 23.2681 36.322 22.8219C36.0485 22.3772 36.2326 21.7513 36.6955 21.5518C37.0415 21.4027 43.4859 21.4025 43.7767 21.5516ZM26.9353 31.7842C26.7689 31.9261 26.6783 32.2416 26.0186 34.9737C25.616 36.6414 25.2859 38.1101 25.2851 38.2377C25.2805 38.9294 26.4403 39.1449 26.6882 38.4985C26.7225 38.4093 27.0715 37.007 27.4638 35.3824C28.2286 32.2154 28.2475 32.0664 27.9192 31.7837C27.6684 31.5676 27.189 31.5679 26.9353 31.7842ZM22.4997 32.1792C22.3025 32.2626 20.4049 34.3152 20.1422 34.7292C19.9497 35.0326 19.9621 35.592 20.1673 35.8523C20.5725 36.3665 22.2207 38.1584 22.3881 38.2669C22.6951 38.4656 23.0107 38.4253 23.2863 38.1522C23.5432 37.8975 23.5979 37.6089 23.4436 37.3214C23.3987 37.2377 22.9873 36.7561 22.5294 36.2512C22.0715 35.7462 21.6969 35.3034 21.6969 35.2671C21.6969 35.2308 22.0624 34.7969 22.5092 34.3028C23.435 33.2792 23.5641 33.0734 23.4984 32.7263C23.4164 32.2928 22.8999 32.0098 22.4997 32.1792ZM30.3743 32.18C30.1222 32.2864 29.9251 32.5983 29.9251 32.8907C29.9251 33.1744 29.8913 33.1302 31.3492 34.7598C31.5716 35.0084 31.7536 35.2356 31.7536 35.2646C31.7536 35.2936 31.3788 35.734 30.9208 36.2433C30.4627 36.7526 30.0513 37.2377 30.0065 37.3214C29.674 37.9433 30.4083 38.6498 31.0232 38.2996C31.2005 38.1986 33.1253 36.0747 33.3112 35.7749C33.4598 35.5353 33.4807 35.016 33.3511 34.7886C33.2588 34.627 31.4583 32.6014 31.1733 32.3386C30.9797 32.1602 30.5998 32.0847 30.3743 32.18ZM43.7091 35.1126C43.7606 35.9784 43.7607 35.9786 44.7992 36.3002C45.07 36.384 45.5234 36.5747 45.8068 36.7238C46.5679 37.1242 46.7961 37.1062 47.3594 36.6009L47.7986 36.207L48.3205 36.721L48.8426 37.235L48.4992 37.5855C47.8892 38.2083 47.8725 38.3513 48.3094 39.2135C48.48 39.5504 48.6895 40.0595 48.7749 40.345C49.0019 41.1035 49.1259 41.2046 49.8816 41.2475L50.4957 41.2824L50.5157 42.0318L50.5356 42.7813L49.9882 42.7815C49.1413 42.782 49.0235 42.8825 48.73 43.8555C48.6617 44.082 48.4693 44.5303 48.3024 44.8517C47.8757 45.6739 47.8875 45.8153 48.4299 46.3753L48.8608 46.8201L48.3832 47.3104C48.1206 47.5801 47.8584 47.8007 47.8005 47.8007C47.7427 47.8007 47.5128 47.6282 47.2898 47.4173C46.7848 46.9398 46.5705 46.9172 45.9277 47.2735C45.69 47.4053 45.1669 47.6237 44.7652 47.7589C43.7924 48.0862 43.7506 48.1327 43.7196 48.9204L43.695 49.5482L42.946 49.5285L42.1971 49.5088L42.162 48.9C42.1188 48.1527 42.016 48.0277 41.2627 47.8063C40.9809 47.7235 40.4759 47.5158 40.1407 47.3448C39.2768 46.9041 39.1098 46.9152 38.5478 47.4502L38.1105 47.8664L37.6045 47.3613C37.3261 47.0836 37.0984 46.8266 37.0984 46.7902C37.0984 46.7539 37.2768 46.5455 37.4948 46.3271C38.0029 45.8182 38.018 45.6198 37.606 44.8693C37.4491 44.5836 37.2363 44.0782 37.133 43.7461C36.8756 42.9188 36.7692 42.8294 35.9868 42.7828L35.3754 42.7464V42.0144V41.2824L35.9833 41.2624C36.7509 41.2371 36.8813 41.1365 37.0991 40.4019C37.1828 40.1193 37.391 39.6115 37.5617 39.2733C37.994 38.4169 37.9855 38.2397 37.4852 37.7041C37.2725 37.4764 37.0984 37.262 37.0984 37.2277C37.0984 37.1934 37.3181 36.9494 37.5865 36.6854L38.0746 36.2052L38.5014 36.597C39.1037 37.1498 39.2236 37.1596 40.0918 36.7273C40.4762 36.5358 41.0141 36.3143 41.2873 36.2349C41.9914 36.0302 42.1183 35.8768 42.1475 35.1953C42.1601 34.9006 42.1838 34.6191 42.2001 34.5699C42.2223 34.5028 42.4117 34.4852 42.9519 34.5001L43.674 34.52L43.7091 35.1126ZM42.0213 37.7958C41.2486 37.9682 40.4467 38.4096 39.873 38.9784C38.0452 40.7903 38.1822 43.7203 40.1718 45.3683C40.6148 45.7353 41.5232 46.1663 42.0751 46.2714C42.672 46.385 43.7645 46.32 44.3471 46.1361C45.5557 45.7547 46.6247 44.7076 47.062 43.4768C47.3061 42.79 47.3666 41.7036 47.1979 41.0375C46.8272 39.5737 45.7115 38.374 44.3069 37.9289C43.5999 37.705 42.6711 37.6508 42.0213 37.7958ZM43.4359 39.2268C44.3409 39.3957 45.1004 39.9742 45.5189 40.8136C45.7701 41.3174 45.7836 41.3791 45.7815 42.0107C45.7784 42.9461 45.609 43.3512 44.9465 44.0079C44.2859 44.6627 43.8762 44.8313 42.9356 44.8351C42.3274 44.8376 42.225 44.8179 41.7946 44.6158C40.5902 44.0502 39.894 42.8044 40.1157 41.6116C40.3377 40.4171 41.1608 39.544 42.3378 39.2544C42.786 39.1441 42.9686 39.1395 43.4359 39.2268ZM26.31 42.8843C26.0133 43.0426 25.9213 43.1961 25.9187 43.5361C25.9155 43.9677 26.2 44.2453 26.6456 44.2453C27.0855 44.2453 27.3244 44.036 27.3731 43.6081C27.4049 43.3287 27.3845 43.2619 27.208 43.0677C26.9631 42.7983 26.6071 42.7256 26.31 42.8843Z" fill="white"/>
<rect width="25" height="25" rx="12.5" fill="#B882FC"/>
<path d="M14.7077 6.95217C14.0564 6.65072 13.2735 6.5 12.3591 6.5C11.4447 6.5 10.618 6.67971 9.87891 7.03913C9.1524 7.39855 8.5261 7.8971 8 8.53478L9.74739 9.82173C10.1357 9.39275 10.5052 9.0855 10.8559 8.9C11.2067 8.7029 11.6075 8.60434 12.0585 8.60434C12.5595 8.60434 12.9541 8.74347 13.2422 9.02173C13.5428 9.2884 13.6931 9.65941 13.6931 10.1348C13.6931 10.6333 13.5491 11.1203 13.261 11.5956C12.9854 12.071 12.4969 12.6681 11.7954 13.3869C11.0939 14.0942 9.97286 15.1493 8.43215 16.5522V18.5H16.6994L17 16.3957H11.7954C13.1357 15.271 14.1566 14.3435 14.858 13.613C15.5595 12.871 16.048 12.2159 16.3236 11.6478C16.5992 11.0797 16.737 10.4826 16.737 9.85652C16.737 9.24202 16.5616 8.67971 16.2109 8.16956C15.8727 7.65942 15.3716 7.25362 14.7077 6.95217Z" fill="white"/>
</svg>
