<svg width="64" height="64" viewBox="0 0 64 64" fill="none" xmlns="http://www.w3.org/2000/svg">
<rect x="4" y="4" width="60" height="60" rx="30" fill="#5F2DEE"/>
<path fill-rule="evenodd" clip-rule="evenodd" d="M33.4453 17.1312C32.9707 17.3467 31.7442 18.746 30.9387 19.9908C30.0765 21.3233 29.4043 23 29.2497 24.2038C29.2026 24.5699 29.1501 24.9443 29.1329 25.0358L29.1017 25.2022L23.2227 25.2024C16.6339 25.2024 17.0708 25.1666 16.6069 25.7453L16.379 26.0294L16.3594 33.3466L16.3397 40.6637L16.5229 40.8463C16.765 41.0875 17.1056 41.0879 17.3469 40.8473L17.5291 40.6658V34.635V28.6042H22.7696H28.0101L27.9664 28.8076C27.5807 30.6046 27.5688 30.7547 27.791 31.0122C27.934 31.1779 28.0315 31.2209 28.2505 31.2146C28.4034 31.2104 28.5801 31.1555 28.643 31.0927C28.7067 31.0292 28.8152 30.6501 28.8876 30.2387C28.9592 29.8318 29.0945 29.2563 29.1884 28.9598C29.3481 28.4556 29.3627 28.435 29.4142 28.6419C29.7674 30.058 30.1663 31.1974 30.5014 31.7468L30.6363 31.968L30.2718 32.5233C30.0713 32.8287 29.7294 33.4381 29.5121 33.8775C29.0694 34.7727 29.0894 34.7795 28.9245 33.6758C28.7987 32.8337 28.6749 32.6422 28.2566 32.6422C27.8751 32.6422 27.6947 32.8414 27.6947 33.2624C27.6947 33.6219 27.909 34.9079 28.0637 35.477C28.2195 36.0497 28.7208 36.37 29.2937 36.2629C29.689 36.1889 29.9616 35.905 30.1773 35.3424C30.3944 34.7761 30.9478 33.6776 31.2087 33.295L31.3796 33.0441L31.7268 33.5251L32.074 34.0061L31.9308 34.2859C31.4274 35.2694 31.6272 36.3053 32.7395 38.4774C33.3917 39.751 33.592 40.0549 33.8164 40.1111C34.3064 40.2336 34.4448 40.0775 35.2641 38.4774C36.3769 36.3044 36.5762 35.2694 36.072 34.2843L35.9296 34.0061L36.2768 33.5251L36.624 33.0441L36.7834 33.2832C37.1011 33.7598 37.4881 34.5095 37.7481 35.1522C38.0324 35.8553 38.1533 36.0298 38.4686 36.1923C38.8958 36.4125 39.5577 36.2118 39.8104 35.7854C39.9448 35.5586 40.1892 34.4237 40.3054 33.4872C40.4778 32.097 40.361 29.9404 40.0598 28.9555L39.9525 28.6042H45.2135H50.4745V37.6269V46.6495H49.7059H48.9374L48.8897 46.1937C48.7509 44.8707 47.6277 43.7935 46.2983 43.7084C46.0036 43.6896 45.6389 43.7082 45.4879 43.7498C45.2141 43.8251 45.2116 43.8237 44.6718 43.2951C43.7252 42.3681 42.594 41.9416 41.2736 42.0139C40.3141 42.0665 40.0357 42.158 39.8864 42.4701C39.7877 42.6762 39.7827 42.7568 39.8574 42.9366C40.0031 43.287 40.2123 43.3564 40.7942 43.247C42.1713 42.988 43.5114 43.5424 44.2732 44.6864C44.6331 45.2268 44.8514 45.29 45.4393 45.0241C45.6172 44.9437 45.9108 44.8771 46.0917 44.8762C46.9138 44.8721 47.7266 45.67 47.7286 46.4831L47.7291 46.6495H42.9431H38.1571V46.4062C38.1571 46.0082 38.3697 45.3128 38.643 44.8166C38.9464 44.2658 38.9626 44.0437 38.7169 43.7989C38.5093 43.5918 38.1951 43.562 37.9588 43.727C37.5743 43.9954 37.0672 45.2454 36.9944 46.104L36.9481 46.6495H33.9909H31.0338L31.0325 46.3352C31.0276 45.1556 30.3225 43.7579 29.3418 42.9839C27.5205 41.5465 24.9833 41.6778 23.3319 43.2951C22.792 43.8237 22.7895 43.8251 22.5157 43.7498C22.3647 43.7082 22 43.6896 21.7053 43.7084C20.3761 43.7935 19.2258 44.9009 19.1067 46.2101L19.0667 46.6495H18.2979H17.5291V44.7233V42.7971L17.3469 42.6156C17.106 42.3754 16.765 42.3754 16.5241 42.6156L16.3419 42.7971V44.7139V46.6306L16.0578 46.6759C15.6847 46.7354 15.3143 46.9939 15.1437 47.3139C14.9444 47.6877 14.954 48.6496 15.1626 49.2052C15.4101 49.8645 15.8438 50.3353 16.5215 50.6801L17.1027 50.976L33.7701 50.9959C44.7285 51.009 50.5576 50.9905 50.7883 50.9416C51.6499 50.7591 52.3982 50.1755 52.7603 49.4034C53.0287 48.8312 53.0838 47.7183 52.8638 47.3151C52.6881 46.9931 52.3181 46.7352 51.9466 46.676L51.6633 46.6309L51.6439 36.3302L51.6246 26.0294L51.3968 25.7453C50.9947 25.2438 50.8366 25.2024 49.3188 25.2024C48.0127 25.2022 47.9733 25.2067 47.8162 25.3734C47.6022 25.6004 47.5995 26.0167 47.8108 26.2077C47.947 26.3307 48.1231 26.3532 49.202 26.3855L50.4374 26.4225L50.4594 26.9217L50.4813 27.4209H44.9938H39.5064L39.2398 26.9377C39.0932 26.6719 38.9733 26.4389 38.9733 26.42C38.9733 26.4011 40.491 26.3855 42.346 26.3855C44.7088 26.3855 45.7742 26.3603 45.9039 26.3014C46.2664 26.1367 46.2936 25.4604 45.9453 25.2746C45.8624 25.2304 44.4667 25.2022 42.3558 25.2022H38.9019L38.8707 25.0358C38.8535 24.9443 38.8019 24.5784 38.7559 24.2227C38.5018 22.2562 37.1797 19.7919 35.2577 17.7024C34.6316 17.0217 34.0736 16.8458 33.4453 17.1312ZM34.5321 18.7058C34.7914 18.9969 35.1952 19.4878 35.4295 19.7966L35.8554 20.3581L34.9286 20.3788C34.4188 20.3902 33.5798 20.3902 33.0638 20.3788L32.1259 20.3581L32.5259 19.8285C33.0032 19.1965 33.9131 18.1764 33.9994 18.1764C34.0331 18.1764 34.2729 18.4146 34.5321 18.7058ZM36.7439 21.8677C37.229 22.8153 37.5864 24.0418 37.6726 25.0543C37.815 26.7265 37.3054 29.4492 36.5791 30.8969L36.338 31.3776H34.0018H31.6657L31.4245 30.8969C30.8605 29.7727 30.4998 28.2968 30.3621 26.5504C30.2308 24.8851 30.4541 23.5799 31.1081 22.1889L31.3951 21.5784H33.9955H36.5958L36.7439 21.8677ZM33.2384 23.0368C32.7763 23.1903 32.2642 23.6449 32.0174 24.1208C31.8543 24.4352 31.8204 24.6002 31.8176 25.0913C31.8137 25.7608 31.9577 26.1658 32.3637 26.6267C32.9654 27.3097 34.1237 27.5204 34.9803 27.1027C35.791 26.7073 36.1916 26.0392 36.1861 25.0913C36.1833 24.6002 36.1494 24.4352 35.9862 24.1208C35.4749 23.1349 34.3173 22.6783 33.2384 23.0368ZM34.4987 24.2375C35.3573 24.7594 35.0868 26.0199 34.0911 26.137C33.7359 26.1788 33.2902 25.9257 33.0963 25.572C32.7478 24.9366 33.2643 24.0934 34.0018 24.0934C34.1447 24.0934 34.3682 24.1583 34.4987 24.2375ZM29.0303 26.42C29.0303 26.4389 28.9104 26.6719 28.7638 26.9377L28.4973 27.4209H23.0132H17.5291V26.9525C17.5291 26.6949 17.5514 26.4619 17.5786 26.4349C17.6335 26.38 29.0303 26.3653 29.0303 26.42ZM39.0859 30.1392C39.2743 31.2168 39.2226 33.0268 38.9674 34.2815L38.8881 34.6708L38.4505 33.8007C38.2098 33.3222 37.87 32.7198 37.6954 32.462L37.378 31.9934L37.6798 31.3793C38.007 30.7138 38.3028 29.8495 38.503 28.974L38.6298 28.4193L38.8028 28.9647C38.8979 29.2648 39.0253 29.7933 39.0859 30.1392ZM35.4116 32.6347C35.4116 32.6549 35.2917 32.8379 35.145 33.0414L34.8783 33.4114H34.0018H33.1253L32.8587 33.0414C32.712 32.8379 32.592 32.6549 32.592 32.6347C32.592 32.6144 33.2264 32.5978 34.0018 32.5978C34.7772 32.5978 35.4116 32.6144 35.4116 32.6347ZM35.0142 34.8676C35.1644 35.226 35.1616 35.6545 35.0059 36.1108C34.8416 36.5921 34.0669 38.2185 34.0018 38.2185C33.9353 38.2185 33.1576 36.5816 33.0005 36.1108C32.8464 35.6489 32.8428 35.2173 32.9902 34.8659L33.1038 34.5947H34.0018H34.8998L35.0142 34.8676ZM28.7569 37.3299C28.4844 37.4421 28.4367 37.645 28.4367 38.6943C28.4367 39.5991 28.4513 39.7122 28.5851 39.8456C28.7902 40.05 29.2566 40.0458 29.4455 39.8378C29.5702 39.7004 29.5868 39.5613 29.5868 38.6566C29.5868 37.7287 29.5727 37.6171 29.4384 37.4857C29.2554 37.3064 28.9717 37.2416 28.7569 37.3299ZM38.7522 37.3503C38.4284 37.5167 38.374 37.7306 38.3962 38.7472C38.4138 39.5454 38.4376 39.7054 38.5582 39.838C38.7471 40.0458 39.2135 40.0499 39.4185 39.8456C39.5527 39.7118 39.5669 39.5991 39.5669 38.6705C39.5669 37.7997 39.5471 37.62 39.4371 37.4903C39.2674 37.2904 38.9821 37.2321 38.7522 37.3503ZM31.0638 39.7791C30.9374 39.9181 30.92 40.0806 30.8992 41.3084C30.8864 42.064 30.8956 42.7603 30.9196 42.8558C31.031 43.2981 31.5115 43.4548 31.8771 43.1682L32.0726 43.0149V41.4672C32.0726 40.0181 32.0632 39.9101 31.9242 39.7716C31.7192 39.5673 31.2527 39.5714 31.0638 39.7791ZM36.0795 39.7716C35.9405 39.9101 35.9311 40.0181 35.9311 41.4672V43.0149L36.1266 43.1682C36.4922 43.4548 36.9726 43.2981 37.084 42.8558C37.108 42.7603 37.1172 42.064 37.1045 41.3084C37.0836 40.0806 37.0662 39.9181 36.9398 39.7791C36.7509 39.5714 36.2845 39.5673 36.0795 39.7716ZM33.7284 41.914C33.4395 42.035 33.4082 42.215 33.4082 43.7521C33.4082 45.09 33.4213 45.2441 33.5487 45.4008C33.6557 45.5326 33.7636 45.5738 34.0018 45.5738C34.24 45.5738 34.3479 45.5326 34.455 45.4008C34.5824 45.2439 34.5954 45.0896 34.5954 43.7283C34.5954 42.4087 34.5798 42.2098 34.4656 42.0727C34.3151 41.8921 33.9622 41.8161 33.7284 41.914ZM27.2977 43.2768C27.7425 43.3948 28.3109 43.6897 28.6831 43.9955C29.2685 44.4764 29.8465 45.6519 29.8465 46.3615V46.6495H25.0605H20.2746L20.275 46.4831C20.2763 45.9202 20.7236 45.2634 21.2763 45.0126C21.663 44.837 22.1605 44.8414 22.5643 45.0241C23.1522 45.29 23.3705 45.2268 23.7304 44.6864C23.8743 44.4703 24.1229 44.1756 24.2829 44.0315C24.6137 43.7337 25.3349 43.3506 25.7472 43.2538C26.1728 43.1538 26.8734 43.1641 27.2977 43.2768ZM51.8372 47.9445C51.9105 48.1348 51.7426 48.814 51.5508 49.1027C51.4504 49.254 51.2089 49.4711 51.0141 49.5852L50.66 49.7927H34.0018H17.3436L16.9895 49.5852C16.7947 49.4711 16.5532 49.254 16.4528 49.1027C16.2611 48.814 16.0931 48.1348 16.1664 47.9445C16.2045 47.8453 18.2045 47.8328 34.0018 47.8328C49.7991 47.8328 51.7991 47.8453 51.8372 47.9445Z" fill="white"/>
<rect width="25" height="25" rx="12.5" fill="#B882FC"/>
<path d="M17.5 16.5505V14.1667H16.0271V10.9343H13.3915L13.062 14.1667H10.6589L13.8178 6.5101L11.2209 5.5L7.5 14.4293V16.5505H13.0233L13.0426 19.5H16.0271V16.5505H17.5Z" fill="white"/>
</svg>
