<svg width="64" height="64" viewBox="0 0 64 64" fill="none" xmlns="http://www.w3.org/2000/svg">
<rect x="4" y="4" width="60" height="60" rx="30" fill="#5F2DEE"/>
<path fill-rule="evenodd" clip-rule="evenodd" d="M19.3606 19.0925C18.8973 19.2621 18.5941 19.4533 18.2886 19.7686C17.8993 20.1703 17.6573 20.648 17.5689 21.189C17.4816 21.7233 17.475 44.9795 17.562 45.5767C17.6906 46.4602 18.2327 47.2094 19.0228 47.5958L19.4614 47.8102L31.5136 47.8275C42.6809 47.8434 43.5749 47.8366 43.6885 47.7345C43.8514 47.5881 43.8524 47.1732 43.6903 47.0275C43.5794 46.9278 42.5954 46.9174 31.6834 46.9014C20.8775 46.8856 19.7756 46.8742 19.5593 46.7765C19.2209 46.6236 18.8476 46.2796 18.6776 45.964L18.5316 45.693L18.5141 35.6529L18.4967 25.6128H33.1522H47.8079V33.6111C47.8079 41.1435 47.8147 41.6178 47.925 41.753C48.1629 42.0448 48.7068 41.9086 48.7736 41.5406C48.795 41.4227 48.8038 36.7562 48.7931 31.1704C48.7749 21.6205 48.7667 20.9967 48.6554 20.7168C48.3619 19.9789 47.7463 19.3692 47.0487 19.1257C46.6863 18.9992 46.4024 18.9966 33.1381 19.0012C22.1511 19.005 19.5528 19.0222 19.3606 19.0925ZM46.8505 20.102C47.2076 20.2917 47.6304 20.7721 47.7295 21.101C47.7806 21.2701 47.8079 21.9404 47.8079 23.0236V24.6865H33.1491H18.4904L18.511 22.9167C18.5294 21.342 18.5453 21.1213 18.6557 20.9153C18.8953 20.4679 19.3048 20.1238 19.7636 19.9843C19.8554 19.9564 25.9256 19.9386 33.253 19.9447L46.5756 19.9559L46.8505 20.102ZM21.8661 20.8779C21.2854 21.0916 20.9103 21.5474 20.8523 22.1098C20.7961 22.6545 20.9206 23.0127 21.2893 23.3676C21.8165 23.875 22.5091 23.9585 23.1406 23.5909C24.0899 23.0383 24.0919 21.5721 23.1442 21.0205C22.779 20.8079 22.2244 20.746 21.8661 20.8779ZM25.7587 20.8411C25.0376 21.0747 24.6267 21.6059 24.6267 22.3047C24.6267 23.4846 25.8989 24.1955 26.9332 23.5935C27.8789 23.043 27.8834 21.5689 26.9411 21.0205C26.6313 20.8402 26.0389 20.7503 25.7587 20.8411ZM29.5556 20.8411C28.6193 21.1444 28.1636 22.0935 28.5492 22.9369C28.9162 23.7393 29.9487 24.0483 30.7345 23.5909C31.6798 23.0407 31.6741 21.5654 30.7245 21.0126C30.4281 20.84 29.8298 20.7523 29.5556 20.8411ZM22.7312 21.9378C22.9183 22.1236 22.9366 22.2971 22.7973 22.5645C22.6382 22.8703 22.2989 22.9269 22.0045 22.6968C21.8691 22.5911 21.829 22.5014 21.829 22.3047C21.829 21.8292 22.3916 21.6004 22.7312 21.9378ZM26.3889 21.8165C26.5467 21.8766 26.7089 22.2275 26.663 22.4092C26.6413 22.4953 26.5582 22.626 26.4785 22.6998C26.1604 22.9941 25.6259 22.7564 25.6259 22.3207C25.6259 21.91 25.9948 21.6663 26.3889 21.8165ZM30.2686 21.8747C30.6582 22.1457 30.4303 22.826 29.948 22.8318C29.6644 22.8353 29.4228 22.6001 29.4228 22.3207C29.4228 21.8671 29.8978 21.6167 30.2686 21.8747ZM37.2707 29.7816C36.0318 29.977 34.8575 30.4721 33.8858 31.2087C33.4308 31.5536 32.6489 32.3574 32.364 32.7733L32.1497 33.0859L27.0726 33.1041L21.9955 33.1222L21.6106 33.3158C20.2774 33.9863 19.8382 35.6522 20.6646 36.9042C20.9293 37.3053 21.1879 37.5145 21.7318 37.7675L22.1287 37.9521L26.6078 37.9712L31.0869 37.9904L31.1265 38.1697C31.1482 38.2683 31.2251 38.5852 31.2972 38.8738C31.7464 40.6709 32.996 42.299 34.6711 43.2696C36.9139 44.5693 39.8099 44.5559 42.0792 43.2354L42.4456 43.0222L42.7582 43.326L43.0709 43.6297L42.8748 43.866C42.4878 44.3323 42.443 44.2686 44.7937 46.5928C47.2612 49.0325 47.2174 49.0019 48.2409 48.9998C48.8115 48.9985 48.9548 48.975 49.2401 48.8359C50.3581 48.2908 50.8243 46.8846 50.2595 45.7613C50.1784 45.5998 49.2939 44.6655 48.0188 43.3939C46.1205 41.5009 45.8909 41.2932 45.6967 41.2932C45.5528 41.2932 45.4064 41.3584 45.2568 41.4888L45.0326 41.6843L44.7247 41.373L44.4167 41.0617L44.646 40.6978C45.3972 39.5055 45.7875 37.6904 45.6131 36.2001C45.4146 34.5049 44.7698 33.1378 43.5956 31.923C42.6818 30.9776 41.4576 30.2672 40.1807 29.9413C39.4383 29.7518 37.9701 29.6712 37.2707 29.7816ZM39.4813 30.7822C41.821 31.2028 43.7584 32.9456 44.4509 35.2528C44.6871 36.04 44.7428 37.2891 44.5798 38.1489C44.3376 39.4275 43.7505 40.5072 42.7804 41.4587C42.0552 42.1698 41.3479 42.6098 40.4313 42.9198C38.9872 43.4083 37.7106 43.4083 36.2664 42.9198C35.3499 42.6098 34.6426 42.1698 33.9174 41.4587C32.9473 40.5072 32.3602 39.4275 32.1179 38.1489C31.9669 37.3522 32.0134 36.0442 32.2177 35.3431C32.9776 32.7346 35.1987 30.9185 37.9159 30.6841C38.2714 30.6534 39.0289 30.7009 39.4813 30.7822ZM37.5828 31.8132C35.452 32.1058 33.6515 33.7898 33.2122 35.901C32.9771 37.0305 33.0788 37.4558 33.5838 37.4558C33.9064 37.4558 34.0854 37.2113 34.0867 36.7687C34.0895 35.7716 34.6274 34.6488 35.4759 33.8686C36.1922 33.2099 37.0096 32.8511 38.0004 32.7607C38.6413 32.7022 38.8152 32.5936 38.8152 32.2518C38.8152 31.9027 38.6259 31.7639 38.1657 31.7758C37.955 31.7812 37.6928 31.798 37.5828 31.8132ZM31.621 34.0447C31.621 34.0608 31.5306 34.3421 31.4201 34.6697C31.2275 35.2406 31.0227 36.3248 31.0219 36.7777L31.0215 36.9927H26.6993H22.377L22.0209 36.8079C21.5308 36.5536 21.2802 36.1892 21.2429 35.6768C21.2272 35.4622 21.251 35.1766 21.2956 35.0422C21.4453 34.5919 21.8934 34.1986 22.3952 34.0773C22.6062 34.0262 31.621 33.9944 31.621 34.0447ZM22.9985 35.2211C22.8556 35.4237 22.8686 35.7096 23.028 35.8679C23.1483 35.9874 23.25 36.0003 24.0789 36.0003C25.1587 36.0003 25.2928 35.9498 25.2928 35.5436C25.2928 35.1126 25.1929 35.074 24.0757 35.074C23.1452 35.074 23.0976 35.0805 22.9985 35.2211ZM26.1959 35.2211C26.053 35.4237 26.066 35.7096 26.2254 35.8679C26.3457 35.9874 26.4474 36.0003 27.2763 36.0003C28.3561 36.0003 28.4902 35.9498 28.4902 35.5436C28.4902 35.1126 28.3903 35.074 27.2731 35.074C26.3426 35.074 26.295 35.0805 26.1959 35.2211ZM20.3783 40.3377C20.2696 40.4133 20.2303 40.5073 20.2303 40.6913C20.2303 41.1902 19.9367 41.1609 24.938 41.1609C29.1782 41.1609 29.4077 41.1548 29.5124 41.0399C29.6641 40.8734 29.6523 40.5287 29.4894 40.367C29.3589 40.2373 29.2674 40.2347 24.9413 40.2347C21.0533 40.2347 20.5087 40.247 20.3783 40.3377ZM44.0974 42.1396L44.344 42.3905L44.0581 42.6692L43.7722 42.9479L43.5117 42.683L43.2512 42.418L43.5114 42.1534C43.6545 42.0078 43.7893 41.8887 43.8111 41.8887C43.8329 41.8887 43.9617 42.0016 44.0974 42.1396ZM20.3783 42.3887C20.2696 42.4643 20.2303 42.5583 20.2303 42.7423C20.2303 43.2413 19.9367 43.212 24.938 43.212C29.1782 43.212 29.4077 43.2059 29.5124 43.0909C29.6641 42.9245 29.6523 42.5798 29.4894 42.418C29.3589 42.2883 29.2674 42.2857 24.9413 42.2857C21.0533 42.2857 20.5087 42.298 20.3783 42.3887ZM49.4167 46.3105C49.8778 47.2524 48.9246 48.3208 47.8721 48.0419C47.6097 47.9723 47.3573 47.7482 45.7253 46.1351L43.8759 44.3071L44.7921 43.3954L45.7083 42.4837L47.4923 44.2538C48.6757 45.428 49.3236 46.1204 49.4167 46.3105ZM20.3783 44.4397C20.1773 44.5795 20.1728 44.9923 20.3704 45.17C20.5018 45.2883 20.6602 45.2973 22.9183 45.3165C24.4654 45.3297 25.4115 45.3121 25.5649 45.2675C25.9502 45.1555 26.0504 44.7649 25.7742 44.4525C25.68 44.346 25.4659 44.3367 23.0991 44.3367C20.8784 44.3367 20.5061 44.3508 20.3783 44.4397Z" fill="white"/>
<rect width="25" height="25" rx="12.5" fill="#B882FC"/>
<path d="M14.75 5.5V19.5H12.2831V8.1835L9.34639 10.0765L8.25 8.28751L12.5377 5.5H14.75Z" fill="white"/>
</svg>
