<svg width="64" height="64" viewBox="0 0 64 64" fill="none" xmlns="http://www.w3.org/2000/svg">
<rect x="4" y="4" width="60" height="60" rx="30" fill="#5F2DEE"/>
<path fill-rule="evenodd" clip-rule="evenodd" d="M19.8513 18.0818C19.1422 18.3051 18.5094 18.8681 18.1838 19.5652L18 19.9589V31.546V43.1331L18.2032 43.5485C18.5842 44.3276 19.2988 44.8758 20.1448 45.0379C20.442 45.0949 22.6765 45.1112 28.141 45.0964L35.7248 45.0759L35.9163 44.8835C36.1707 44.6281 36.1875 44.1535 35.9506 43.9156L35.7932 43.7576L28.0661 43.7229L20.339 43.6882L20.0043 43.48C19.7844 43.3433 19.6142 43.1669 19.5086 42.9661L19.3477 42.6603V33.8248V24.9892H34H48.6523V33.8248V42.6603L48.4914 42.9661C48.3858 43.1668 48.2155 43.3434 47.9959 43.48L47.6612 43.6882L45.946 43.7117L44.2308 43.7353L44.0571 43.9425C43.7717 44.283 43.8624 44.8162 44.239 45.0117C44.4793 45.1364 47.3417 45.1527 47.9059 45.0326C48.7219 44.8588 49.4265 44.3058 49.7968 43.5485L50 43.1331V31.5446V19.956L49.776 19.4992C49.5062 18.949 49.0119 18.4618 48.46 18.2021L48.0648 18.0162L34.1037 18.0031C22.6946 17.9924 20.0893 18.0068 19.8513 18.0818ZM29.6458 21.4854V23.6016H24.4968H19.3477V22.0382C19.3477 20.7841 19.3689 20.424 19.4547 20.2179C19.5974 19.875 19.808 19.6553 20.1425 19.5003C20.4025 19.3798 20.6949 19.3721 25.0324 19.3707L29.6458 19.3692V21.4854ZM47.8575 19.5003C48.192 19.6553 48.4026 19.875 48.5453 20.2179C48.6311 20.424 48.6523 20.7841 48.6523 22.0382V23.6016H39.8402H31.0281V21.4854V19.3692L39.3045 19.3707C47.2034 19.3721 47.5936 19.378 47.8575 19.5003ZM21.4212 20.8452C21.1517 20.9797 20.9938 21.364 21.0797 21.6765C21.1774 22.0317 21.3681 22.1445 21.8704 22.1445C22.3727 22.1445 22.5634 22.0317 22.6611 21.6765C22.7176 21.471 22.7079 21.3725 22.6119 21.1761C22.4696 20.8846 22.246 20.7589 21.8704 20.7589C21.7184 20.7589 21.5162 20.7977 21.4212 20.8452ZM24.1166 20.8058C23.7317 20.9471 23.5442 21.4242 23.7311 21.7871C23.8795 22.0752 24.032 22.1445 24.5174 22.1445C24.868 22.1445 24.9535 22.1181 25.1094 21.9616C25.3058 21.7644 25.3581 21.3583 25.2204 21.0999C25.0761 20.8291 24.4834 20.6712 24.1166 20.8058ZM26.6124 20.8537C26.2181 21.073 26.142 21.6212 26.4612 21.9417C26.643 22.1242 26.7082 22.1445 27.1116 22.1445C27.5275 22.1445 27.573 22.129 27.739 21.931C28.0295 21.5844 27.9423 21.0529 27.5623 20.8557C27.3253 20.7327 26.8317 20.7316 26.6124 20.8537ZM33.7771 20.865C33.3979 21.0716 33.3267 21.5739 33.626 21.931L33.805 22.1445H39.8171H45.8292L46.0312 21.9417C46.3561 21.6155 46.2618 21.0258 45.8551 20.8398C45.719 20.7774 44.2163 20.7575 39.8196 20.7596C34.788 20.762 33.939 20.7768 33.7771 20.865ZM21.6122 26.3046C21.2605 26.4158 20.9674 26.6463 20.7965 26.9459C20.6375 27.2248 20.6248 27.3206 20.6031 28.4154C20.5775 29.7071 20.6364 30.0906 20.9173 30.4608C21.245 30.8926 21.496 30.953 22.9717 30.9547C24.4885 30.9565 24.7365 30.8887 25.0715 30.3805L25.257 30.0991V28.5914V27.0837L25.0423 26.817C24.6315 26.3068 24.5185 26.2746 23.0799 26.2588C22.3767 26.2511 21.7162 26.2717 21.6122 26.3046ZM39.3218 26.277C39.2268 26.2934 38.9313 26.3422 38.6652 26.3855C36.4462 26.7466 34.4477 28.2611 33.4117 30.3665C32.3628 32.4979 32.3621 34.8419 33.4095 36.958C34.1775 38.5097 35.5256 39.8074 37.015 40.4289C37.2764 40.538 37.4982 40.6318 37.5078 40.6373C37.5174 40.6428 37.4756 42.0964 37.4149 43.8677C37.3543 45.6388 37.318 47.3083 37.3344 47.5775C37.3912 48.5125 37.958 49.3466 38.8293 49.7772C39.2565 49.9883 39.3289 50.002 40.0115 49.9998C40.6181 49.9979 40.7956 49.9714 41.082 49.8397C41.822 49.4996 42.3877 48.8419 42.6081 48.0656C42.7172 47.6819 42.7174 47.4461 42.612 44.3883C42.55 42.5913 42.5001 41.0117 42.5011 40.8781C42.5027 40.6434 42.5186 40.6288 42.9755 40.4432C44.0876 39.9914 45.408 38.8801 46.1362 37.7829C48.0788 34.8559 47.7135 30.9499 45.265 28.4674C44.2136 27.4014 42.9726 26.7219 41.4989 26.4053C41.0155 26.3014 39.6483 26.2209 39.3218 26.277ZM27.1653 27.0982C26.771 27.3176 26.6949 27.8658 27.0141 28.1862L27.2161 28.3891H29.7748C32.3292 28.3891 32.3339 28.3888 32.5145 28.2328C32.6365 28.1274 32.7081 27.9814 32.7345 27.7838C32.7701 27.5172 32.7518 27.469 32.5298 27.2462L32.286 27.0014L29.8082 27.0038C27.8845 27.0058 27.2935 27.0268 27.1653 27.0982ZM41.3815 27.8392C42.5119 28.1006 43.4741 28.669 44.3461 29.5905C44.954 30.2329 45.3831 30.9532 45.6881 31.8431C45.9137 32.501 45.9193 32.5451 45.9196 33.6622C45.92 34.7765 45.914 34.8246 45.6931 35.4662C45.3357 36.5045 44.9824 37.0689 44.1944 37.8599C43.4036 38.6538 42.8373 39.0103 41.8099 39.3608C41.2292 39.5589 41.0456 39.5882 40.2203 39.6141C39.445 39.6384 39.1855 39.619 38.6853 39.4995C36.9412 39.0827 35.4594 37.8972 34.638 36.2617C33.8647 34.722 33.8426 32.8033 34.5796 31.2019C35.7919 28.5678 38.5772 27.1908 41.3815 27.8392ZM23.9093 28.6319V29.5686H22.9762H22.0432V28.6319V27.6952H22.9762H23.9093V28.6319ZM27.0406 29.736C26.8746 29.8793 26.8467 29.9552 26.8467 30.2624C26.8467 30.5696 26.8746 30.6455 27.0406 30.7888L27.2345 30.9563H29.4039H31.5733L31.7672 30.7888C31.9332 30.6455 31.9611 30.5696 31.9611 30.2624C31.9611 29.9552 31.9332 29.8793 31.7672 29.736L31.5733 29.5686H29.4039H27.2345L27.0406 29.736ZM42.7775 31.3509C42.7205 31.3712 41.8116 32.2498 40.7577 33.3033L38.8415 35.2188L38.0898 34.4753C37.3581 33.7513 37.3299 33.7316 37.0262 33.7316C36.5895 33.7316 36.3499 33.9725 36.3499 34.4114C36.3499 34.7197 36.3648 34.7405 37.1923 35.5807C38.1449 36.548 38.394 36.6932 38.9815 36.6233C39.1739 36.6005 39.4303 36.5199 39.5512 36.4444C39.6722 36.3688 40.6496 35.4208 41.7235 34.3377L43.676 32.3684V32.057C43.676 31.5523 43.2199 31.1939 42.7775 31.3509ZM21.3866 32.1121C21.0271 32.3021 20.7993 32.5697 20.6938 32.9261C20.57 33.3449 20.5528 35.2877 20.6693 35.7088C20.7693 36.0708 21.2336 36.5369 21.5942 36.6373C22.0137 36.7542 23.9489 36.737 24.3661 36.6127C24.7303 36.5041 24.9945 36.2725 25.184 35.8957C25.2829 35.699 25.2963 35.4644 25.2782 34.2598C25.2572 32.8666 25.2553 32.8511 25.0715 32.5725C24.7344 32.0615 24.4922 31.9966 22.9371 31.9998C21.851 32.002 21.5543 32.0235 21.3866 32.1121ZM27.0141 32.963C26.6893 33.2892 26.7836 33.879 27.1903 34.065C27.4298 34.1746 30.7415 34.1812 30.9789 34.0726C31.1717 33.9844 31.3736 33.6696 31.3736 33.4573C31.3736 33.2508 31.1915 32.9174 31.0319 32.8317C30.9503 32.7878 30.1883 32.7602 29.0576 32.7602H27.2161L27.0141 32.963ZM23.9093 34.3214V35.2581H22.9762H22.0432V34.3214V33.3847H22.9762H23.9093V34.3214ZM27.2536 35.3245C26.8035 35.512 26.6825 36.0816 27.0138 36.4538L27.2154 36.6804H29.2311H31.2468L31.4484 36.4538C31.721 36.1477 31.7209 35.8255 31.4485 35.5194L31.247 35.2927L29.3232 35.2782C28.2652 35.2702 27.3339 35.291 27.2536 35.3245ZM21.6122 37.7529C21.2605 37.8642 20.9674 38.0946 20.7965 38.3943C20.6375 38.6731 20.6248 38.7689 20.6031 39.8637C20.5775 41.1555 20.6364 41.5389 20.9173 41.9091C21.245 42.341 21.496 42.4013 22.9717 42.4031C24.4885 42.4048 24.7365 42.337 25.0715 41.8288L25.257 41.5474V40.0397V38.532L25.0423 38.2654C24.6315 37.7551 24.5185 37.7229 23.0799 37.7071C22.3767 37.6994 21.7162 37.72 21.6122 37.7529ZM27.1653 38.5466C26.771 38.7659 26.6949 39.3141 27.0141 39.6346L27.2161 39.8374H29.7748C32.3292 39.8374 32.3339 39.8371 32.5145 39.6811C32.6365 39.5757 32.7081 39.4297 32.7345 39.2321C32.7701 38.9655 32.7518 38.9174 32.5298 38.6945L32.286 38.4497L29.8082 38.4521C27.8845 38.4541 27.2935 38.4752 27.1653 38.5466ZM23.9093 40.0455V41.0169H22.9762H22.0432V40.0829V39.149L22.6479 39.1259C22.9806 39.1131 23.4005 39.0963 23.581 39.0885L23.9093 39.0742V40.0455ZM27.0406 41.1843C26.8746 41.3277 26.8467 41.4035 26.8467 41.7107C26.8467 42.018 26.8746 42.0938 27.0406 42.2372L27.2345 42.4046H31.0281H34.8216L35.0156 42.2372C35.1816 42.0938 35.2095 42.018 35.2095 41.7107C35.2095 41.4035 35.1816 41.3277 35.0156 41.1843L34.8216 41.0169H31.0281H27.2345L27.0406 41.1843ZM41.1218 41.6414C41.1234 41.9657 41.1661 43.3997 41.2165 44.8279C41.2772 46.5444 41.2856 47.5087 41.2413 47.6726C41.1443 48.0318 40.8893 48.3363 40.5459 48.5033C39.8695 48.832 39.1073 48.5226 38.8052 47.7967C38.7067 47.56 38.7063 47.2546 38.8016 44.5018C38.8594 42.8332 38.9067 41.3742 38.9069 41.2598L38.9071 41.0516H40.013H41.1188L41.1218 41.6414Z" fill="white"/>
<rect width="25" height="25" rx="12.5" fill="#B882FC"/>
<path d="M14.9286 5.95544C14.2483 5.65182 13.4252 5.5 12.4592 5.5C10.6633 5.5 9.11225 6.10066 7.80612 7.30198L9.39796 8.98514C10.2279 8.20627 11.1258 7.81683 12.0918 7.81683C12.6633 7.81683 13.1122 7.95544 13.4388 8.23267C13.7653 8.49669 13.9286 8.87293 13.9286 9.36138C13.9286 9.91583 13.7517 10.3449 13.398 10.6485C13.0442 10.9521 12.5612 11.1039 11.949 11.1039H11.1531L10.8061 13.2624H11.949C12.6973 13.2624 13.2551 13.4142 13.6224 13.7178C14.0034 14.0083 14.1939 14.4967 14.1939 15.1832C14.1939 15.7904 13.9966 16.2657 13.602 16.6089C13.2075 16.9522 12.6905 17.1238 12.051 17.1238C11.5204 17.1238 11.0306 17.0248 10.5816 16.8267C10.1463 16.6155 9.69728 16.2855 9.23469 15.8366L7.5 17.4802C8.64286 18.8267 10.2211 19.5 12.2347 19.5C13.3367 19.5 14.2823 19.3152 15.0714 18.9455C15.8741 18.5759 16.4796 18.0809 16.8878 17.4604C17.2959 16.8267 17.5 16.1337 17.5 15.3812C17.5 14.3779 17.2075 13.6056 16.6224 13.0643C16.0374 12.5099 15.2823 12.1865 14.3571 12.094C15.2143 11.8564 15.8742 11.467 16.3367 10.9257C16.8129 10.3845 17.051 9.71121 17.051 8.90593C17.051 8.27227 16.8673 7.69802 16.5 7.18317C16.1463 6.66832 15.6224 6.25907 14.9286 5.95544Z" fill="white"/>
</svg>
