<svg width="22" height="18" viewBox="0 0 22 18" fill="none" xmlns="http://www.w3.org/2000/svg">
<path fill-rule="evenodd" clip-rule="evenodd" d="M8.38156 0.0458497C5.1719 0.368605 2.33735 2.27909 0.934282 5.06539C-0.311427 7.53904 -0.311427 10.4638 0.934282 12.9375C2.81026 16.6629 7.12046 18.6755 11.3359 17.7944C14.3975 17.1545 16.9063 15.1126 18.0527 12.3274C18.5187 11.1954 18.6776 10.2435 18.4668 9.84607C18.1786 9.30281 17.4651 9.10598 16.8964 9.41279C16.5826 9.58214 16.4251 9.84562 16.2994 10.4117C15.7098 13.0657 13.5992 15.09 10.7912 15.6946C10.0832 15.847 8.69721 15.8597 8.01572 15.72C5.10437 15.1231 2.99037 13.0895 2.36988 10.2889C2.23898 9.69796 2.23898 8.30493 2.36988 7.71399C2.98656 4.93056 5.08429 2.89747 7.96425 2.29207C8.17659 2.24745 8.69778 2.19912 9.12245 2.18466C10.4016 2.14118 11.3196 2.33742 12.5235 2.91183C13.1485 3.21002 13.2856 3.25741 13.5239 3.25741C14.5046 3.25741 15.0146 2.16451 14.3594 1.46685C14.1368 1.22981 12.997 0.674277 12.2495 0.438425C11.0499 0.0599623 9.65203 -0.0819056 8.38156 0.0458497ZM20.6015 0.0352531C20.5166 0.0549611 20.3892 0.099725 20.3184 0.134734C20.2476 0.169743 18.0239 2.27691 15.3767 4.81731L10.5638 9.43626L8.94228 7.78227C7.82851 6.64614 7.25528 6.09744 7.11151 6.0298C6.69939 5.83594 6.10706 5.93111 5.79805 6.24089C5.50356 6.53607 5.41158 7.0665 5.58978 7.44164C5.69001 7.65269 9.63679 11.6998 9.96001 11.923C10.116 12.0307 10.1936 12.0468 10.5574 12.0468C10.9441 12.0468 10.993 12.0349 11.2072 11.8897C11.3346 11.8033 13.7824 9.47478 16.6468 6.71512L21.8548 1.69761L21.9422 1.40441C22.0712 0.971085 21.9869 0.648726 21.6627 0.336914C21.3508 0.0368873 21.0108 -0.0597711 20.6015 0.0352531Z" fill="#5F2DEE"/>
</svg>
