<svg width="70" height="70" viewBox="0 0 70 70" fill="none" xmlns="http://www.w3.org/2000/svg">
<path fill-rule="evenodd" clip-rule="evenodd" d="M15.1222 0.228646C12.3624 0.89686 9.69122 3.56889 8.96387 6.38857C8.7713 7.13525 8.74725 9.29943 8.74725 25.8745C8.74725 46.5349 8.6908 45.2129 9.65624 47.1426C10.5984 49.0258 12.4325 50.6294 14.5137 51.3899L15.5124 51.7549L28.3131 51.8233L41.1138 51.8916L45.7744 56.1978C48.6231 58.8301 50.7131 60.6551 51.1507 60.8927C51.8113 61.2514 51.9565 61.2773 53.0377 61.2278C54.3811 61.1662 55.1578 60.8123 55.8842 59.9308C56.6364 59.0181 56.7182 58.536 56.7182 55.0115V51.8233L59.5541 51.821C61.5071 51.8193 62.6823 51.7566 63.329 51.6196C66.3376 50.982 68.9965 48.3872 69.7689 45.3353C70.0795 44.1081 70.0758 7.77025 69.765 6.45132C69.0954 3.61018 66.378 0.892075 63.5376 0.222221C62.2635 -0.0781198 16.3641 -0.0721048 15.1222 0.228646ZM62.9051 3.58803C63.9533 3.95249 64.9146 4.65433 65.5523 5.52077C66.7062 7.08864 66.6184 5.54004 66.6658 25.1658C66.6931 36.5089 66.659 42.9648 66.5681 43.6526C66.3125 45.5841 65.172 47.1612 63.4448 47.9709C62.6641 48.3369 62.6588 48.3374 58.5632 48.4057C54.1865 48.4787 54.0627 48.4982 53.6089 49.1901C53.3989 49.5105 53.3614 50.0539 53.3014 53.6624C53.2349 57.6624 53.2259 57.771 52.9553 57.8097C52.7531 57.8387 51.3411 56.6159 47.7819 53.3299C45.0894 50.8442 42.7544 48.7347 42.593 48.6422C42.3687 48.5137 39.2067 48.4579 29.1793 48.4057L16.0591 48.3373L15.2776 47.9709C13.6134 47.1906 12.4273 45.599 12.1667 43.7957C11.9839 42.5313 11.9863 9.29095 12.1693 8.00935C12.5132 5.60142 14.2766 3.78803 16.6094 3.44367C17.0589 3.37737 27.4976 3.33185 39.8395 3.34237C60.3241 3.35987 62.3093 3.38106 62.9051 3.58803ZM20.6255 12.3538C19.8326 12.8882 19.5918 13.8065 20.0248 14.644C20.4617 15.4892 20.0684 15.4598 30.9512 15.4598H40.8685L41.3583 15.0108C42.2803 14.1657 42.0573 12.7083 40.9342 12.239C40.5394 12.074 38.8977 12.0421 30.7756 12.0421H21.0879L20.6255 12.3538ZM20.5305 21.2781C20.1274 21.5604 19.8175 22.1807 19.8175 22.7051C19.8175 23.2295 20.1274 23.8499 20.5305 24.1322C20.8027 24.323 22.7944 24.3456 39.3612 24.3456C59.7447 24.3456 58.2429 24.4094 58.7007 23.5239C59.092 22.7671 58.8607 21.7467 58.1919 21.2781C57.9196 21.0872 55.928 21.0647 39.3612 21.0647C22.7944 21.0647 20.8027 21.0872 20.5305 21.2781ZM3.31642 22.3038C2.31327 22.9594 1.40086 23.9605 0.829996 25.0318C-0.0297904 26.6455 0.000413411 26.0549 0.000413411 41.2326C0.000413411 56.4566 -0.0463275 55.5734 0.854187 57.3582C1.39048 58.4209 2.83466 59.8655 3.89713 60.4019C5.37917 61.1501 5.9663 61.2559 8.63545 61.2559H11.0706V63.8342C11.0706 67.0131 11.1353 67.505 11.6706 68.3977C12.2896 69.4302 13.1394 69.9185 14.4302 69.9837C16.1555 70.0709 16.2896 69.9732 20.84 65.3114L24.7985 61.2559H35.0562C46.3226 61.2559 45.6775 61.3038 46.1271 60.4342C46.3875 59.9306 46.3875 59.3004 46.1271 58.7967C45.6763 57.9246 46.4039 57.975 34.2604 57.975H23.2069L18.9686 62.2798C16.6376 64.6476 14.6757 66.5509 14.6089 66.5096C14.542 66.4683 14.4874 64.7475 14.4874 62.6854V58.9363L14.089 58.4898L13.6904 58.0434L10.2281 57.9576C8.23624 57.9083 6.54933 57.8044 6.25645 57.7129C5.21421 57.3875 3.89125 56.0703 3.52962 54.9983C3.313 54.356 3.19574 29.7763 3.40211 28.2862C3.6119 26.7721 4.20737 25.8377 5.4855 25.0174C6.66755 24.2586 6.85643 23.1105 5.9484 22.2022C5.55889 21.8126 5.40035 21.7482 4.83058 21.7482C4.28472 21.7482 4.01535 21.847 3.31642 22.3038ZM50.1544 36.3352C49.4192 36.8419 49.2083 37.5498 49.5432 38.3867C49.9302 39.3542 50.0658 39.3831 54.2147 39.3831C58.2326 39.3831 58.2803 39.3744 58.7007 38.5614C59.092 37.8046 58.8607 36.7842 58.1919 36.3156C57.9341 36.135 57.3192 36.1022 54.1898 36.1022C50.9295 36.1022 50.4523 36.1298 50.1544 36.3352Z" fill="white"/>
</svg>
