<svg width="21" height="30" viewBox="0 0 21 30" fill="none" xmlns="http://www.w3.org/2000/svg">
<path fill-rule="evenodd" clip-rule="evenodd" d="M8.00283 0.22397C3.2256 1.36199 0 5.43479 0 10.3291C0 13.0129 0.568195 14.4347 3.00884 17.8581C3.88037 19.0808 4.84056 20.6202 5.14261 21.2791L5.69157 22.4772L10.4565 22.4774L15.2212 22.4775L15.7825 21.2859C16.0911 20.6304 17.0691 19.0791 17.9557 17.8385C18.8423 16.5979 19.7765 15.1313 20.0314 14.5794C20.5968 13.3564 21.0037 11.506 21 10.1759C20.987 5.60026 17.6461 1.44819 13.0491 0.294752C11.5999 -0.0689106 9.364 -0.100212 8.00283 0.22397ZM11.1827 3.95544C11.4409 4.15804 11.4409 4.88064 11.1827 5.22638C11.0598 5.39122 10.5881 5.55716 9.96089 5.6561C8.13061 5.94505 7.01971 6.70777 6.26201 8.19529C5.99234 8.72474 5.77173 9.3978 5.77173 9.69099C5.77173 10.8435 4.96978 11.5518 4.21465 11.0664C3.72806 10.7535 3.63026 10.2692 3.83468 9.18435C4.3894 6.23982 6.78083 4.06681 9.86005 3.70944C10.4205 3.64432 10.8999 3.7335 11.1827 3.95544ZM5.68596 25.5054C5.96637 28.1019 7.70655 29.8382 10.1807 29.9899C13.0135 30.1635 15.231 28.083 15.231 25.2513V24.5224H10.4055H5.57998L5.68596 25.5054Z" fill="#5F2DEE"/>
</svg>
