<svg width="20" height="26" viewBox="0 0 20 26" fill="none" xmlns="http://www.w3.org/2000/svg">
<path fill-rule="evenodd" clip-rule="evenodd" d="M11.4774 0.0649235C11.4452 0.0973674 11.3468 0.434398 11.2587 0.813824C11.1706 1.19325 11.0783 1.52972 11.0535 1.56156C11.0287 1.59334 10.8751 1.6696 10.7121 1.73099L10.4158 1.84253L9.76803 1.45503C9.26677 1.15517 9.09181 1.07434 8.99422 1.09754C8.9216 1.11486 8.47778 1.52073 7.94771 2.05456C7.14374 2.86434 7.02729 3.00183 7.02729 3.14156C7.02729 3.2497 7.14163 3.49209 7.38033 3.89C7.5745 4.21368 7.73337 4.50339 7.73337 4.53385C7.73337 4.56432 7.68233 4.72176 7.61989 4.88373L7.50642 5.17821L6.7609 5.36556C6.22272 5.50077 6.00182 5.5784 5.96656 5.64471C5.93852 5.69741 5.91774 6.32152 5.91774 7.10956C5.91774 8.47855 5.91809 8.48282 6.03122 8.5537C6.09366 8.59279 6.44755 8.69931 6.81779 8.79045L7.49083 8.95612L7.58711 9.18221C7.77024 9.61226 7.7717 9.60439 7.38552 10.2421C7.14142 10.6452 7.02729 10.8848 7.02729 10.9939C7.02729 11.1342 7.1447 11.2717 7.97596 12.1043C8.6554 12.7849 8.95751 13.0545 9.04057 13.0545C9.10432 13.0545 9.43895 12.8832 9.78412 12.6737C10.1293 12.4643 10.4219 12.2929 10.4343 12.2929C10.4467 12.2929 10.4568 12.6393 10.4568 13.0627C10.4568 13.7861 10.4642 13.8452 10.5792 14.0428C10.6478 14.1605 10.7833 14.2966 10.8872 14.3519C11.0238 14.4247 11.1038 14.521 11.1907 14.7175C11.3477 15.0721 11.7493 15.4906 12.1077 15.6732C12.374 15.8088 12.4432 15.8213 12.9289 15.8215C13.4264 15.8216 13.48 15.8113 13.7955 15.655C14.1992 15.4552 14.5339 15.1025 14.6978 14.7045C14.761 14.5509 14.8408 14.4254 14.8752 14.4254C14.9717 14.4254 15.2419 14.1774 15.3381 14.0005C15.405 13.8773 15.4303 13.667 15.4498 13.0678L15.475 12.2942L16.1054 12.674C16.4522 12.8829 16.7919 13.054 16.8605 13.0542C16.9551 13.0544 17.2125 12.8255 17.9322 12.101C18.7151 11.3129 18.8793 11.1227 18.8793 11.0039C18.8793 10.9152 18.7359 10.6207 18.505 10.235L18.1307 9.60972L18.265 9.283L18.3993 8.95627L19.1056 8.78405C19.517 8.68378 19.8488 8.57477 19.9004 8.52303C19.9803 8.44271 19.9889 8.30278 19.9889 7.06701V5.6998L19.8718 5.60729C19.8074 5.55637 19.4481 5.43908 19.0733 5.34662L18.3919 5.17846L18.2624 4.84666L18.1329 4.51486L18.5061 3.90041C18.7164 3.55409 18.8793 3.22868 18.8793 3.15471C18.8793 3.05174 18.6681 2.81184 17.8992 2.04141C17.024 1.16456 16.9053 1.06286 16.7908 1.09181C16.7203 1.10963 16.4 1.28383 16.0791 1.47895C15.7582 1.67407 15.4796 1.83375 15.4601 1.83385C15.4406 1.8339 15.2863 1.7749 15.1174 1.7027L14.8101 1.57146L14.6425 0.860078C14.5503 0.468822 14.443 0.11656 14.4039 0.0772613C14.3098 -0.0175317 11.5708 -0.0291079 11.4774 0.0649235ZM14.0844 1.34999C14.2873 2.14885 14.2099 2.05781 14.9475 2.36509C15.1844 2.46379 15.4341 2.54447 15.5023 2.54442C15.5705 2.54437 15.8873 2.3857 16.2063 2.19185L16.7863 1.83933L17.4632 2.51827L18.1402 3.19715L17.7705 3.81953C17.4164 4.4157 17.4031 4.44952 17.4547 4.62291C17.5331 4.88657 17.8528 5.64405 17.91 5.70158C17.9368 5.72864 18.183 5.80749 18.4569 5.87674C18.7308 5.94605 19.0405 6.02531 19.1451 6.05293L19.3354 6.10314L19.3217 7.07717L19.308 8.05114L18.6383 8.2123C18.2699 8.30095 17.9388 8.39828 17.9025 8.42859C17.8662 8.45895 17.8093 8.57517 17.7761 8.68687C17.7428 8.79857 17.6484 9.04086 17.5662 9.22532C17.4839 9.40973 17.4167 9.5983 17.4167 9.6443C17.4167 9.69035 17.5792 9.99864 17.7777 10.3295L18.1387 10.931L17.459 11.6152L16.7794 12.2994L16.3569 12.0356C16.1246 11.8905 15.834 11.7181 15.7113 11.6523L15.4881 11.5329L15.6559 11.3925C16.6637 10.5492 17.2086 9.74036 17.498 8.65839C17.6408 8.12446 17.6325 6.87844 17.4825 6.3271C17.1957 5.27295 16.5385 4.30974 15.6767 3.68072C15.317 3.41812 14.5842 3.07692 14.1133 2.95278C12.3493 2.4877 10.3569 3.1642 9.2595 4.60082C8.93879 5.02066 8.52786 5.84263 8.41574 6.28851C8.22838 7.03366 8.23024 8.04256 8.42028 8.76217C8.53996 9.21522 8.94999 10.0346 9.25981 10.4397C9.40929 10.6352 9.73046 10.9642 9.9736 11.1709L10.4156 11.5468L10.2723 11.6079C10.1935 11.6416 9.90264 11.8098 9.62596 11.9817L9.12298 12.2942L8.45337 11.6215C8.0851 11.2516 7.7838 10.9314 7.7838 10.9102C7.7838 10.8889 7.92986 10.6313 8.1084 10.3378C8.28688 10.0442 8.44701 9.75945 8.46421 9.70492C8.48312 9.64486 8.42769 9.44994 8.32355 9.21039C8.22893 8.99293 8.12449 8.7313 8.09135 8.62904C8.02004 8.40904 8.0328 8.41524 7.22903 8.20895L6.5986 8.04708L6.58493 7.07509L6.57122 6.10314L6.76145 6.05298C6.86605 6.02541 7.14455 5.95534 7.38033 5.89726C8.00294 5.74382 8.0043 5.74291 8.13472 5.38014C8.19847 5.20284 8.30448 4.94999 8.37025 4.81828C8.43607 4.68658 8.48988 4.5468 8.48988 4.50765C8.48988 4.46856 8.33101 4.17093 8.13684 3.84634C7.94267 3.52175 7.7838 3.23853 7.7838 3.21696C7.7838 3.19543 8.08454 2.87693 8.45205 2.50923L9.12031 1.84071L9.68759 2.19261C10.3229 2.58666 10.4321 2.60951 10.7989 2.42459C10.9297 2.35864 11.1582 2.26466 11.3065 2.21576C11.6253 2.11072 11.6381 2.0868 11.848 1.21066L11.9911 0.613017L12.9476 0.626776L13.9041 0.640536L14.0844 1.34999ZM13.5333 3.51124C14.543 3.67158 15.4532 4.20342 16.0868 5.0034C17.1689 6.36965 17.257 8.28252 16.3041 9.72071C16.0138 10.1589 15.8421 10.3494 15.359 10.7693C14.9679 11.1092 14.8744 11.2435 14.818 11.5458L14.7829 11.7344H14.032H13.2811V10.2929V8.85138L13.4113 8.81848C13.7316 8.73754 14.1006 8.37701 14.2365 8.012C14.3075 7.82155 14.3042 7.30128 14.2305 7.05351C14.1552 6.80066 13.8347 6.4319 13.565 6.2878C13.4014 6.20037 13.2703 6.17636 12.9533 6.17564C12.6003 6.17488 12.5164 6.19347 12.2825 6.32385C11.6139 6.69678 11.3864 7.54184 11.7718 8.22129C11.9319 8.50343 12.2582 8.77897 12.4868 8.82508L12.6255 8.85305V10.2937V11.7344H11.874H11.1225L11.0606 11.4747C10.9939 11.1947 10.8709 11.0483 10.2438 10.5025C9.87238 10.1793 9.43123 9.55402 9.23222 9.06884C8.79662 8.00677 8.83112 6.79223 9.32598 5.77053C10.1008 4.17083 11.8321 3.24112 13.5333 3.51124ZM13.2272 6.88377C13.4814 7.01614 13.6342 7.24792 13.6342 7.50128C13.6342 7.78946 13.5315 7.98946 13.3142 8.12461C12.7097 8.50079 12.0053 7.85125 12.3326 7.21938C12.5193 6.85885 12.9029 6.71495 13.2272 6.88377ZM14.7941 12.496C14.7941 12.5957 14.7605 12.5976 12.9533 12.5976C11.1461 12.5976 11.1125 12.5957 11.1125 12.496C11.1125 12.3963 11.1461 12.3945 12.9533 12.3945C14.7605 12.3945 14.7941 12.3963 14.7941 12.496ZM14.7941 13.444C14.7941 13.8244 14.8356 13.8161 12.9303 13.8161C11.6778 13.8161 11.2177 13.8002 11.173 13.7552C11.1397 13.7217 11.1125 13.596 11.1125 13.4759V13.2576H12.9533H14.7941V13.444ZM14.0376 14.5251C14.0376 14.6354 13.6941 14.9569 13.458 15.0676C12.9834 15.2901 12.4788 15.2059 12.1045 14.8418C11.7122 14.46 11.6759 14.4761 12.9263 14.4761C13.6069 14.4761 14.0376 14.4951 14.0376 14.5251ZM18.1093 14.9389C17.6308 15.0122 17.4459 15.1524 16.2248 16.3673L15.058 17.5281L14.9493 17.3512C14.8041 17.1146 14.5223 16.8715 14.2419 16.7409C14.0236 16.6392 13.9119 16.6328 11.9446 16.6086C9.96185 16.5843 9.86623 16.5787 9.619 16.4725C9.13917 16.2664 8.62504 16.187 7.75859 16.1851C6.04731 16.1813 4.71908 16.6195 3.83043 17.4809C3.4552 17.8446 3.42125 17.8659 3.32523 17.7982C3.11164 17.6476 2.8807 17.7054 2.44909 18.0176C1.07153 19.0138 0.114998 19.7468 0.0602765 19.848C-0.0526454 20.057 -0.0074565 20.2931 0.200483 20.5806C1.64244 22.5737 4.08562 25.8888 4.14766 25.9365C4.19199 25.9705 4.32755 25.9991 4.44895 26C4.65694 26.0015 4.7457 25.9455 5.98719 25.0303C6.71183 24.496 7.34387 24.0105 7.39183 23.9513C7.5103 23.805 7.5042 23.487 7.37897 23.283L7.27669 23.1165L7.7194 22.7947L8.16206 22.4729L11.3394 22.4475L14.5168 22.4221L14.867 22.2552C15.19 22.1012 15.3835 21.9214 17.3547 19.945C18.5303 18.7662 19.57 17.6957 19.6652 17.566C19.9073 17.2362 19.9994 16.9494 20 16.5244C20.0008 15.8846 19.6773 15.3608 19.1145 15.0906C18.7737 14.927 18.4783 14.8824 18.1093 14.9389ZM18.818 15.6813C19.3182 15.9151 19.4964 16.5817 19.1906 17.0752C19.0087 17.3688 14.7883 21.5585 14.5672 21.6649C14.377 21.7565 14.1839 21.7635 11.1881 21.7874C7.58777 21.8162 7.98251 21.7666 7.2838 22.2782C7.07813 22.4288 6.89082 22.5455 6.86757 22.5378C6.80457 22.5166 3.90038 18.532 3.90038 18.4667C3.90038 18.3682 4.27001 17.9485 4.5308 17.7509C5.34637 17.1328 6.82313 16.752 8.08076 16.8355C8.64592 16.8729 9.241 17.0047 9.50825 17.1516C9.65919 17.2345 9.87445 17.2457 11.7681 17.2687C14.1187 17.2972 14.0315 17.2829 14.3601 17.6923C14.4978 17.8638 14.5168 17.9256 14.5168 18.2037C14.5168 18.6026 14.3541 18.8792 14.025 19.0396C13.8111 19.1438 13.7395 19.1473 11.783 19.1473C9.89397 19.1473 9.75441 19.1534 9.64704 19.2409C9.50189 19.3592 9.48999 19.6383 9.62586 19.7384C9.7646 19.8405 13.7663 19.8388 14.104 19.7365C14.5913 19.5888 15.0362 19.115 15.1482 18.6241C15.2057 18.3721 15.264 18.304 16.4513 17.1013C17.1348 16.4089 17.7703 15.7943 17.8635 15.7356C18.1821 15.5348 18.4696 15.5185 18.818 15.6813ZM4.85868 20.9751C5.86585 22.3574 6.70966 23.5142 6.73376 23.5459C6.78657 23.6151 4.5128 25.3196 4.45288 25.2557C4.23133 25.0193 0.726158 20.14 0.757124 20.111C0.850276 20.0236 3.00891 18.4362 3.01783 18.4485C3.02313 18.4558 3.85151 19.5928 4.85868 20.9751ZM2.4974 19.3011C2.27 19.4407 2.11552 19.7938 2.16166 20.0687C2.28033 20.7758 3.24968 20.9437 3.57357 20.3131C3.66929 20.1267 3.66944 19.742 3.57377 19.5558C3.39942 19.2164 2.84802 19.0859 2.4974 19.3011ZM2.99256 19.9258C2.99256 19.963 2.97764 20.0085 2.95938 20.0269C2.91379 20.0728 2.78523 19.959 2.81958 19.9031C2.86255 19.8331 2.99256 19.8502 2.99256 19.9258Z" fill="#3B82F6"/>
</svg>
